<svg width="165" height="57" viewBox="0 0 165 57" fill="none" xmlns="http://www.w3.org/2000/svg">
<path d="M86.4624 4.77039C86.9752 4.76473 87.4872 4.76217 88 4.76279C91.3783 4.7749 91.0291 6.33809 91.0229 9.15642C91.022 9.52901 91.0141 9.91529 91.0096 10.2889L103.229 10.2907L103.222 12.2313C102.77 12.224 101.849 12.1817 101.452 12.2738C101.584 13.1712 101.508 13.9465 101.55 14.7926C101.811 20.0369 101.198 20.1205 96.2412 20.0843C96.2377 20.6718 96.1103 25.5899 96.4171 25.7295C99.7203 27.2322 98.9785 23.9228 98.96 21.9991C99.7867 21.9816 100.659 21.9946 101.491 21.9934C101.307 25.3104 102.536 28.1569 98.0369 27.9267C96.8539 27.8661 94.0918 28.1588 93.8053 26.3908C93.64 25.3715 93.7311 23.7507 93.732 22.7236L93.7426 15.1843L96.2483 15.1834C96.2262 16.1427 96.2456 17.1758 96.2474 18.1413C96.7487 18.1473 98.4852 18.2186 98.6868 17.9926C99.2323 17.3825 99.0917 12.9994 98.7186 12.377C98.2297 12.1192 92.083 12.2359 91.0185 12.2367L91.0158 27.8998L88.4916 27.8979L88.481 12.2359L85.6296 12.2397L85.634 16.3033C84.4846 16.2957 82.0363 16.1635 80.9736 16.4403C80.5492 16.5507 80.6482 19.1601 80.6889 19.6333C80.7764 20.6523 80.4104 25.0526 80.9117 25.7328C81.1371 25.8891 81.2379 25.8953 81.482 25.9332C83.7498 26.2863 83.207 24.8315 83.2556 23.2635C83.2662 22.9159 83.2485 22.5506 83.2459 22.2213L85.809 22.2105C85.8196 23.3452 86.0301 26.0284 85.4165 26.9908C84.8506 27.8768 83.1628 27.9508 82.1645 27.9279C80.8215 27.8972 78.4732 28.0782 78.2813 26.2054C78.0161 23.6094 78.2707 20.8433 78.1717 18.2691C78.001 13.8026 79.4466 14.3111 83.0805 14.3468L83.0841 12.2377L79.5572 12.2339L70.2258 12.2359L70.2205 14.6137C71.2072 14.1165 74.1612 14.1369 74.9914 15.0022C75.4379 15.4909 75.6554 16.6166 75.5873 17.3466C75.3919 19.452 76.0957 23.3188 75.0011 25.0643C74.5245 25.8243 72.2664 25.6983 71.3787 25.6886V23.8086C72.3814 23.8015 73.0286 23.9867 73.0365 22.7753C73.0471 20.9848 73.0701 19.1978 73.0383 17.4058C73.0241 16.6087 72.9587 16.3449 72.0958 16.2877C71.079 16.3204 70.3054 16.0106 70.247 17.3125C70.1886 18.6244 70.2249 19.9271 70.232 21.2389L70.2311 27.779C70.9862 27.8821 71.8747 27.99 72.3646 28.5942C73.2275 29.698 73.2045 33.2685 71.9331 34.0495C70.8862 34.6921 67.3143 34.4142 66.0411 34.3537C64.0164 34.2575 63.248 31.9974 62.2383 30.5961L62.1844 30.5219L65.2321 30.5191C65.7378 31.3568 65.9571 32.1513 66.9394 32.3521C67.8554 32.5318 69.2311 32.6673 70.0932 32.296C70.5105 32.1167 70.4114 30.3299 70.2019 30.0282C69.8323 29.6999 68.2966 29.8192 67.7316 29.8276C67.7227 28.7774 67.8041 26.4917 67.6953 25.6089C67.5521 25.5084 66.7325 25.6458 66.5106 25.6723C61.2684 26.296 62.5248 23.2056 62.3603 19.5077C62.3046 18.2554 62.2118 15.9908 62.9456 14.9567C63.4841 14.1966 65.6688 14.3416 66.5441 14.3502L66.538 16.2444C65.9341 16.2193 65.3417 16.0793 64.9668 16.6366C64.8925 17.3435 64.8342 23.0574 65.0216 23.4248C65.2957 23.6614 65.6291 23.7364 65.9827 23.7612C66.5875 23.8033 67.6679 23.8755 67.7006 23.0146C67.7457 21.8506 67.7263 20.6858 67.7263 19.5244L67.7227 12.2361L60.6875 12.2333L60.6893 10.2942L88.488 10.2868C88.5022 9.32432 88.5897 8.02966 88.4199 7.11508C88.3015 6.47805 86.0619 6.68264 85.5845 6.88494C85.2441 7.27936 85.3705 8.46581 85.382 9.06217L82.8418 9.05749L82.8374 8.27182C82.8303 5.1145 83.428 4.75589 86.4624 4.77039Z" fill="black"/>
<path d="M133.944 14.1351L134.004 15.0273C135.181 13.6068 138.004 13.7213 139.071 15.299C139.801 14.2309 140.192 14.1532 141.439 14.1236C143.076 14.0848 144.435 14.293 144.611 16.2318C144.731 17.5527 144.675 18.8966 144.674 20.2252L144.662 27.9609L142.083 27.9566C142.078 26.4464 142.248 17.3703 141.956 16.4546C141.568 16.054 139.724 16.1362 139.597 16.3851C139.146 17.2628 139.323 19.5897 139.332 20.6062L139.333 27.9616L136.758 27.9564L136.763 20.2976C136.764 19.4843 136.822 17.2167 136.687 16.5686C136.281 16.033 134.871 16.0991 134.322 16.3356C133.782 16.9141 133.961 19.8179 133.961 20.6854L133.97 27.9563L131.426 27.9577L131.432 14.1371L133.944 14.1351Z" fill="black"/>
<path fill-rule="evenodd" clip-rule="evenodd" d="M122.639 14.1781C123.923 14.0339 128.801 13.6496 128.946 15.6586C129.192 19.063 129.066 22.6379 129.023 26.0649C129.013 26.939 128.265 27.617 127.471 27.8461C126.286 28.0976 122.98 28.1372 121.893 27.6684C121.492 27.4957 121.265 27.3021 121.106 26.8881C120.951 26.4804 120.865 26.0339 120.828 25.6C120.718 24.33 120.626 16.0692 121.084 15.2045C121.4 14.6071 122.041 14.3794 122.639 14.1781ZM126.323 16.3334C126.182 16.0266 124.248 16.1137 123.691 16.1254C123.538 16.2977 123.359 16.438 123.345 16.6859C123.192 19.3987 123.388 22.1304 123.321 24.8481C123.314 25.1243 123.405 25.5348 123.484 25.8002C123.864 26.0549 125.717 25.9627 126.253 25.9232C126.741 25.2781 126.569 23.7404 126.541 22.557C126.511 21.2991 126.834 17.4469 126.323 16.3334Z" fill="black"/>
<path d="M109.323 10.2335L111.907 10.2287L111.91 18.1363L115.638 18.1214L115.644 10.2322L118.229 10.228L118.227 27.9345C117.65 28.0038 116.28 27.9624 115.645 27.9599L115.642 20.1394L111.905 20.1377L111.907 27.9643L109.32 27.9603L109.323 10.2335Z" fill="black"/>
<path fill-rule="evenodd" clip-rule="evenodd" d="M151.616 14.1025C155.053 13.9531 155.149 15.6288 155.056 18.4853C155.024 19.4529 155.053 20.8046 155.055 21.8144L149.463 21.8134C149.468 22.9112 149.42 24.0486 149.444 25.1259C149.466 26.1739 151.158 26.0842 151.81 25.9423C152.912 25.7024 152.244 24.6002 152.607 23.9941L153.024 23.9716L154.97 23.9658C154.983 25.0129 155.118 27.3335 153.765 27.7079C152.269 28.122 149.752 28.0762 148.211 27.7206C147.869 27.6411 147.297 27.0482 147.172 26.6982C146.754 23.4345 147.042 19.9705 146.992 16.663C146.968 15.1281 147.483 14.6398 148.814 14.1679C149.701 14.0806 150.81 14.1375 151.616 14.1025ZM152.389 16.413C152.213 15.9667 150.392 16.1014 149.876 16.1113C149.449 16.4979 149.469 16.5585 149.444 17.206C149.409 18.1095 149.472 19.0418 149.472 19.9482H152.268L152.46 19.8945C152.642 19.3534 152.603 16.9545 152.389 16.413Z" fill="black"/>
<path d="M158.807 14.181C159.89 13.9845 162.885 13.9496 163.67 14.8098C164.436 15.6479 164.331 16.9303 164.31 17.9731H161.789C161.796 17.6155 161.832 16.6927 161.727 16.4652C161.381 15.652 159.606 15.911 159.433 16.7001C159.298 17.3124 159.297 19.2681 159.515 19.8102C160.554 20.8541 165.279 18.0693 164.383 25.2873C164.223 26.574 164.128 27.3633 162.81 27.8373C161.63 28.0587 158.587 28.2564 157.662 27.3338C156.854 26.5291 156.96 25.1904 156.973 24.1327L159.517 24.1253C159.512 25.3006 159.271 26.2123 160.949 26.0943C161.183 26.0778 161.593 25.8669 161.692 25.658C162.087 24.8189 161.863 23.5237 161.818 22.6086C161.682 21.4581 158.883 22.543 157.934 21.7069C157.435 21.3604 157.113 20.8465 157.001 20.2427C156.883 19.5669 156.894 18.8511 156.905 18.1637C156.926 16.7734 156.783 15.8899 157.581 14.6925C158.076 14.4292 158.271 14.3518 158.807 14.181Z" fill="black"/>
<path fill-rule="evenodd" clip-rule="evenodd" d="M25.2257 15.9481C28.1257 15.7827 29.8157 18.0169 30.8927 20.4051C33.1337 25.3289 32.5372 31.3916 31.4171 36.534C30.5712 40.4175 30.0049 42.763 31.254 46.6444C31.7775 46.1061 32.5013 44.6754 32.8781 43.9813C34.8596 40.3303 36.2164 37.114 36.8634 32.9891C37.6784 39.0697 35.6358 44.6032 33.4513 50.1541C32.7142 52.027 31.6942 54.7713 30.8077 56.5682C30.4671 55.9217 30.3055 55.6056 30.0158 54.9129C29.8083 54.6028 29.2674 53.288 29.0802 52.8973C28.2144 51.0901 27.412 48.8952 26.4435 47.1737C25.8014 48.2263 25.3907 49.3069 24.882 50.4159C23.9716 52.4004 23.1165 54.5773 22.1066 56.5077C21.6088 55.6594 21.0448 54.2903 20.6583 53.369L18.7706 48.7713C17.899 46.6229 16.6452 43.7419 16.3185 41.5428C15.1104 33.41 20.9099 30.1976 25.0665 24.5155C25.7243 23.5378 26.3354 22.4504 26.463 21.2625C26.5835 20.1418 26.1169 19.3317 24.9318 19.2791C23.7475 19.2266 22.9755 19.8895 22.1417 20.6268C22.5229 18.9107 23.2536 16.3218 25.2257 15.9481ZM28.1603 20.4657C28.1207 23.2298 27.6966 25.2021 26.3458 27.6307C23.6731 32.4365 20.6249 36.6996 21.6896 42.5389C21.9095 43.9943 22.4561 46.3469 23.2189 47.6473L23.3517 47.8368C23.4194 47.6381 23.1179 46.8996 23.0665 46.6375C22.6806 44.6648 23.0112 42.8666 23.7081 41.0096C25.7714 35.5126 29.0791 30.2544 28.8595 24.1668C28.8348 23.484 28.7658 20.8875 28.1603 20.4657ZM26.0333 16.9852C25.3698 17.038 24.6625 17.4141 24.4884 18.1014L24.5411 18.202C24.6846 18.1985 24.7108 18.2059 24.838 18.1317C25.3113 17.931 26.0454 17.5754 26.4122 17.2196L26.465 17.076C26.3288 16.9712 26.2108 16.9904 26.0333 16.9852Z" fill="black"/>
<path d="M43.374 13.8211C43.7252 13.7907 44.3102 13.8127 44.6789 13.8154C41.3685 14.8552 40.2885 16.9012 39.8175 20.2621C39.6043 21.7839 39.5907 23.1167 39.0472 24.5773C39.0351 24.0205 39.085 23.3029 39.1096 22.7347C36.6696 25.6713 36.3669 27.9678 36.36 31.628L36.3209 31.7532L36.2197 31.7122C35.4016 30.5208 34.5666 27.3827 34.3595 25.932C33.5302 20.1237 37.3198 14.5196 43.374 13.8211Z" fill="black"/>
<path d="M8.4375 13.8249C9.9143 13.6874 11.292 14.0236 12.6197 14.6608C19.3531 17.8924 19.9305 25.0604 16.9431 31.2692C16.8719 31.4017 16.8596 31.4027 16.752 31.5003C16.6596 31.3601 16.6222 29.4347 16.5813 29.0755C16.4957 28.3323 16.3438 27.5982 16.1275 26.882C15.6547 25.3544 14.7622 24.0583 13.8139 22.789C13.8653 23.2707 13.944 23.759 13.8729 24.2357L13.8129 24.2796L13.8673 24.211L13.7489 24.1584L13.8744 24.1289L13.7186 24.0733C13.1978 22.2034 13.3153 20.5433 12.816 18.6185C12.4201 16.9442 11.5125 15.3839 9.99688 14.4983C9.5163 14.2175 8.89274 14.1186 8.4375 13.8249Z" fill="black"/>
<path d="M42.9099 6.30371L42.9603 6.35675C42.6484 7.85491 43.3026 9.06608 42.8184 10.5259C42.2493 12.3517 40.3188 12.8687 38.7579 13.6165C36.6556 14.6236 35.7181 15.6185 34.6349 17.6352L34.5446 17.6249C34.4621 17.3802 34.5125 16.7307 34.5492 16.4437C34.9792 13.0891 36.2613 7.54774 40.228 6.78481C41.2216 6.59372 41.8747 6.7054 42.9099 6.30371Z" fill="black"/>
<path d="M10.0397 6.39697C11.1594 6.77899 11.8299 6.60352 12.9718 6.82739C14.5426 7.13537 15.2757 8.16843 16.1426 9.32597C17.2855 10.8521 18.7965 16.0819 18.4313 17.7964C17.7778 16.8801 17.7605 16.3939 16.7139 15.3086C14.9398 13.469 12.5716 13.3358 10.904 11.8053C9.63593 10.6416 9.9725 8.06824 10.0397 6.39697Z" fill="black"/>
<path d="M4.43135 21.415C6.90283 21.3263 9.07928 21.9485 11.0919 23.4116C13.1973 24.9664 14.5947 27.2975 14.9738 29.8871C15.0835 30.6087 15.2223 34.4424 14.9006 34.8824C14.7116 34.773 14.7344 34.7099 14.63 34.4725C14.0413 33.2123 13.371 31.8994 12.3289 30.9478C11.9493 30.601 10.4204 29.1128 10.0368 29.0165C9.83138 29.2358 10.0824 29.3087 9.92074 29.5972C9.64811 29.3701 9.23037 26.7658 9.04194 26.169C8.46906 24.354 7.57501 23.1657 5.90852 22.2137C5.65799 22.0705 4.26126 21.5181 4.23828 21.4861L4.43135 21.415Z" fill="black"/>
<path d="M48.262 21.4123C48.4681 21.4082 48.5874 21.3827 48.7597 21.4899C48.628 21.6164 47.5298 21.9638 47.1695 22.1582C44.9982 23.3301 44.0277 25.2102 43.5243 27.5489C43.4 28.1266 43.3449 28.9249 43.1863 29.4264L43.0958 29.4472C43.043 29.2746 42.9938 29.1009 42.9483 28.9263C42.6022 29.0633 42.0758 29.5626 41.7741 29.8157C39.929 31.3646 39.2968 32.2198 38.3475 34.3675C38.2385 34.7005 38.0841 35.0797 37.9588 35.4118C37.8268 34.7345 37.839 34.0669 37.7967 33.3864C37.3776 26.638 41.2161 21.5933 48.262 21.4123Z" fill="black"/>
<path d="M26.4386 0.00390625C26.5053 0.0464836 26.6644 0.21834 26.709 0.280807C27.1795 0.942008 27.7985 1.40726 28.3968 1.94088C31.4429 4.65758 29.0444 8.54074 26.8442 10.8944C27.2735 9.46853 27.6238 8.39444 27.3455 6.91367C26.9876 6.42756 26.888 6.31523 26.32 6.12392C24.7554 6.95587 25.7275 9.83154 26.2361 11.0898C24.8984 9.69939 23.3933 7.62135 23.1535 5.65491C22.7733 2.53792 24.9344 1.9369 26.4386 0.00390625Z" fill="black"/>
<path d="M38.0705 4.3248C38.3021 4.32539 38.2844 4.28753 38.4387 4.39567C38.3082 4.63544 37.5751 5.02092 37.2426 5.33436C35.1592 7.29859 34.1124 12.1334 33.7361 14.9108C33.5857 16.0212 33.6968 18.7062 33.6563 19.9986C33.455 19.4837 33.1771 18.8941 32.9505 18.3817C32.2289 16.3903 31.4797 15.4836 31.186 13.1487C30.5878 8.39094 33.1967 4.9091 38.0705 4.3248Z" fill="black"/>
<path d="M14.5469 4.31562C15.3835 4.30744 16.5113 4.56497 17.2732 4.88504C19.9294 6.00096 21.6901 8.25056 21.8491 11.1674C21.9883 13.7232 21.0937 15.8148 20.1315 18.1225C19.9515 18.3747 19.6704 19.2501 19.3417 19.7312C19.2698 18.1821 19.3323 16.2932 19.1717 14.7247C18.8023 11.9278 18.0731 8.98771 16.7114 6.50032C16.3504 5.84074 14.604 4.52497 14.5469 4.31562Z" fill="black"/>
<path d="M46.7415 30.3996C47.1685 30.3466 48.5966 30.3167 48.9474 30.5032L48.9447 30.6044C46.5306 31.4347 45.9186 32.4785 44.596 34.6143C44.3296 35.0445 43.6702 35.9733 43.2645 36.2533C41.6143 37.3919 40.8149 37.2919 39.2366 38.7403C38.772 39.2544 38.4949 39.6744 38.1055 40.251C38.2037 35.4852 40.7928 30.9566 45.9169 30.4631C46.1913 30.4367 46.4665 30.4184 46.7415 30.3996Z" fill="black"/>
<path d="M4.87636 30.3974C8.64298 30.126 12.2587 31.8445 13.7822 35.4779C14.1487 36.352 15.0132 39.464 14.8194 40.2553C14.682 40.1968 14.6641 40.0706 14.5844 39.9017C12.9382 37.1288 11.2518 37.7402 9.31767 35.9367C8.20933 34.9032 7.70407 33.1194 6.22705 31.8151C5.95449 31.5703 5.65572 31.3564 5.33617 31.1775C5.05241 31.0209 4.10024 30.7249 3.97656 30.5276C4.19542 30.419 4.61537 30.4148 4.87636 30.3974Z" fill="black"/>
<path d="M6.94598 15.5066C8.59604 15.19 10.1247 16.5584 10.9277 17.869C11.8528 19.3788 12.311 21.0683 12.555 22.806C12.0239 22.3393 11.6403 22.0067 11.0657 21.6013C9.2498 20.5775 7.63606 20.7965 5.93061 19.8853C4.72983 19.2438 4.44666 17.0654 4.21484 15.7705C5.24989 16.0953 5.87359 15.7449 6.94598 15.5066Z" fill="black"/>
<path d="M44.9671 15.5009C46.1267 15.3509 46.6663 15.7411 47.7775 15.9194C47.9702 15.9504 48.4378 15.8353 48.7219 15.826C48.6837 16.1722 48.5508 16.5194 48.5131 16.8213C48.0674 20.3979 46.0953 20.2075 43.1306 21.0323C41.8563 21.5626 41.4913 21.8089 40.4453 22.7641C40.5174 21.4258 41.2786 19.021 41.9844 17.8605C42.7485 16.6044 43.5179 15.8725 44.9671 15.5009Z" fill="black"/>
<path d="M49.2454 23.6956C50.7698 23.6141 51.307 24.3128 53.0281 24.1048C52.4516 25.2733 52.4833 26.8135 51.3426 27.8456C50.1922 28.8867 48.8734 28.7057 47.4608 28.6484C46.5969 28.6532 45.8418 28.6733 45.0454 29.0508C44.8405 29.1479 44.4534 29.3873 44.2468 29.3551C44.1078 29.0318 44.333 28.6125 44.472 28.3175C45.4909 26.1553 46.5611 23.9097 49.2454 23.6956Z" fill="black"/>
<path d="M3.35079 23.6943C3.76169 23.6128 4.69029 23.8081 5.06663 24.009C7.18143 25.1381 8.14833 27.4629 8.87782 29.5644C7.97773 29.0435 7.53487 28.7895 6.48605 28.6699C5.02825 28.5627 3.42991 28.9914 2.14603 28.2508C0.697444 27.4153 0.405001 25.7116 0 24.2159C0.262757 24.0998 0.508718 24.2895 0.69899 24.2498C1.75333 24.0302 2.25071 23.7485 3.35079 23.6943Z" fill="black"/>
<path d="M28.3812 11.9521C28.7052 11.9763 29.1632 12.0939 29.3948 12.3301C29.5017 12.4383 29.5553 12.5882 29.5412 12.7397C29.4809 13.4094 28.4041 14.0118 27.8492 14.4507L27.1953 15.1096C27.5003 14.2324 27.6229 13.5323 27.8272 12.6393C27.9121 12.268 28.0673 12.1232 28.3812 11.9521Z" fill="black"/>
<path d="M29.7641 13.7808C30.4054 13.7967 31.1007 14.6534 30.5326 15.1728C30.0887 15.5787 29.507 15.4666 28.9546 15.4167L27.6445 15.4152C28.4189 14.8923 29.0143 14.3008 29.7641 13.7808Z" fill="black"/>
<path d="M26.0399 12.2539C26.5937 12.2192 26.9868 12.2868 27.0548 12.9316C27.1125 13.4781 26.7921 14.6244 26.4647 15.0357C26.3757 14.1462 25.8567 13.7223 25.2617 13.0137C25.4863 12.6144 25.648 12.4734 26.0399 12.2539Z" fill="black"/>
<path fill-rule="evenodd" clip-rule="evenodd" d="M103.546 36.4904C104.202 36.449 106.59 36.3219 107.121 36.7443C107.256 36.8509 107.402 37.4021 107.404 37.6193C107.42 39.5575 107.481 41.5927 107.363 43.5236C107.35 43.7254 107.215 43.9098 107.099 44.05C106.477 44.4286 104.365 44.304 103.539 44.2804C103.527 41.6839 103.529 39.087 103.546 36.4904ZM106.265 37.551C105.965 37.2089 105.081 37.3411 104.654 37.3429L104.661 43.4113C105.063 43.4129 105.858 43.439 106.219 43.3644C106.339 42.9608 106.325 38.1635 106.265 37.551Z" fill="black"/>
<path fill-rule="evenodd" clip-rule="evenodd" d="M145.283 38.2123C145.587 38.1937 146.225 38.1418 146.493 38.2738C146.574 38.3145 146.667 38.4502 146.828 38.5336C146.841 38.3642 146.813 38.3548 146.9 38.2475C147.171 38.1606 147.654 38.1922 147.955 38.1957L147.961 42.8246C147.962 43.6112 148.008 44.5777 147.892 45.3432C147.849 45.6267 147.554 45.8001 147.328 45.9447C146.786 46.0386 145.508 45.994 144.912 45.9877C144.82 45.9874 144.837 45.9822 144.747 45.9301C144.681 45.7176 144.72 45.3646 144.732 45.1312C145.224 45.1208 145.679 45.1414 146.169 45.1742C146.993 45.2294 146.858 44.3703 146.84 43.8187C146.187 44.4017 145.257 44.41 144.635 43.7787C144.401 43.0462 144.387 39.4202 144.625 38.6508C144.834 38.3956 144.98 38.3119 145.283 38.2123ZM145.739 39.0775C145.613 39.284 145.564 39.5347 145.589 39.7699C145.655 40.3838 145.404 42.9284 145.809 43.2631C146.129 43.3209 146.377 43.2923 146.698 43.2728C146.942 42.904 146.818 40.8184 146.844 40.2797C146.902 39.0873 146.771 39.0429 145.739 39.0775Z" fill="black"/>
<path fill-rule="evenodd" clip-rule="evenodd" d="M97.6326 38.2199C98.3995 38.1739 99.1681 38.1761 99.9344 38.2267C100.358 38.4725 100.546 38.7178 100.545 39.2267C100.539 40.6995 100.676 42.2503 100.472 43.7043C100.438 43.9463 100.043 44.16 99.8494 44.2453C99.6395 44.2666 99.3867 44.2659 99.1873 44.2736C97.2531 44.3481 96.8239 44.3135 96.8933 42.1965C96.9272 41.1745 96.8025 39.8842 96.9851 38.8488C97.0418 38.5248 97.3671 38.3422 97.6326 38.2199ZM99.3777 39.2043C99.3555 39.0032 98.2815 39.0684 98.0965 39.0744C97.879 39.5527 98.0285 42.5115 98.0652 43.2004C98.0812 43.4947 99.1402 43.3949 99.3533 43.384C99.5744 42.8684 99.4536 39.9067 99.3777 39.2043Z" fill="black"/>
<path d="M80.6197 36.4923L81.8465 36.4717C81.4671 37.5408 80.6722 39.2641 80.2105 40.3726C80.4294 40.9078 81.1648 42.5711 81.2827 43.0087C81.4712 43.4307 81.655 43.8544 81.8354 44.28L80.6173 44.2799C80.0599 42.933 79.5107 41.5826 78.9703 40.2288C78.9271 41.5341 78.9551 42.9658 78.954 44.2803L77.8281 44.278L77.8345 36.4827L78.9563 36.4796L78.9621 40.5822C79.4051 39.2904 80.1265 37.8222 80.6197 36.4923Z" fill="black"/>
<path fill-rule="evenodd" clip-rule="evenodd" d="M83.2233 38.2249C83.7906 38.1829 84.7212 38.1268 85.2604 38.2376C85.6801 38.324 85.822 38.5295 86.028 38.8763C86.0834 39.665 86.0522 40.7822 86.0505 41.5833L83.5973 41.5843C83.5991 42.0795 83.5781 42.5992 83.6003 43.0853C83.6238 43.4809 84.4493 43.4862 84.7028 43.3939C84.9851 43.2907 84.8891 42.8186 84.9635 42.5726L85.0915 42.5276L86.03 42.5296C86.0346 42.8827 86.0603 43.2611 85.9548 43.6019C85.8812 43.8399 85.7569 44.0398 85.53 44.1556C85.0684 44.3908 83.5956 44.3493 83.1149 44.1927C82.9137 44.1272 82.7794 44.044 82.6842 43.8489C82.3948 43.2568 82.3579 39.379 82.6071 38.7337C82.7116 38.4631 82.9771 38.3368 83.2233 38.2249ZM83.6755 39.0735C83.5355 39.4715 83.5974 40.3306 83.612 40.7708L84.9137 40.7698C85.0526 39.3496 85.2414 39.0307 83.6755 39.0735Z" fill="black"/>
<path fill-rule="evenodd" clip-rule="evenodd" d="M123.234 38.1889C125.407 38.1358 125.047 38.9714 125.077 40.8041C125.081 41.0612 125.075 41.3285 125.074 41.5864L122.579 41.5883C122.597 42.5264 122.229 43.5168 123.41 43.4223C124.305 43.3505 123.712 42.8473 124.034 42.5297L125.028 42.5307C125.038 43.0331 125.092 43.6987 124.65 44.0385C124.112 44.4504 122.796 44.2886 122.139 44.2416C121.901 44.0902 121.699 43.9663 121.583 43.7006C121.406 43.2972 121.416 39.1801 121.608 38.7358C121.729 38.4536 122.002 38.3254 122.273 38.2221C122.593 38.209 122.913 38.1974 123.234 38.1889ZM122.683 39.0825C122.498 39.4079 122.573 40.3774 122.585 40.7719L123.944 40.769C124.025 39.3406 124.262 39.0111 122.683 39.0825Z" fill="black"/>
<path d="M89.5041 38.2074L90.6294 38.1929C90.5371 38.9574 90.1502 40.7452 89.9827 41.548C89.8105 42.6109 89.5461 44.8429 88.8767 45.7026C88.5919 46.0687 87.6178 46.0036 87.1626 45.9954L87.1643 45.1155C87.9236 45.1187 88.3497 45.1634 88.4185 44.2694L88.3444 44.1863L87.9493 44.1742C87.6581 43.896 86.7464 39.01 86.5859 38.2077L87.7106 38.1978C88.0228 39.8692 88.2942 41.6069 88.6427 43.2635L89.5041 38.2074Z" fill="black"/>
<path d="M116.975 38.2074C117.189 38.2014 117.908 38.1549 118.059 38.2335C118.071 38.3539 118.08 38.433 118.103 38.5516C118.528 38.2943 118.691 38.1978 119.201 38.1655C120.762 38.0669 120.437 39.8522 120.433 40.9975L120.427 44.2768L119.306 44.2741L119.309 40.5701C119.314 40.1847 119.391 39.5019 119.191 39.1729C119.091 39.0088 118.238 39.0607 118.216 39.2143C118.001 40.7503 118.088 42.6999 118.089 44.2777L116.969 44.2754L116.975 38.2074Z" fill="black"/>
<path d="M140.019 38.2105C140.291 38.2061 140.891 38.1503 141.102 38.2408C141.121 38.3552 141.134 38.4299 141.164 38.5419L141.579 38.2249C142.428 38.1771 143.351 38.0444 143.453 39.175C143.508 39.7802 143.485 40.3775 143.484 40.9847L143.474 44.2797L142.365 44.279L142.361 40.5735C142.373 40.1501 142.452 39.4877 142.231 39.1585C142.008 39.0113 141.44 39.0513 141.23 39.2514C141.067 39.741 141.132 43.4901 141.133 44.2811L140.016 44.2789L140.019 38.2105Z" fill="black"/>
<path d="M110.285 38.2093L111.396 38.2022C111.7 39.848 111.867 41.6794 112.225 43.2982C112.47 41.6012 112.761 39.9075 113.012 38.2099L114.134 38.1997L113.96 39.0992C113.748 40.6758 113.304 42.6541 113.021 44.28L111.399 44.2776C111.324 43.6747 111.133 42.7902 111.021 42.1799L110.285 38.2093Z" fill="black"/>
<path d="M133.34 38.2102L134.452 38.1997C134.671 39.9368 135.063 41.7452 135.233 43.4737C135.472 41.8949 135.75 39.7158 136.075 38.2078L137.177 38.2064C137.11 38.4686 137.072 38.7606 137.031 39.0302C136.757 40.2913 136.22 43.0386 136.074 44.2796L134.445 44.2786C134.089 42.2543 133.686 40.238 133.34 38.2102Z" fill="black"/>
<path d="M92.6472 36.4858C93.8203 36.4506 95.186 36.4795 96.3725 36.4784L96.3714 37.3539L95.0395 37.369L95.0412 42.9279L95.0407 44.2806L93.9248 44.2792L93.9236 37.3703L92.6343 37.3596C92.6291 37.0649 92.6384 36.78 92.6472 36.4858Z" fill="black"/>
<path d="M127.946 36.4804L129.052 36.4751L129.059 43.3826L130.999 43.3827L131.001 44.275C129.974 44.2715 128.965 44.3023 127.936 44.2726C127.925 41.6752 127.929 39.0778 127.946 36.4804Z" fill="black"/>
<path d="M131.587 38.2027L132.717 38.1997C132.673 40.1725 132.716 42.2845 132.714 44.2743L131.582 44.2713L131.587 38.2027Z" fill="black"/>
<path d="M114.738 38.2081L115.865 38.1997L115.859 44.2767L114.739 44.2768L114.738 38.2081Z" fill="black"/>
<path d="M137.797 38.2097L138.912 38.1997L138.914 44.2819L137.797 44.278L137.797 38.2097Z" fill="black"/>
<path d="M108.564 38.2063L109.673 38.1997L109.675 44.2777L108.562 44.2748L108.564 38.2063Z" fill="black"/>
<path d="M114.72 35.9286L115.905 35.9243L115.9 37.0335L114.715 37.0273L114.72 35.9286Z" fill="black"/>
<path d="M131.565 35.9281L132.739 35.9243L132.735 37.0318L131.562 37.0255L131.565 35.9281Z" fill="black"/>
<path d="M137.782 35.9273L138.921 35.9243L138.922 37.0318L137.777 37.0269L137.782 35.9273Z" fill="black"/>
<path d="M108.549 35.9274L109.687 35.9243L109.69 37.0337L108.547 37.0232L108.549 35.9274Z" fill="black"/>
</svg>
