<svg width="104" height="69" viewBox="0 0 104 69" fill="none" xmlns="http://www.w3.org/2000/svg">
<path d="M48.7191 1.52136C48.7943 1.39665 51.5103 0.123093 51.8475 0.000976562C52.1342 0.0552846 52.4615 0.254949 52.7278 0.396914C53.8035 0.809557 55.5116 1.81053 56.6822 2.32883L56.6847 0.270791C57.3437 0.25014 58.4249 0.243853 59.0598 0.292613L59.2275 0.299332C59.3939 0.532591 59.3181 3.19967 59.3175 3.65472C59.7632 3.88015 60.363 4.1626 60.7797 4.40418C61.0558 4.53006 62.2363 5.02161 62.2567 5.24913C62.33 6.08311 62.2973 7.23369 62.2967 8.06545L62.2961 14.9694C61.6347 14.8752 61.25 14.9289 60.7593 15.4367C60.0942 16.3051 59.5715 17.387 58.918 18.2773C58.6998 18.5749 58.4193 18.9459 58.2332 19.2539C57.1489 20.6451 56.0029 21.9707 54.8039 23.263C54.6437 23.4358 54.0698 24.1183 53.9132 24.217C53.9304 24.0502 52.8338 26.3838 52.8387 26.3769C52.3462 27.0549 52.2365 29.5361 51.8728 29.8821C51.4487 29.8323 51.6348 29.0803 51.5559 28.7431C51.1916 27.1757 50.6935 25.5499 49.7208 24.2427C49.4212 23.84 49.0637 23.4798 48.7456 23.0897C48.6143 22.8618 47.9227 22.2503 47.6693 21.898C46.757 21.0283 45.3456 19.1225 44.6162 18.0616C44.0718 17.2699 43.5646 16.18 42.9096 15.4419C42.5823 15.0732 42.4452 15.042 41.9908 14.9024C41.7891 14.9266 41.5983 14.9779 41.4229 14.889C41.3003 14.5462 41.3818 6.06628 41.3844 5.17103L41.9949 4.83335C42.4168 4.68022 42.957 4.35968 43.377 4.16821C44.6677 3.57988 46.1622 2.67335 47.4511 2.15357C47.6718 1.97641 48.4479 1.6362 48.7191 1.52136Z" fill="#CBB600"/>
<path d="M59.0643 0.292645L59.232 0.299363C59.3984 0.532623 59.3226 3.1997 59.322 3.65475C59.7677 3.88018 60.3675 4.16263 60.7842 4.40421C61.0603 4.53009 62.2408 5.02164 62.2612 5.24916C62.3345 6.08314 62.3019 7.23372 62.3012 8.06548L62.3006 14.9694C61.6392 14.8753 61.2545 14.9289 60.7638 15.4368C60.0987 16.3051 59.576 17.387 58.9225 18.2773C58.7043 18.5749 58.4238 18.946 58.2377 19.2539C57.1534 20.6452 56.0074 21.9707 54.8084 23.263C54.6482 23.4358 54.0743 24.1183 53.9177 24.217L53.8856 24.076C54.1939 23.656 54.5175 23.3462 54.8276 22.9011C54.7567 21.6651 54.8849 12.3322 54.724 12.1239C54.4373 12.0901 54.0971 12.0917 53.8037 12.0851L53.8363 12.0045C53.4245 11.9834 52.9487 12.0021 52.5313 12.0085C52.4734 11.964 52.3969 11.8933 52.4068 11.8105C52.4543 11.3971 52.1399 9.71765 52.7175 9.69164C52.765 9.51318 52.7668 9.21452 52.6713 9.04309C52.3224 8.91998 52.355 8.77087 52.3526 8.42092C52.3489 7.82007 52.3563 7.21122 52.3612 6.61093C52.4795 6.44943 52.4814 6.49091 52.7095 6.40708C52.8402 5.95455 52.7341 1.21915 52.7323 0.396946C53.808 0.809588 55.5161 1.81056 56.6867 2.32886L56.6892 0.270823C57.3482 0.250172 58.4294 0.243884 59.0643 0.292645Z" fill="#CBB600"/>
<path d="M59.0631 0.290527L59.2308 0.297246C59.3973 0.530506 59.3214 3.19758 59.3208 3.65263C59.7665 3.87806 60.3663 4.16052 60.783 4.4021C61.0592 4.52797 62.2396 5.01952 62.26 5.24705C62.3333 6.08102 62.3007 7.2316 62.3001 8.06336L62.2994 14.9673C61.638 14.8731 61.2533 14.9268 60.7627 15.4346C60.0975 16.303 59.5748 17.3849 58.9214 18.2752C58.7031 18.5728 58.4227 18.9438 58.2365 19.2518L58.0725 19.159C57.956 18.9271 58.0072 17.6866 58.0078 17.327L58.0072 13.4114L58.006 0.47928C58.4103 0.491609 58.7481 0.54789 59.0631 0.290527Z" fill="#CBB600"/>
<path d="M60.7821 4.40039C61.0582 4.52627 62.2387 5.01781 62.259 5.24534C62.3324 6.07932 62.2997 7.2299 62.2991 8.06166L62.2985 14.9656C61.6371 14.8714 61.2524 14.9251 60.7617 15.4329C60.8178 15.1903 60.8998 15.1101 61.0551 14.9223L61.1094 14.8569C61.1957 14.2003 61.1846 4.9984 61.0915 4.74658C60.9201 4.62212 60.8906 4.58304 60.7821 4.40039Z" fill="#CBB600"/>
<path d="M52.5571 9.77051L54.7584 9.77513L54.7609 11.9902L53.8362 12.0011C53.4245 11.98 52.9486 11.9987 52.5312 12.0052C52.5873 11.3824 52.559 10.4202 52.5571 9.77051Z" fill="white"/>
<path d="M52.5547 6.67529L54.7548 6.67813C54.7572 7.36009 54.7825 8.22175 54.7289 8.88676C54.0243 8.90809 53.2642 8.89194 52.5553 8.88916L52.5547 6.67529Z" fill="white"/>
<path d="M41.9949 4.83358C42.4168 4.68046 42.957 4.35991 43.377 4.16845C44.6677 3.58012 46.1622 2.67359 47.4511 2.15381C47.5343 2.18075 47.7285 2.22223 47.7297 2.28166C47.816 7.4805 47.7291 12.9479 47.7605 18.1351C47.7692 19.6178 47.6964 20.9286 47.7803 21.8338L47.6693 21.8982C46.757 21.0285 45.3456 19.1228 44.6162 18.0618C44.0718 17.2701 43.5646 16.1803 42.9096 15.4421C42.5823 15.0734 42.4452 15.0422 41.9908 14.9026C41.7891 14.9269 41.5983 14.9781 41.4229 14.8893C41.3003 14.5465 41.3818 6.06652 41.3844 5.17126L41.9949 4.83358Z" fill="#CBB600"/>
<path d="M41.9949 4.82959C42.2203 5.30992 42.1492 9.53368 42.1303 10.3251C42.101 11.556 42.2214 13.5909 42.1046 14.787L41.9908 14.8987C41.7891 14.9229 41.5983 14.9741 41.4229 14.8853C41.3003 14.5425 41.3818 6.06252 41.3844 5.16727L41.9949 4.82959Z" fill="#CBB600"/>
<path d="M47.4531 2.15419C47.6738 1.97703 48.4499 1.63681 48.7211 1.52197L48.8444 1.61006C47.8797 2.30275 48.2021 1.4832 48.2095 2.94027C48.2169 4.28681 48.2033 5.64261 48.2021 6.99001L48.2009 16.6162L48.207 20.2795C48.2095 20.6256 48.257 21.8299 48.1941 22.0944C48.4598 22.6553 49.0072 23.0347 49.0633 23.2528C48.9585 23.1972 48.8537 23.143 48.7476 23.0903C48.6163 22.8625 47.9247 22.2509 47.6713 21.8986L47.7823 21.8342C47.6985 20.929 47.7712 19.6182 47.7626 18.1355C47.7311 12.9482 47.8181 7.48088 47.7318 2.28204C47.7305 2.22261 47.5363 2.18113 47.4531 2.15419Z" fill="#CBB600"/>
<path d="M48.9267 6.69075C49.5573 6.64915 50.4795 6.67165 51.1323 6.66721C51.1335 7.21916 51.1686 8.41468 51.0953 8.89612C50.3771 8.89637 49.659 8.88872 48.9415 8.87319C48.8989 8.26495 48.9273 7.32384 48.9267 6.69075Z" fill="white"/>
<path d="M48.9295 9.78836C49.5878 9.75186 50.4619 9.77313 51.1369 9.76962L51.1376 11.9993L48.9258 11.9848L48.9295 9.78836Z" fill="white"/>
<path d="M35.9752 8.45163C36.2094 8.37673 36.0935 8.38425 36.3367 8.43061C37.011 8.89238 37.4509 10.6999 37.6042 11.5132C37.75 12.2759 37.8526 13.0462 37.9116 13.8205C38.0121 16.781 38.6872 19.7936 40.7048 22.0889C41.106 22.662 43.2698 24.5666 43.9062 24.0653C43.225 23.2747 42.7876 22.7645 42.351 21.6932C41.7414 20.1975 40.9753 17.6483 41.4623 16.0547C41.5129 15.8893 41.6507 15.8432 41.7726 15.7926C42.3421 15.865 42.7399 16.5903 43.0092 17.0459C43.1332 17.2558 43.8758 18.4198 43.8784 18.575C44.1208 18.7957 45.6362 20.8413 46.0241 21.3109C47.0089 22.5034 48.312 23.7851 49.2065 24.9556C50.0837 26.3268 50.7618 28.4967 50.8068 30.1081C50.8807 32.7432 49.9585 35.367 48.6899 37.6289C48.4982 37.9707 48.0168 38.8979 47.7166 39.0836C47.4422 38.5944 47.2462 37.9864 46.9121 37.3806C46.0375 35.7945 44.785 34.7161 43.7489 33.3836C43.6038 33.3171 41.104 30.7933 40.8792 30.5338C40.2887 29.9945 38.0649 27.5611 37.6546 26.9151C37.0761 26.3511 35.9829 24.5783 35.6679 23.84C35.6633 23.836 35.6578 23.8326 35.6541 23.8278C34.6866 22.5845 34.6472 15.5232 34.711 13.7478C34.742 12.9563 34.8143 12.167 34.9277 11.383C35.0467 10.5921 35.3444 8.91852 35.9752 8.45163Z" fill="#CBB600"/>
<path d="M35.9752 8.45163C36.2094 8.37673 36.0935 8.38425 36.3367 8.43061C37.011 8.89238 37.4509 10.6999 37.6042 11.5132C37.75 12.2759 37.8526 13.0462 37.9116 13.8205C38.0121 16.781 38.6872 19.7936 40.7048 22.0889C39.9535 22.0004 39.7139 20.6229 39.3824 20.3701C39.2731 20.5674 39.3325 27.6904 39.3232 28.4792C39.8235 29.2201 40.8509 29.9839 40.8792 30.5338C40.2887 29.9945 38.0649 27.5611 37.6546 26.9151C37.0761 26.3511 35.9829 24.5783 35.6679 23.84C35.6633 23.836 35.6578 23.8326 35.6541 23.8278C34.6866 22.5845 34.6472 15.5232 34.711 13.7478C34.742 12.9563 34.8143 12.167 34.9277 11.383C35.0467 10.5921 35.3444 8.91852 35.9752 8.45163Z" fill="#CBB600"/>
<path d="M37.6554 26.919C37.6008 24.3301 37.6476 21.5712 37.6473 18.9704L37.6543 15.1771C37.6549 14.8588 37.5741 14.006 37.6978 13.7686L37.9124 13.8245C38.0129 16.7849 38.6879 19.7975 40.7055 22.0929C39.9542 22.0043 39.7147 20.6268 39.3832 20.374C39.2739 20.5713 39.3332 27.6943 39.324 28.4831C39.8243 29.224 40.8517 29.9879 40.88 30.5377C40.2895 29.9985 38.0656 27.565 37.6554 26.919Z" fill="#CBB600"/>
<path d="M35.9752 8.44775C35.7044 9.02628 35.8089 11.5651 35.81 12.314L35.8126 20.06C35.8124 21.0301 35.8775 22.9693 35.7969 23.8499L35.7353 23.6621L35.6679 23.8362C35.6633 23.8321 35.6578 23.8288 35.6541 23.824C34.6866 22.5806 34.6472 15.5193 34.711 13.7439C34.742 12.9524 34.8143 12.1631 34.9277 11.3791C35.0467 10.5883 35.3444 8.91464 35.9752 8.44775Z" fill="#CBB600"/>
<path d="M40.7059 22.0888C41.1071 22.6619 43.2709 24.5665 43.9073 24.0652C43.2261 23.2746 42.7887 22.7644 42.3521 21.6931C41.7426 20.1974 40.9764 17.6482 41.4634 16.0546C41.514 15.8892 41.6518 15.8431 41.7737 15.7925C42.3432 15.8649 42.7411 16.5901 43.0103 17.0458C43.1343 17.2557 43.8769 18.4197 43.8795 18.5749C43.7944 19.1577 44.4013 19.2805 44.4225 19.6976C44.4617 20.4665 44.4452 21.2669 44.4456 22.0402L44.4453 26.9624L44.4423 31.5819C44.4424 32.0962 44.5043 33.3046 44.4181 33.7553C44.1467 33.5284 44.0819 33.4067 43.75 33.3835C43.6049 33.317 41.1051 30.7932 40.8803 30.5337C40.852 29.9838 39.8246 29.2199 39.3243 28.4791C39.3336 27.6903 39.2742 20.5673 39.3835 20.37C39.715 20.6228 39.9546 22.0002 40.7059 22.0888Z" fill="#CBB600"/>
<path d="M61.0341 16.4837C61.3195 16.119 61.5624 15.6541 62.0703 15.8859C62.8415 16.7866 61.8805 21.1003 61.2307 21.8698C61.1876 22.5016 60.0139 23.6961 59.8721 24.0839L59.9276 24.144C60.2783 24.0889 60.7117 23.9857 60.9885 23.7609C61.2868 24.1032 61.1814 25.5391 61.1796 26.0511L61.1666 30.2093C61.1654 30.6642 61.1216 31.7438 61.2566 32.1258C61.023 32.3453 59.7784 33.6446 59.6372 33.6904C58.9142 34.8944 57.2436 36.1776 56.6444 37.6401C56.5643 37.8355 56.0083 39.0415 55.9374 39.08C55.6421 38.8571 55.144 37.8782 54.9505 37.5301C53.6744 35.2323 52.7899 32.671 52.9187 30.0088C53.0105 28.1059 53.6738 25.9826 54.8586 24.4727C55.5546 23.6183 56.4503 22.7777 57.1659 21.9198C57.6677 21.3075 58.1652 20.6921 58.659 20.0735C58.847 19.838 59.051 19.5091 59.2433 19.3341C59.6822 18.5114 60.5163 17.499 61.0341 16.4837Z" fill="#CBB600"/>
<path d="M61.0355 16.4837C61.3209 16.119 61.5638 15.6541 62.0717 15.8859C62.8429 16.7866 61.8819 21.1003 61.2321 21.8698C61.189 22.5016 60.0153 23.6961 59.8735 24.0839L59.929 24.144C60.2797 24.0889 60.7131 23.9857 60.9899 23.7609C61.2882 24.1032 61.1828 25.5391 61.181 26.0511L61.168 30.2093C61.1668 30.6642 61.123 31.7438 61.258 32.1258C61.0244 32.3453 59.7798 33.6446 59.6387 33.6904C59.2195 33.718 59.209 34.0307 58.8299 34.3978C58.7639 34.2551 58.8065 21.6122 58.8065 20.3575C58.9908 20.0313 59.2774 19.6709 59.2447 19.3341C59.6837 18.5114 60.5177 17.499 61.0355 16.4837Z" fill="#CBB600"/>
<path d="M61.0352 16.4837C61.3206 16.119 61.5634 15.6541 62.0714 15.8859C62.8425 16.7866 61.8815 21.1003 61.2318 21.8698C61.2447 21.7225 61.2534 21.5749 61.2589 21.4272C61.3027 19.9236 61.2922 18.3291 61.2472 16.8229C61.2423 16.6606 61.1393 16.5939 61.0352 16.4837Z" fill="#CBB600"/>
<path d="M67.2013 8.52122C69.1283 7.36928 69.1351 16.7455 68.9847 17.7378C68.8552 18.5879 68.8651 19.6407 68.7283 20.5103C68.7147 22.4462 68.3787 23.4001 67.3665 25.0676C67.205 25.4191 66.6077 26.205 66.3685 26.5217C64.8324 28.5545 63.0238 30.3085 61.2564 32.127C61.1214 31.745 61.1652 30.6654 61.1664 30.2105L61.1794 26.0523C61.1812 25.5403 61.2866 24.1044 60.9883 23.7621C61.5961 23.6115 62.5559 22.6506 62.9467 22.1497C63.9392 20.8782 64.9624 18.9781 65.4087 17.4369C65.5857 16.825 65.6381 15.5778 65.6997 14.9298C65.905 12.7643 65.9863 10.3867 67.2013 8.52122Z" fill="#CBB600"/>
<path d="M67.2015 8.52122C69.1285 7.36928 69.1352 16.7455 68.9848 17.7378C68.8554 18.5879 68.8652 19.6407 68.7284 20.5103C68.7148 22.4462 68.3789 23.4001 67.3667 25.0676C67.1281 24.8157 67.2144 23.6885 67.2144 23.2901L67.2175 20.4434L67.2243 12.8657C67.2249 11.472 67.2607 9.89489 67.2015 8.52122Z" fill="#CBB600"/>
<path d="M7.25538 41.8795C6.50542 41.9589 5.21596 41.9239 4.45318 41.8646L4.40547 41.818L4.29297 41.8236C4.42495 41.8411 4.23293 41.823 4.4083 41.8051C6.0402 41.6384 8.41699 41.694 10.0112 41.6925L20.6787 41.6742C38.8809 41.5547 57.0839 41.5282 75.286 41.5949L90.1958 41.6836C93.4166 41.6858 97.5227 41.5722 100.68 41.8102C100.225 41.9007 97.7693 41.967 97.3255 41.8851C67.3025 42.1339 37.2782 42.132 7.25538 41.8795Z" fill="#CBB600"/>
<path d="M7.25538 41.8795C6.50542 41.9589 5.21596 41.9239 4.45318 41.8646L4.40547 41.818L4.29297 41.8236C4.42495 41.8411 4.23293 41.823 4.4083 41.8051C6.0402 41.6384 8.41699 41.694 10.0112 41.6925L20.6787 41.6742C38.8809 41.5547 57.0839 41.5282 75.286 41.5949L90.1958 41.6836C93.4166 41.6858 97.5227 41.5722 100.68 41.8102C100.225 41.9007 97.7693 41.967 97.3255 41.8851C97.0715 41.7187 96.1795 41.7652 95.83 41.762L92.4001 41.7499L80.1565 41.7352L27.359 41.7527L13.8416 41.7787C12.9998 41.7807 7.49776 41.7398 7.25538 41.8795Z" fill="#CBB600"/>
<path d="M16.3731 68.5854C36.2498 68.3869 56.128 68.377 76.005 68.5558L89.1894 68.5755C90.9647 68.5774 92.8646 68.5434 94.6245 68.5854C95.6244 68.5354 96.9454 68.5619 97.96 68.5878C98.1419 68.6187 98.3244 68.6452 98.5074 68.6674L98.4902 68.7062C98.1234 68.7204 97.47 68.7043 97.1735 68.8856C95.6829 68.9213 93.9631 68.9219 92.4775 68.8942C90.5924 68.8067 87.8542 68.893 85.8964 68.8948L70.9231 68.9811L32.1739 68.9139C28.0693 68.8776 23.7244 68.9971 19.652 68.8819C19.3558 68.7925 18.1391 68.8165 17.7498 68.7826C17.3287 68.7463 16.7638 68.6908 16.3477 68.6686L16.3731 68.5854Z" fill="#CBB600"/>
<path d="M94.6236 68.5858C95.6235 68.5359 96.9445 68.5624 97.9592 68.5883C98.141 68.6191 98.3235 68.6456 98.5065 68.6678L98.4893 68.7066C98.1225 68.7208 97.4691 68.7048 97.1726 68.886C95.682 68.9218 93.9622 68.9224 92.4766 68.8946C93.1288 68.5981 94.8301 68.8435 95.7862 68.6437C95.4164 68.6468 94.9756 68.6696 94.6236 68.5858Z" fill="#CBB600"/>
<path fill-rule="evenodd" clip-rule="evenodd" d="M83.3633 47.6205C85.6671 47.8884 86.3986 50.9007 84.9082 52.4867C84.4299 52.9995 83.7649 53.2979 83.0635 53.3158C82.3154 53.3385 81.9443 53.098 81.3428 52.7221C81.3354 53.127 81.3226 53.543 81.3232 53.9467C81.3251 54.8732 81.3192 55.327 82.2852 55.5902C82.0935 55.6784 79.7693 55.6777 79.4609 55.6137C79.6107 55.3295 80.01 55.4327 80.1475 55.0443C80.381 54.3827 80.3931 49.1778 80.1836 48.4877C80.1238 48.2892 80.0413 48.2091 79.8613 48.1166C79.7474 48.0588 79.6277 48.0355 79.5039 48.0121L79.4883 47.9418C79.9104 47.8192 80.6562 47.76 81.0957 47.768C81.2208 47.8567 81.2968 48.0508 81.3701 48.1957C81.6061 48.0441 81.834 47.8986 82.0762 47.7563C82.2734 47.6367 82.2804 47.6288 82.5039 47.6313C82.7714 47.6171 83.1001 47.5897 83.3633 47.6205ZM83.5381 47.9604C83.0132 47.9276 83.1426 47.6949 82.2588 47.9291C81.0122 48.595 81.3107 51.0845 81.4814 52.2533C81.7896 52.6626 81.9012 52.783 82.3701 53.0375C82.6246 53.0375 82.9107 53.0442 83.1621 53.0355C83.4549 52.8537 83.708 52.7118 83.8984 52.4135C84.7193 51.1251 84.6772 49.0359 83.5381 47.9604Z" fill="#CBB600"/>
<path d="M82.0781 47.7587C82.2754 47.6391 82.2822 47.6317 82.5059 47.6341C82.8376 47.8357 83.433 47.6878 83.5391 47.9652C83.0139 47.9325 83.1439 47.6995 82.26 47.9337L82.0781 47.7587Z" fill="#CBB600"/>
<path d="M58.7089 46.7587C58.7065 46.298 58.7373 45.5887 58.5289 45.1902C58.2891 44.9668 58.1837 45.0609 57.931 44.7776L57.9162 44.7268C58.4519 44.6695 59.2576 44.5408 59.7637 44.5356L59.7606 49.9525C59.7606 50.7212 59.7501 51.5157 59.7698 52.2832C59.7791 52.6358 60.4387 52.7603 60.6902 52.9539L60.6445 53.0168C60.2648 53.0673 59.1521 53.2504 58.8402 53.2165L58.7447 53.1388L58.7231 52.6488C58.3841 52.8398 58.1128 53.1925 57.7245 53.2196C57.2067 53.3953 56.4546 53.3398 55.9461 53.1388C54.4413 52.544 54.0573 50.6028 54.6688 49.2294C55.0214 48.4373 55.4622 48.089 56.2481 47.7653C56.4577 47.8159 56.5526 47.8159 56.7006 47.9589C57.4237 47.7851 57.9741 47.8227 58.4322 48.4798C58.5425 48.2351 58.5499 48.354 58.6411 48.2437C58.913 47.9139 58.7379 47.1323 58.7089 46.7587Z" fill="white"/>
<path d="M58.7107 46.7587C58.7082 46.298 58.7391 45.5887 58.5307 45.1902C58.2909 44.9668 58.1855 45.0609 57.9328 44.7776L57.918 44.7268C58.4537 44.6695 59.2593 44.5408 59.7654 44.5356L59.7623 49.9525C59.7623 50.7212 59.7519 51.5157 59.7716 52.2832C59.7808 52.6358 60.4404 52.7603 60.6919 52.9539L60.6463 53.0168C60.2666 53.0673 59.1539 53.2504 58.842 53.2165L58.7465 53.1388L58.7249 52.6488C58.5356 52.5489 58.5954 52.5754 58.4974 52.3091C58.9758 51.6316 58.7335 49.2553 58.4339 48.4798C58.5443 48.2351 58.5517 48.354 58.6429 48.2437C58.9147 47.9139 58.7397 47.1323 58.7107 46.7587Z" fill="#CBB600"/>
<path d="M57.7245 53.2203C57.2067 53.396 56.4546 53.3405 55.9461 53.1396C54.4413 52.5447 54.0573 50.6036 54.6688 49.2301C55.0214 48.438 55.4622 48.0897 56.2481 47.7661C56.4577 47.8167 56.5526 47.8167 56.7006 47.9597C55.3142 48.6729 55.313 51.008 55.9282 52.234C56.2574 52.8906 56.748 53.0712 57.4329 53.0761C57.5506 53.1186 57.6302 53.1365 57.7245 53.2203Z" fill="#CBB600"/>
<path d="M58.4963 52.3091C58.5943 52.5754 58.5346 52.5489 58.7238 52.6487C58.3848 52.8398 58.1135 53.1924 57.7252 53.2196C57.6309 53.1357 57.5513 53.1178 57.4336 53.0753C57.9785 53.0322 58.2276 52.7332 58.4963 52.3091Z" fill="#CBB600"/>
<path d="M35.3945 60.8076C36.3911 60.7996 37.459 60.7496 38.4453 60.8464C39.3892 60.9389 40.0007 61.5905 39.8036 62.5681C39.5788 63.6826 39.3103 63.3763 38.5476 63.8867C38.6342 64.1228 39.1693 64.4791 39.3175 64.7158C39.6372 65.2268 39.9559 65.7378 40.2842 66.2421L39.2788 66.2439C39.2092 66.239 39.1224 66.2328 39.0186 66.2254C38.4573 65.8396 38.2125 64.8964 37.7011 64.415C37.2165 63.9582 37.0553 64.0081 36.469 63.997L36.4649 66.2439L35.3945 66.2446V60.8076Z" fill="#CBB600"/>
<path d="M36.4683 61.7345C36.9942 61.6987 37.6285 61.6851 38.1447 61.793C38.8222 61.9354 38.8614 62.4791 38.4387 62.9661C37.9435 63.1615 37.0105 63.1449 36.4776 63.1399C36.4549 62.7189 36.4696 62.1653 36.4683 61.7345Z" fill="white"/>
<path d="M70.7369 44.9295C70.5113 44.9501 70.6013 44.983 70.4453 44.8687C70.4798 44.7987 70.4934 44.7264 70.597 44.7229C71.1801 44.7032 73.4412 44.6261 73.877 44.7759L73.9411 44.8593C73.7599 44.9947 73.62 44.9682 73.3888 44.947C73.0849 45.1511 72.8772 45.2562 72.8346 45.6449C72.6238 47.5665 72.6799 49.986 72.8661 51.8889C73.9035 53.0546 74.4306 52.9362 75.9156 52.8919C76.1369 52.731 76.2312 52.7464 76.4685 52.6601C77.326 52.3494 77.5608 51.4106 77.5306 50.5876C77.4708 48.9485 77.6213 47.1787 77.4789 45.551C76.8895 44.8328 76.7952 45.1517 76.4445 44.7856C76.5789 44.6643 78.5589 44.6802 78.8147 44.7726L78.8547 44.8692C78.7839 44.951 78.8165 44.957 78.7093 44.9613C77.7692 44.9986 77.7939 46.1268 77.7926 46.8508L77.8062 49.4349C77.8142 50.9735 77.9745 52.554 76.1104 53.1662C75.0563 53.4035 72.098 53.393 71.7022 52.0344C71.1548 50.1543 71.8243 47.5634 71.3928 45.6201C71.3028 45.2149 71.0648 45.0951 70.7369 44.9295Z" fill="#CBB600"/>
<path d="M70.7369 44.9295C70.5113 44.9501 70.6013 44.983 70.4453 44.8687C70.4798 44.7987 70.4934 44.7264 70.597 44.7229C71.1801 44.7032 73.4412 44.6261 73.877 44.7759L73.9411 44.8593C73.7599 44.9947 73.62 44.9682 73.3888 44.947C73.2711 44.7353 70.9588 44.8159 70.7369 44.9295Z" fill="#CBB600"/>
<path d="M66.3679 62.3036C66.6416 62.2943 67.0213 62.2598 67.271 62.3301C67.3092 62.4996 67.3363 62.592 67.4929 62.6685C67.6057 62.5927 68.0489 62.2949 68.1414 62.2844C70.5029 62.0206 70.5529 64.3298 69.8014 65.8474C69.5777 66.009 69.3681 66.1489 69.1055 66.2389L68.7843 66.3517C68.2745 66.4275 67.8307 66.1057 67.4171 65.8456L67.4127 67.7479L66.3599 67.743C66.3519 65.93 66.3549 64.1165 66.3679 62.3036Z" fill="#CBB600"/>
<path d="M68.1908 63.0512C69.2911 62.8318 69.5914 64.8537 68.5853 65.5028C68.0305 65.5188 67.7051 65.4085 67.4893 64.8395C67.337 64.4314 67.3549 63.979 67.5386 63.5838C67.7118 63.2189 67.8327 63.1721 68.1908 63.0512Z" fill="white"/>
<path fill-rule="evenodd" clip-rule="evenodd" d="M53.6055 60.8133C54.4944 60.8015 56.8489 60.6094 57.3242 61.1883C58.5612 62.6948 57.6671 64.0996 55.8906 64.1736L54.7607 64.1775L54.7578 66.2371L53.6055 66.2351V60.8133ZM54.7617 63.2801C55.2204 63.2807 56.028 63.2608 56.46 63.0877C57.4974 61.6945 55.5657 61.7105 54.7588 61.7117L54.7617 63.2801Z" fill="#CBB600"/>
<path d="M64.8366 47.819C66.3974 48.4126 65.0937 52.1316 65.8821 52.8966C66.1342 52.9539 66.2162 52.8744 66.456 52.7326L66.5145 52.785C66.3333 53.4865 65.1571 53.341 64.6979 53.01C64.5906 52.9508 64.5426 52.8744 64.3872 52.7961C64.2177 52.8627 64.1764 52.9958 64.0155 53.0162C63.1211 53.579 62.1378 53.3299 61.424 52.6186C61.2138 51.2587 61.514 50.8075 62.8831 50.3969C63.0533 50.3464 63.0304 50.3871 63.1926 50.2823C63.4737 50.2138 64.1067 49.9808 64.267 49.9636C64.5561 49.5949 64.5389 48.5112 64.3459 48.1155L64.2467 47.8967L64.2985 47.8147C64.484 47.8011 64.6523 47.8116 64.8366 47.819Z" fill="white"/>
<path d="M64.8365 47.819C66.3973 48.4126 65.0935 52.1316 65.8819 52.8966C66.1341 52.9539 66.216 52.8744 66.4558 52.7326L66.5144 52.785C66.3332 53.4865 65.157 53.341 64.6978 53.01C64.5905 52.9508 64.5424 52.8744 64.3871 52.7961C64.2176 52.8627 64.1763 52.9958 64.0154 53.0162L63.9297 52.8152C63.9574 52.7795 64.2206 52.5766 64.2737 52.5353C64.3846 52.2937 64.4191 52.2339 64.453 51.9725C64.6626 51.7358 64.6811 50.302 64.5338 50.0745L64.2959 50.064L64.2669 49.9636C64.556 49.5949 64.5387 48.5112 64.3458 48.1155L64.2465 47.8967L64.2983 47.8147C64.4839 47.8011 64.6521 47.8116 64.8365 47.819Z" fill="#CBB600"/>
<path d="M63.9297 52.816C63.9574 52.7802 64.2206 52.5774 64.2737 52.5361C64.5196 52.7069 64.6127 52.7309 64.6978 53.0108C64.5905 52.9516 64.5424 52.8752 64.3871 52.7969C64.2176 52.8635 64.1763 52.9966 64.0154 53.017L63.9297 52.816Z" fill="#CBB600"/>
<path d="M61.424 52.6197C61.2138 51.2599 61.514 50.8086 62.8831 50.3981C63.0533 50.3475 63.0304 50.3882 63.1926 50.2834C63.4083 50.2822 63.6099 50.2514 63.7856 50.3574C63.2 50.7075 62.6717 51.0262 62.5188 51.737C62.2944 52.7787 63.0101 53.2873 63.9298 52.8163L64.0155 53.0173C63.1211 53.5801 62.1378 53.3311 61.424 52.6197Z" fill="#CBB600"/>
<path d="M64.2659 49.9609L64.2948 50.0614L64.5328 50.0719C64.6801 50.2994 64.6616 51.7332 64.452 51.9699C64.4483 51.5119 64.4982 50.5805 64.4193 50.1964C64.2159 50.1255 64.068 50.3727 63.7844 50.3536C63.6087 50.2476 63.4072 50.2784 63.1914 50.2796C63.4725 50.2112 64.1056 49.9782 64.2659 49.9609Z" fill="#CBB600"/>
<path d="M94.2939 47.9115L94.2483 47.8665L94.2853 47.7957C94.5584 47.7901 94.7754 47.8043 95.0448 47.8215C96.6888 48.3498 95.2543 52.2765 96.1019 52.8887C96.433 52.9435 96.6641 52.7222 96.7628 52.8208C96.338 53.4656 95.136 53.486 94.7341 52.7333C94.5319 52.7617 94.4345 52.8566 94.2631 52.9799C93.6639 53.4095 93.0333 53.3923 92.3497 53.1642C91.5187 52.888 91.2999 51.8697 91.8177 51.2015C92.248 50.6467 92.6672 50.4574 93.3243 50.3378C93.5234 50.1338 94.2243 50.2694 94.6909 49.7115C94.7649 49.0144 94.9085 48.3887 94.2939 47.9115Z" fill="white"/>
<path d="M62.828 62.3461C63.5344 62.086 64.3253 62.229 64.8967 62.7185C65.4675 63.2085 65.7289 63.9686 65.5797 64.7058C65.4305 65.4437 64.8936 66.0423 64.1773 66.2716C63.4586 66.5015 62.672 66.3234 62.1221 65.8062C61.5982 65.313 61.367 64.5844 61.5106 63.8792C61.6543 63.1746 62.153 62.5945 62.828 62.3461Z" fill="#CBB600"/>
<path d="M63.5476 63.0747C63.9329 63.0174 64.2633 63.4322 64.4476 63.7059C64.4766 64.6583 64.6319 65.0917 63.6666 65.5367C62.6174 65.443 62.279 64.3723 62.7758 63.5179C62.9682 63.1869 63.1993 63.1462 63.5476 63.0747Z" fill="white"/>
<path d="M3.79358 52.9613C4.13508 52.7689 4.57855 52.4909 4.69407 52.0748C5.70965 48.4206 -0.000960335 50.3346 0.184094 46.9436C0.248388 45.7663 0.965058 45.055 2.0151 44.6924C2.15281 44.7566 2.22524 44.7721 2.30334 44.9016C1.72784 45.1704 1.45895 45.6067 1.24628 46.2053C1.14327 46.4873 1.16571 46.8 1.30798 47.0644C1.85192 48.0865 3.93869 48.3158 4.89583 48.8287C5.32592 49.0592 5.64165 49.4278 5.92448 49.8144C6.17771 51.692 5.72167 52.486 3.97715 53.2152C3.82656 53.1148 3.87501 53.1536 3.79358 52.9613Z" fill="#CBB600"/>
<path d="M31.8242 44.8475C31.868 44.8155 31.9256 44.7736 31.9969 44.7215C33.0241 44.6738 34.1032 44.6731 35.1304 44.7222C35.1778 44.7245 35.2484 44.7702 35.2759 44.7864L35.2602 44.8912C35.0855 44.9967 35.1391 44.9635 34.8984 44.9534C34.7423 45.0058 34.4879 45.1295 34.416 45.2854C34.2472 45.6515 34.5272 46.3011 34.6241 46.6129C34.8676 47.3954 36.433 50.8727 36.4874 51.3905L36.4931 51.5212C36.729 51.5982 36.6927 51.6204 36.6983 51.8738C36.4814 52.2597 36.4019 52.9883 36.0945 53.2219C35.9355 53.1498 35.9263 53.1363 35.8539 52.96C34.817 50.4375 33.885 47.8805 32.7359 45.4066C32.3616 45.1465 32.1633 45.0653 31.8242 44.8475Z" fill="#CBB600"/>
<path d="M31.8242 44.8475C31.868 44.8155 31.9256 44.7736 31.9969 44.7215C33.0241 44.6738 34.1032 44.6731 35.1304 44.7222C35.1778 44.7245 35.2484 44.7702 35.2759 44.7864L35.2602 44.8912C35.0855 44.9967 35.1391 44.9635 34.8984 44.9534C34.5301 44.7517 32.3394 44.806 31.8242 44.8475Z" fill="#CBB600"/>
<path d="M7.19774 52.8969C7.39654 52.723 7.52482 52.5572 7.53185 52.2798C7.58228 50.253 7.54794 48.22 7.55262 46.192C7.55349 45.8091 7.59103 45.197 7.2118 44.985L6.85161 44.7789L6.88601 44.7306C7.48697 44.6479 8.00496 44.5582 8.61283 44.5356L8.6132 48.543C8.84967 48.3759 9.14667 48.0523 9.35823 47.8372C10.3987 47.6461 10.4119 47.5955 11.437 47.8193C11.2132 47.8211 10.6465 47.7928 10.4878 47.8729L10.5062 48.0393C10.016 48.0338 9.63334 47.9574 9.27279 48.3346C8.42057 49.2451 8.61665 50.6376 8.59471 51.7848C8.58972 52.045 8.65278 52.5856 8.84998 52.7841C8.88308 52.813 8.91612 52.842 8.94916 52.871L9.38511 53.0004L9.41882 53.1465L9.49557 53.1188C9.23229 53.2784 7.17654 53.2162 6.79724 53.1367C6.74774 53.0781 6.75551 53.1083 6.75391 53.0534C6.7671 53.0516 7.11606 52.9172 7.19774 52.8969Z" fill="#CBB600"/>
<path d="M8.94916 52.8745L9.38511 53.004L9.41882 53.1501L9.49557 53.1223C9.23229 53.282 7.17654 53.2197 6.79724 53.1402C6.74774 53.0816 6.75551 53.1118 6.75391 53.057C6.7671 53.0551 7.11606 52.9207 7.19774 52.9004L7.20896 52.9614C7.41103 53.094 8.72416 53.1118 8.92641 52.9929L8.94916 52.8745Z" fill="#CBB600"/>
<path d="M24.2852 60.8086H25.3105L25.3117 62.7923C25.8381 62.3756 25.9066 62.3041 26.6177 62.2591C28.3476 62.1493 27.9515 65.0571 27.9406 66.2332C27.5822 66.2474 27.1752 66.2412 26.8124 66.2449V64.604C26.8138 64.355 26.8469 63.3243 26.7127 63.2337C24.9402 62.0365 25.306 65.753 25.3105 66.2443H24.2852V60.8086Z" fill="#CBB600"/>
<path d="M45.9684 62.312C48.7139 62.0383 48.2965 63.0197 48.3625 65.1353C48.3724 65.4639 48.4642 65.9034 48.5111 66.243C48.209 66.2486 47.8361 66.272 47.5476 66.2134C47.4933 66.1 47.4662 66.0507 47.399 65.9447C46.9194 65.9786 46.6439 66.3706 46.1814 66.3817C45.9068 66.3885 45.4344 66.2227 45.2264 66.0322C44.8285 65.7191 44.7616 65.0471 44.9737 64.5934C45.3887 63.7045 46.9552 64.255 47.322 63.4962C47.2991 63.1245 47.0544 63.0684 46.7178 63.0345C46.287 62.9907 46.1201 63.196 45.8333 63.4722C45.5269 63.4715 45.3066 63.5098 45.0827 63.3261C44.9415 62.8446 45.5744 62.4482 45.9684 62.312Z" fill="#CBB600"/>
<path d="M47.2312 64.3779L47.2632 64.3927C47.5702 65.0098 46.8995 65.9677 46.0571 65.4327C45.3136 64.7712 46.8367 64.4833 47.2312 64.3779Z" fill="white"/>
<path d="M29.9098 62.3118C31.7237 61.9012 32.3372 63.062 32.3297 64.6253C31.8775 64.6203 30.0246 64.5143 29.7721 64.7831C30.0302 65.3151 29.961 65.606 30.6833 65.5277C30.9968 65.4938 31.0911 65.2855 31.2809 65.0679L31.5129 65.0543C31.7324 65.0574 31.9297 65.0278 32.0983 65.1486C32.1521 65.2707 32.212 65.4088 32.1354 65.529C31.3577 66.7483 29.2686 66.6379 28.8175 65.2078C28.4388 64.0082 28.6976 62.7223 29.9098 62.3118Z" fill="#CBB600"/>
<path d="M30.3188 63.0351C30.8651 62.8632 31.4988 63.5154 31.1917 63.8957L30.9271 63.913C30.5253 63.9019 30.1088 64.0319 29.8476 63.8075C29.7383 63.376 29.9693 63.201 30.3188 63.0351Z" fill="white"/>
<path d="M41.8006 62.31C43.6512 61.9771 44.2524 62.9739 44.2351 64.6229C43.6296 64.6204 42.2681 64.5822 41.727 64.6568L41.6944 64.7196C41.7898 65.4933 42.3378 65.8625 43.0468 65.2381C43.3002 65.0155 43.1827 65.0667 43.5104 65.05C43.7373 65.0593 44.0034 65.0316 44.1058 65.2485L43.9531 65.6227C43.6346 66.4007 42.2356 66.5036 41.5559 66.1535C40.1261 65.4168 40.2342 62.8531 41.8006 62.31Z" fill="#CBB600"/>
<path d="M42.1922 63.0313C42.7515 62.9258 43.4075 63.4282 43.1441 63.8906L42.9457 63.9146C42.4891 63.9288 42.109 63.9947 41.7205 63.7587C41.5696 63.4227 41.9116 63.1847 42.1922 63.0313Z" fill="white"/>
<path d="M71.9957 62.3157C72.548 62.2417 72.9709 62.2744 73.5189 62.3484C74.3893 63.1164 74.4454 63.4882 74.4436 64.6255C74.0916 64.6236 72.0666 64.5318 71.9205 64.7358C71.9353 64.8998 71.9439 65.1525 72.0469 65.2536C72.651 65.8473 73.0621 65.3671 73.583 65.049C73.583 65.049 73.9566 65.0693 74.0133 65.0724C74.2531 65.1223 74.1779 65.0761 74.3542 65.2277C74.361 65.4466 74.176 65.6728 74.049 65.8738C73.0708 66.5315 72.2509 66.5278 71.2831 65.859C70.5575 64.6643 70.5162 62.9309 71.9957 62.3157Z" fill="#CBB600"/>
<path d="M72.4402 63.0329C72.9937 62.9189 73.6243 63.4429 73.3543 63.8935L73.1546 63.9163C72.7065 63.9181 72.2688 64.0038 71.9199 63.7314C71.8046 63.4127 72.1794 63.1537 72.4402 63.0329Z" fill="white"/>
<path d="M80.418 62.3015C80.5388 62.2997 81.3352 62.2787 81.3993 62.3435C81.9073 62.8569 81.9917 64.3709 82.4115 64.856C82.7561 64.7981 83.0569 62.7053 83.4404 62.415C83.6413 62.2633 84.2559 62.2195 84.3952 62.373C84.2245 63.3445 83.4798 64.5626 83.322 65.4669L83.293 65.4928C83.1167 66.0593 82.8048 66.9945 82.4202 67.4574C82.1711 67.757 81.0326 68.0251 80.7619 67.736C80.7213 67.5412 80.6177 67.1973 80.6676 67.0345C80.8865 66.9852 81.1078 66.9938 81.3235 66.9482C81.485 66.9137 81.6367 66.8299 81.7273 66.6881C82.1236 66.068 80.5684 63.1615 80.418 62.3015Z" fill="#CBB600"/>
<path d="M19.1641 60.8339C20.245 60.7445 22.3984 60.8117 23.5559 60.8136V61.724L21.9506 61.7259L21.9497 64.6706L21.9497 66.2493L20.8553 66.2499L20.8511 61.7253L19.1652 61.7173L19.1641 60.8339Z" fill="#CBB600"/>
<path d="M14.4525 48.4541C14.1545 48.0848 14.0611 48.1964 13.8031 47.9566C14.0199 47.8099 15.2078 47.7828 15.5332 47.7661C15.4411 48.2007 15.3696 48.4781 15.7385 48.8227L15.7621 49.0927C15.5151 49.764 15.6139 51.7551 15.6217 52.5632C15.8667 52.803 16.2042 52.9658 16.5078 53.1328L16.4295 53.1846C16.0126 53.2006 13.9354 53.2302 13.6055 53.1482L13.6278 53.0656C14.0592 53.0095 14.1312 52.885 14.4532 52.5873C14.5143 51.371 14.4916 49.6777 14.4525 48.4541Z" fill="#CBB600"/>
<path d="M98.0424 48.5499C97.6651 47.9643 97.5991 48.2127 97.3754 47.939C97.6429 47.783 98.697 47.7849 99.0558 47.7769C99.025 47.9803 98.9658 48.1738 99.0533 48.3514C99.1717 48.466 99.1877 48.4907 99.3332 48.577L99.3911 48.7601C99.0539 49.3432 99.1674 51.7412 99.2191 52.5351C99.2345 52.77 99.703 52.9765 99.9502 53.1435C99.7178 53.2231 97.6435 53.2206 97.3458 53.1701C97.3156 53.0104 97.6306 52.9161 97.7508 52.8051C97.8667 52.6985 97.9622 52.5357 98.0417 52.4075C98.0627 51.1383 98.0442 49.8222 98.0424 48.5499Z" fill="#CBB600"/>
<path d="M49.3369 52.6184C49.634 52.918 49.875 52.9082 50.0748 53.1412C49.9453 53.225 47.6627 53.2232 47.3477 53.1554L47.3489 53.0814C48.1614 52.9297 48.3395 52.182 48.1909 51.4934C47.9912 50.5706 48.7285 48.2319 47.5116 48.0266L47.4629 47.9502C47.6657 47.8189 48.3192 47.8109 48.5805 47.8047C48.8154 47.8201 49.0071 47.7893 49.168 47.9089C49.197 48.1647 49.1939 48.2972 49.3104 48.5278L49.4737 48.5567C49.4694 48.7503 49.4577 48.7941 49.4133 48.9852C49.2568 49.4216 49.3307 52.031 49.3369 52.6184Z" fill="#CBB600"/>
<path d="M77.6055 62.2867C77.8336 62.4008 77.8637 62.3841 78.13 62.3613C78.2996 62.2442 78.3606 62.2017 78.368 61.9693C78.3914 61.2123 78.8753 61.3214 79.4301 60.9028L79.4326 62.2972C79.8086 62.2886 80.2309 62.2497 80.2549 62.7712C80.1692 62.9722 80.1655 62.9778 79.9997 63.114C79.7809 63.1775 79.6563 63.1621 79.4326 63.1584C79.427 63.6589 79.3278 65.1088 79.5725 65.441C79.7383 65.5335 79.8487 65.4885 80.0398 65.4558C80.2358 65.6254 80.2642 66.0661 80.1113 66.2412L80.054 66.2455C79.657 66.2788 79.3235 66.5217 78.8488 66.2517C77.9223 65.7246 78.7372 63.908 78.323 63.1836L77.987 63.1374C77.865 62.9241 77.9716 62.8002 77.8878 62.5943C77.7972 62.5093 77.6905 62.3823 77.6055 62.2867Z" fill="#CBB600"/>
<path d="M25.6821 47.77C25.7823 47.9038 25.7747 47.8945 25.7771 48.0628C25.3608 48.4869 25.1038 48.8889 25.0293 49.501L25.0835 49.6415C24.9544 49.9436 24.9494 50.5224 24.9762 50.8639C25.0784 52.1689 26.4312 53.3124 27.7249 52.7262C27.8674 52.6621 27.9269 52.6639 28.0338 52.5369C28.2947 52.4186 28.2382 52.3921 28.4407 52.4586C27.9912 53.7778 24.6761 53.7359 23.9574 51.5463C23.6986 50.7339 23.7708 49.8523 24.1583 49.0929C24.4872 48.4481 24.9915 47.9932 25.6821 47.77Z" fill="#CBB600"/>
<path d="M41.7211 52.5145C41.9845 52.8547 42.4268 52.9731 42.5293 53.1438C42.2989 53.2289 39.8544 53.232 39.7539 53.1278C39.9621 53.0119 40.2725 52.8757 40.4377 52.7055C40.7368 52.3979 40.631 49.5753 40.5998 49.002C40.5383 47.8678 40.1672 48.2752 39.8239 47.9688C40.119 47.7907 41.2176 47.7895 41.6126 47.7734C41.5443 48.1297 41.4659 48.3985 41.6161 48.7289C41.7359 48.8263 41.7766 48.8232 41.9259 48.8621C41.6312 50.1843 41.7065 51.1725 41.7211 52.5145Z" fill="#CBB600"/>
<path d="M100.621 47.7657C101.316 47.537 102.465 47.7694 102.651 48.6022C102.949 49.9411 102.462 51.4316 102.923 52.7422L103.647 53.1823C102.694 53.1946 101.742 53.199 100.789 53.1946C101.118 53.0097 101.545 52.8205 101.613 52.4395C101.832 51.198 101.673 49.7414 101.514 48.5325C101.282 48.342 100.984 48.0597 100.687 48.0203L100.621 47.7657Z" fill="#CBB600"/>
<path d="M52.0189 47.8081C53.2499 48.2347 52.8603 49.5686 52.9226 50.5944C52.9953 51.7977 52.5151 52.4375 53.7424 53.1286C53.6031 53.2377 51.3476 53.2093 51.0572 53.1563L51.0745 53.0823C51.3439 52.9664 51.6213 52.8795 51.7119 52.5806C51.9646 51.7416 51.8611 49.4398 51.7094 48.644C51.4604 48.3352 51.2576 48.1015 50.8477 48.0078L50.8495 47.8648C51.0745 47.7976 51.7242 47.8211 52.0189 47.8081Z" fill="#CBB600"/>
<path d="M45.2912 47.8027L45.989 47.77C45.9855 48.6256 45.7905 52.3058 46.2403 52.7712C46.4069 52.9432 46.7108 53.0738 46.9278 53.178C46.6023 53.186 44.2059 53.2415 44.0608 53.1404C44.3768 52.9271 44.8666 52.7638 44.8847 52.3643C44.9296 51.3725 45.2614 48.8414 44.5495 48.1356C44.415 48.0388 44.1646 48.0431 43.9883 48.0277C44.285 47.778 44.879 47.815 45.2912 47.8027Z" fill="#CBB600"/>
<path d="M43.9883 48.0297C44.285 47.78 44.879 47.817 45.2912 47.8047C45.0518 47.9508 44.9525 47.9446 44.6809 47.9687C44.5982 48.055 44.6034 48.0352 44.5495 48.1376C44.415 48.0408 44.1646 48.0451 43.9883 48.0297Z" fill="#CBB600"/>
<path d="M11.436 47.8223C11.7989 47.9566 12.0086 48.2439 12.243 48.541C12.34 49.7535 12.1353 51.7792 12.4337 52.787C12.706 52.9226 12.9434 53.0404 13.2054 53.1963C12.2678 53.1963 11.2008 53.2204 10.2734 53.1797C10.4692 53.0829 11.0366 52.8407 11.0863 52.5694C11.2737 51.5498 11.3274 49.4478 11.0101 48.4578C10.9654 48.3185 10.6095 48.1009 10.5052 48.0423L10.4868 47.8759C10.6455 47.7957 11.2123 47.8241 11.436 47.8223Z" fill="#CBB600"/>
<path d="M25.6841 47.7717C26.1716 47.495 27.2476 47.5597 27.7451 47.8149C28.2757 47.9444 28.8352 49.0299 28.7992 49.5465L28.7434 49.6365C28.3815 49.6883 28.0556 49.6716 27.6911 49.6654C26.9148 49.6673 25.8356 49.7024 25.0854 49.6433L25.0312 49.5027C25.1058 48.8906 25.3627 48.4887 25.7791 48.0646C25.7766 47.8963 25.7842 47.9055 25.6841 47.7717Z" fill="white"/>
<path d="M27.7451 47.8157C28.2757 47.9451 28.8352 49.0307 28.7992 49.5472L28.7434 49.6373C28.3815 49.689 28.0556 49.6724 27.6911 49.6662C26.9148 49.6681 25.8356 49.7032 25.0854 49.644L25.0312 49.5035C25.8144 49.5577 26.7875 49.5306 27.5859 49.5281C27.8976 48.9573 27.658 48.4537 27.217 48.032L27.2366 47.8933C27.3766 47.7639 27.5039 47.8138 27.7451 47.8157Z" fill="#CBB600"/>
<path d="M25.6836 47.7717C26.1711 47.495 27.2472 47.5597 27.7446 47.8149C27.5034 47.813 27.3761 47.7631 27.2361 47.8926L27.2165 48.0313C26.6371 47.7865 26.3461 47.7594 25.7786 48.0646C25.7762 47.8963 25.7838 47.9055 25.6836 47.7717Z" fill="#CBB600"/>
<path d="M85.5234 47.7733C86.098 47.7715 88.0071 47.7345 88.4651 47.8103C88.3923 47.9737 88.1347 47.9256 87.8924 48.1376C87.5262 48.8003 88.7024 50.6052 88.7819 51.5126C88.7875 51.893 88.8719 51.9559 89.174 52.1778C89.0642 52.4644 88.7905 53.0704 88.5951 53.2972C88.102 53.2189 86.9295 48.7627 86.3932 48.2486C86.233 48.0945 85.7133 47.8646 85.5234 47.7733Z" fill="#CBB600"/>
<path d="M19.9436 47.7545C20.4946 47.4944 21.5095 47.5641 22.0547 47.8365C22.75 48.2051 22.944 48.9406 23.0012 49.6667L21.8819 49.668C21.1287 49.668 20.0641 49.7006 19.3371 49.6421L19.2734 49.5305C19.2843 48.9646 19.6316 48.4061 20.0172 48.0085L20.0811 47.8488L19.9436 47.7545Z" fill="white"/>
<path fill-rule="evenodd" clip-rule="evenodd" d="M20.0805 47.8506L20.016 48.0098C19.6306 48.4074 19.2838 48.9664 19.2728 49.5322L19.3363 49.6436C18.8696 50.1244 19.2379 51.2955 19.516 51.8213C20.042 52.8162 21.5062 53.2967 22.3725 52.4287L22.6361 52.5596C22.1235 53.5072 20.344 53.4716 19.4857 53.0625C18.9017 52.7876 18.454 52.2863 18.2465 51.6748C17.7086 50.1227 18.3107 48.3206 19.9428 47.7559L20.0805 47.8506ZM19.9447 47.7549C20.4958 47.4949 21.51 47.5646 22.0551 47.8369C21.7913 47.8209 21.674 47.769 21.4642 47.8731L21.4633 47.874C21.6722 47.7709 21.7898 47.8229 22.0531 47.8389C22.7484 48.2075 22.9423 48.9428 22.9994 49.669L21.8803 49.6699V49.668C21.1271 49.668 20.0631 49.7011 19.3363 49.6426L19.2728 49.5313C20.1284 49.5319 21.0346 49.5467 21.8851 49.5078C22.105 48.9039 21.8512 48.4416 21.431 48.0235V48.0205C20.93 47.7375 20.5219 47.8272 20.018 48.0088L20.0814 47.8486L19.9447 47.7549Z" fill="#CBB600"/>
<path d="M49.3555 60.8188L50.4102 60.812V66.2453L49.3555 66.2422V60.8188Z" fill="#CBB600"/>
<path d="M58.7441 62.3026C58.8292 62.2989 58.9148 62.2959 59.0005 62.294C59.4049 62.2848 59.4376 62.2829 59.7483 62.5862L59.8044 62.6423C60.1699 62.3692 60.8147 62.008 61.2166 62.4253C61.3917 63.3524 60.5687 63.1354 60.0941 63.3352C59.8759 63.5454 59.813 63.7698 59.7742 64.0663C59.7526 64.7715 59.7643 65.5352 59.7624 66.2454L58.7311 66.2447C58.7287 64.9527 58.7071 63.5885 58.7441 62.3026Z" fill="#CBB600"/>
<path d="M75.3222 62.2997C75.5687 62.296 75.811 62.2917 76.0563 62.3022C76.4768 62.32 76.1957 62.4883 76.4009 62.7084C76.4626 62.6461 76.5248 62.5845 76.5877 62.5241C76.9409 62.1844 77.034 62.2756 77.5999 62.2855C77.685 62.3811 77.7916 62.508 77.8822 62.5931C77.7374 62.7491 77.7121 62.9771 77.5413 63.2311C77.3915 63.2496 76.9508 63.1658 76.9224 63.1732C76.147 63.3908 76.3417 65.6463 76.3461 66.2455L75.3203 66.2473L75.3222 62.2997Z" fill="#CBB600"/>
<path d="M6.71216 68.585C9.22913 68.5357 11.7656 68.5881 14.2845 68.5708C14.9417 68.5665 15.7261 68.5449 16.3742 68.5844L16.3488 68.6676C16.7649 68.6898 17.3298 68.7453 17.7509 68.7816C18.1402 68.8155 19.3569 68.7915 19.6531 68.8809C18.2389 68.9536 16.245 68.8957 14.7858 68.8963C12.1088 68.9086 9.4317 68.9037 6.7547 68.8833L6.70378 68.7718L6.28516 68.667C6.42872 68.6306 6.5665 68.6102 6.71216 68.585Z" fill="#CBB600"/>
<path d="M15.2832 62.7838C15.6368 62.7111 16.003 62.8245 16.2541 63.0834C16.5186 63.3571 16.6154 63.7523 16.5072 64.1172C16.3989 64.4815 16.1025 64.7601 15.7316 64.8452C15.3616 64.9297 14.9746 64.8095 14.7183 64.529C14.462 64.2491 14.3758 63.8534 14.4927 63.4921C14.6096 63.1309 14.9115 62.8609 15.2832 62.7838Z" fill="#CBB600"/>
<path d="M88 62.7904C88.561 62.6776 89.109 63.0333 89.2335 63.5918C89.3586 64.1503 89.0141 64.7057 88.4586 64.8419C88.0888 64.9331 87.6986 64.8166 87.4384 64.538C87.1789 64.2594 87.0902 63.8624 87.2067 63.4993C87.3232 63.1368 87.6265 62.8656 88 62.7904Z" fill="#CBB600"/>
<path d="M6.75115 68.8847C6.27452 68.9119 0.150657 68.9229 0 68.8237L0.0159659 68.6887C0.123596 68.6135 0.241088 68.5654 0.375965 68.5697C2.48282 68.6326 4.60232 68.529 6.70862 68.5864C6.56295 68.6116 6.42518 68.632 6.28161 68.6684L6.70023 68.7732L6.75115 68.8847Z" fill="#CBB600"/>
<path d="M97.9584 68.5869C98.7962 68.5585 103.347 68.4439 103.789 68.7324L103.768 68.8267L103.845 68.7842L103.771 68.7293L103.705 68.8421C103.119 68.9136 102.394 68.8963 101.797 68.8828C100.273 68.8477 98.6889 68.9494 97.1719 68.8846C97.4684 68.7034 98.1218 68.7194 98.4886 68.7053L98.5058 68.6664C98.3228 68.6442 98.1403 68.6177 97.9584 68.5869Z" fill="#CBB600"/>
<path d="M0.0899736 53.3047C0.0887408 52.5594 0.0485499 51.2322 0.12357 50.5332L0.176275 50.5542C0.255611 50.7619 0.336488 50.9684 0.418905 51.1749C0.756404 52.0164 1.10038 52.5483 1.95846 52.9096L2.00746 52.9293L1.76243 53.0908C0.790862 52.8787 0.996197 52.3893 0.0899736 53.3047Z" fill="#CBB600"/>
<path d="M42.4186 47.8769C42.9777 47.7012 43.5218 47.5674 43.9915 48.0285C44.0721 48.2825 44.047 48.3577 44.0069 48.6246C43.8744 48.8089 43.9602 48.7461 43.7347 48.8108C43.0529 48.698 42.7606 48.0014 42.3732 48.2622C42.1416 48.4187 41.9755 48.8299 41.9309 48.8613C41.7817 48.8225 41.741 48.8256 41.6211 48.7282C41.4709 48.3978 41.5493 48.129 41.6176 47.7727C41.7712 47.9626 41.7227 48.322 41.7365 48.6043C41.9824 48.3158 42.141 48.1315 42.4186 47.8769Z" fill="#CBB600"/>
<path d="M4.42655 44.8749C4.88685 45.2786 5.26953 44.716 5.54348 44.7614C5.69198 45.0633 5.66966 46.7844 5.54915 47.1081L5.50513 47.1204C5.1039 46.1798 4.90195 45.2517 3.74219 44.9042C4.01755 44.7784 4.08819 44.8411 4.42655 44.8749Z" fill="#CBB600"/>
<path d="M15.6234 48.5776C15.8661 48.3113 16.006 48.1442 16.3083 47.9365C17.0074 47.4563 18.4425 47.6498 17.7288 48.7496C17.1796 49.0313 16.9832 48.1529 16.2987 48.2731C15.9813 48.4592 15.8815 48.7385 15.7638 49.0905L15.7402 48.8205C15.3714 48.4759 15.4429 48.1985 15.535 47.7639C15.6626 47.9729 15.6179 48.3094 15.6234 48.5776Z" fill="#CBB600"/>
<path d="M45.1381 44.9776C46.0442 44.9209 46.4628 45.8524 45.6211 46.3552C45.0767 46.6538 44.0722 45.7661 45.1381 44.9776Z" fill="#CBB600"/>
<path d="M36.4883 51.3949C36.9796 51.0448 38.2561 46.6459 38.5798 46.3252L38.7426 46.5578C38.1951 48.105 37.5733 49.6257 36.994 51.1606C36.9028 51.4029 36.8141 51.6458 36.6991 51.8782C36.6936 51.6248 36.7298 51.6026 36.494 51.5256L36.4883 51.3949Z" fill="#CBB600"/>
<path d="M38.5782 46.3251C38.9569 44.5265 38.0402 45.3551 37.6641 44.8329L37.7096 44.7596C38.0545 44.6909 39.8523 44.6699 40.1205 44.7831L40.1274 44.8791C39.9174 45.0296 39.6655 45.0859 39.5933 45.1492C39.2282 45.4694 38.9324 46.1333 38.741 46.5577L38.5782 46.3251Z" fill="#CBB600"/>
<path d="M62.9844 47.9339C62.7718 48.2465 62.6848 48.8925 62.4303 49.0466C62.1436 49.2198 61.7448 49.0953 61.5938 48.7821C61.6005 48.276 62.0191 47.9691 62.4543 47.8125C62.6454 47.8143 62.8574 47.7823 62.9968 47.868L62.9844 47.9339Z" fill="#CBB600"/>
<path d="M90.3406 48.2759C90.4467 48.3831 90.4682 48.4127 90.5212 48.5545L90.774 48.385C90.3277 49.2868 89.9806 50.262 89.5799 51.1855C89.4924 51.3883 89.2532 52.0423 89.1694 52.1804C88.8673 51.9585 88.7829 51.8956 88.7773 51.5153C88.9019 51.6977 88.8877 51.7409 89.0572 51.8241C89.3704 51.114 90.3154 48.9305 90.3406 48.2759Z" fill="#CBB600"/>
<path d="M56.25 47.7684C57.8823 47.5421 57.1093 47.4521 58.5579 48.0569C58.7213 47.7955 58.4846 47.0866 58.7108 46.7617C58.7398 47.1353 58.9149 47.9169 58.643 48.2467C58.5518 48.3571 58.5444 48.2381 58.434 48.4828C57.976 47.8257 57.4255 47.7881 56.7025 47.9619C56.5545 47.8189 56.4596 47.8189 56.25 47.7684Z" fill="#CBB600"/>
<path d="M48.5781 47.8032C48.8426 47.773 49.0343 47.7274 49.287 47.8013C49.3635 47.9419 49.3388 48.0707 49.3326 48.2353L49.3955 48.3062C49.7265 48.215 49.7956 48.0608 50.0717 47.9141C50.7233 47.5671 51.3533 47.6608 52.0203 47.8087C51.7257 47.8217 51.0759 47.7982 50.8509 47.8654L50.8491 48.0085C50.584 48.0454 50.359 48.0664 50.0927 48.0874C49.7574 48.4412 49.6723 48.5663 49.4109 48.9837C49.4553 48.7926 49.467 48.7488 49.4713 48.5552L49.308 48.5263C49.1915 48.2957 49.1946 48.1632 49.1656 47.9074C49.0047 47.7878 48.813 47.8186 48.5781 47.8032Z" fill="#CBB600"/>
<path d="M90.3411 48.2769C90.1784 48.1092 89.7642 47.9267 89.7148 47.8269C89.9207 47.7393 91.2282 47.7782 91.5549 47.7812C91.2337 47.9914 91.0322 48.1043 90.7745 48.386L90.5218 48.5555C90.4687 48.4137 90.4472 48.3841 90.3411 48.2769Z" fill="#CBB600"/>
<path d="M99.0561 47.7779C99.2435 47.8857 99.1948 48.099 99.2047 48.3055L99.2762 48.3444L99.3113 48.3129C99.7009 47.9548 100.079 47.7532 100.623 47.7668L100.689 48.0213C99.9549 48.067 99.7835 48.1187 99.3915 48.7611L99.3335 48.578C99.188 48.4917 99.172 48.467 99.0537 48.3524C98.9661 48.1748 99.0253 47.9813 99.0561 47.7779Z" fill="#CBB600"/>
<path d="M2.00285 52.9268C2.3155 53.0994 3.48871 53.1327 3.79119 52.9619C3.87262 53.1542 3.82417 53.1154 3.97477 53.2159C3.33299 53.3422 2.34756 53.4187 1.75781 53.0883L2.00285 52.9268Z" fill="#CBB600"/>
<path d="M2.01562 44.695C2.94823 44.3838 3.53298 44.5584 4.42786 44.8764C4.0895 44.8426 4.01886 44.78 3.7435 44.9057C3.26157 44.7487 2.7866 44.7925 2.30387 44.9042C2.22577 44.7748 2.15334 44.7592 2.01562 44.695Z" fill="#CBB600"/>
<path d="M62.4531 47.8137C63.4068 47.5776 63.882 47.5049 64.8356 47.8199C64.6513 47.8125 64.483 47.802 64.2975 47.8155L64.2457 47.8975L64.345 48.1164C63.8389 47.7878 63.5584 47.8544 62.9833 47.9351L62.9956 47.8692C62.8563 47.7835 62.6442 47.8156 62.4531 47.8137Z" fill="#CBB600"/>
<path fill-rule="evenodd" clip-rule="evenodd" d="M92.6518 47.8167C93.5392 47.5881 94.1624 47.4855 95.0405 47.8225C94.7714 47.8053 94.5545 47.7906 94.2817 47.7962L94.2446 47.8674L94.2456 47.8684L94.2817 47.7991C94.5545 47.7936 94.7713 47.8082 95.0405 47.8255C96.6845 48.3537 95.2506 52.2797 96.0981 52.8919C96.4288 52.9466 96.6596 52.7263 96.7583 52.8245C96.3336 53.4688 95.1333 53.4892 94.7309 52.7376L94.5962 52.7708C94.4753 52.8152 94.3878 52.8911 94.2592 52.9837C93.6601 53.4131 93.0297 53.3963 92.3462 53.1682H92.3452C91.5145 52.8919 91.2962 51.8735 91.8139 51.2053C92.2441 50.6507 92.6629 50.4607 93.3198 50.3411L93.5405 50.6565C92.7528 51.1621 92.2722 52.362 93.2319 52.9426C93.1432 53.0796 93.0545 53.145 92.9565 53.1731C93.0547 53.1451 93.144 53.08 93.2329 52.9426C93.7971 53.0904 94.0722 52.9415 94.4848 52.5364L94.5239 52.427C94.5672 52.3315 94.6249 52.2679 94.7026 52.1653C94.703 52.1641 94.7022 52.1626 94.7026 52.1614C94.6534 51.6034 94.7246 50.8159 94.7309 50.1809C94.719 50.1498 94.7052 50.1214 94.6909 50.095C94.2594 50.2969 93.9734 50.3962 93.5425 50.6546L93.3217 50.3401C93.5209 50.1361 94.2204 50.2706 94.687 49.7131C94.761 49.0167 94.9035 48.392 94.2895 47.9153L94.2856 47.9114C93.8268 47.8646 93.567 47.8017 93.1616 48.0491L93.2065 47.8948C93.1623 47.8513 93.1139 47.8296 93.061 47.8176C93.1131 47.8297 93.1609 47.8519 93.2046 47.8948L93.1596 48.0491C92.9125 48.295 93.0054 48.798 92.687 49.0354C92.2265 49.3794 91.7271 48.9678 91.8842 48.4426C91.9909 48.085 92.3341 47.9605 92.6489 47.8176L92.6518 47.8167Z" fill="#CBB600"/>
<path d="M22.375 52.4313L22.4146 52.3826C22.7181 51.9992 22.7294 51.7791 23.0806 51.437L23.1146 51.4869C22.984 52.0048 22.9249 52.1176 22.6386 52.5614L22.375 52.4313Z" fill="#CBB600"/>
<path d="M28.0352 52.54L28.091 52.4858C28.4613 52.1196 28.5594 51.8817 28.7102 51.4002L28.806 51.3916C28.9268 51.6838 28.6732 52.3502 28.4421 52.4617C28.2395 52.3952 28.2961 52.4217 28.0352 52.54Z" fill="#CBB600"/>
</svg>
