<svg width="117" height="67" viewBox="0 0 117 67" fill="none" xmlns="http://www.w3.org/2000/svg">
<path d="M0 33.1812C0.530267 33.5129 1.70229 34.4863 2.2275 34.9003L6.58605 38.3373L20.2339 49.094C21.5884 47.6261 23.16 46.0934 24.568 44.6628L30.6785 38.4431L40.0439 38.443L32.884 48.4624L20.2599 66.1226C19.4815 65.0635 18.15 62.7405 17.4213 61.5531L11.9728 52.689L4.06883 39.8351C2.7802 37.7386 1.18258 35.2845 0 33.1812Z" fill="#269A66"/>
<path d="M67.9058 0.000488281C68.2799 0.209796 71.1234 3.23363 71.6069 3.72121L85.8451 18.1139C86.1124 17.5691 86.4057 17.0155 86.6844 16.4744L92.0667 16.4789C91.3108 17.96 90.5454 19.4359 89.7693 20.9063C87.5812 20.9418 85.3932 20.9428 83.2051 20.9095L70.5641 7.8158C69.6388 6.87921 68.7287 5.91565 67.8097 4.97059C66.3036 6.50378 64.7374 8.22725 63.2528 9.80019L52.7289 20.9368L47.6289 20.926L67.9058 0.000488281Z" fill="#269A66"/>
<path d="M15.6641 24.1985C17.6832 24.1745 19.7026 24.1659 21.7218 24.1725C23.3564 24.162 25.1958 24.0596 26.7833 24.3163C28.7348 24.6321 30.1991 26.1099 30.1477 28.1269C30.1472 29.8952 29.4326 30.8876 27.8931 31.6819L30.3705 35.2198L27.6264 35.2201C26.9741 34.2704 26.17 33.0365 25.4839 32.1375C25.1367 32.1341 23.5412 32.09 23.3213 32.1886L22.9711 31.6838C23.8532 31.2763 24.2589 30.8991 24.7913 30.1114C24.8128 30.0624 24.8339 30.0133 24.8547 29.964C25.4096 28.6459 25.303 27.5422 24.7754 26.2567C23.5066 24.2755 21.5522 24.1828 19.4369 24.1997C18.1849 24.2097 16.916 24.2082 15.6641 24.1985Z" fill="#FF4E00"/>
<path fill-rule="evenodd" clip-rule="evenodd" d="M21.7207 24.176C23.3552 24.1655 25.1949 24.0629 26.7822 24.3196C28.7335 24.6354 30.1977 26.1134 30.1465 28.1302C30.146 29.8984 29.4311 30.8915 27.8916 31.6858L30.3691 35.2229L27.625 35.2239C26.9727 34.2742 26.1685 33.0399 25.4824 32.1409C25.1352 32.1375 23.5411 32.0941 23.3203 32.1927L25.4268 35.2229C24.5238 35.219 23.6206 35.2249 22.7178 35.2405C21.9913 34.231 21.2829 33.1644 20.5605 32.1409L18.2051 32.1448L18.2041 35.2249L15.6602 35.2239L15.6631 24.2024C17.6821 24.1785 19.7016 24.1694 21.7207 24.176ZM22.6611 28.2141C22.6964 25.8676 19.7886 26.2222 18.2041 26.2464C18.2037 27.5076 18.1755 28.8856 18.21 30.137C19.4456 30.1489 21.082 30.343 22.0635 29.6223C22.5108 29.1602 22.6512 28.8657 22.6611 28.2141ZM24.7734 26.2591C25.3011 27.5445 25.4075 28.649 24.8525 29.9671C24.8318 30.0162 24.8105 30.0657 24.7891 30.1145C25.6244 30.1344 26.4308 30.1039 27.0713 29.4895C27.8008 28.7896 27.7938 27.5272 27.0518 26.8382C26.4069 26.2396 25.5978 26.2354 24.7734 26.2591Z" fill="black"/>
<path fill-rule="evenodd" clip-rule="evenodd" d="M86.2506 23.8739C89.4845 23.3844 92.5002 25.6182 92.9742 28.8544C93.4481 32.0905 91.2004 35.0951 87.9615 35.5536C84.7447 36.0088 81.7646 33.7793 81.2936 30.5653C80.8227 27.3512 83.038 24.3603 86.2506 23.8739ZM89.8834 27.5048C89.0908 26.5155 87.8268 26.0288 86.5748 26.2294C84.6675 26.5352 83.3614 28.3192 83.6471 30.2294C83.9327 32.1396 85.7038 33.4634 87.6168 33.1982C88.8726 33.0239 89.9389 32.1885 90.4078 31.0107C90.8759 29.8329 90.6765 28.494 89.8834 27.5048Z" fill="black"/>
<path d="M53.7031 24.1084L56.3753 24.1363C56.9149 26.8392 57.7207 29.5786 58.3685 32.2623C58.7256 33.7412 59.1434 35.2975 59.5864 36.7483C59.9985 35.7461 60.3961 33.8398 60.6805 32.7541C61.4193 29.9339 61.9913 26.8768 62.866 24.1112L65.4636 24.1636L64.3803 28.5138L60.9415 42.2541L58.2213 42.2461C56.8087 36.2221 55.1587 30.1404 53.7031 24.1084Z" fill="black"/>
<path fill-rule="evenodd" clip-rule="evenodd" d="M95.2254 24.1956C98.5771 24.1844 105.792 23.2111 104.513 29.3821C104.284 30.4861 103.389 31.1612 102.436 31.6897C103.039 32.696 104.18 34.222 104.881 35.2209L103.97 35.2219L102.136 35.2229C101.495 34.2291 100.691 33.1255 100.011 32.1409H97.6453L97.6444 35.2209H95.1082L95.1112 27.4993C95.1112 26.468 95.0928 25.3422 95.1219 24.3079C95.1232 24.2446 95.1483 24.2522 95.2254 24.1956ZM101.981 28.9465C102.791 25.8333 99.3234 26.2227 97.6453 26.2483C97.6447 27.52 97.6189 28.873 97.6473 30.1379C98.869 30.1506 100.538 30.342 101.51 29.6223C101.703 29.4267 101.911 29.2143 101.981 28.9465Z" fill="black"/>
<path d="M44.7271 24.1982L52.8901 24.1994L52.8908 26.2071C50.9543 26.1977 49.0178 26.2012 47.0813 26.2175L47.0815 28.6519L52.2037 28.6517L52.2042 30.6084L47.0994 30.6109C47.0386 31.0223 47.0789 32.7054 47.0821 33.1955L53.086 33.1968L53.0853 35.2244L44.5589 35.2242L44.5558 27.7492C44.5557 26.9855 44.5066 24.8594 44.5771 24.2535L44.7271 24.1982Z" fill="black"/>
<path d="M32.036 24.1948L34.5579 24.1967L34.5543 28.2369C34.5495 29.3516 34.5067 30.2218 34.6694 31.3798C34.9588 33.4417 37.7466 33.8835 38.9335 32.4341C39.6444 31.566 39.4925 29.6522 39.4921 28.4804L39.4908 24.1964L42 24.1955L41.9985 26.3441C42.003 27.8859 42.0473 29.5799 41.9526 31.1061C41.8517 32.3181 41.3446 33.6035 40.3814 34.3659C38.4263 35.9133 34.6065 35.7937 33.0286 33.7494C31.6731 31.9772 32.0518 29.5321 32.0087 27.4369C31.9901 26.5333 31.9341 25.0791 32.036 24.1948Z" fill="black"/>
<path d="M74.8715 24.0615C76.4339 23.8578 78.1669 24.2232 79.5396 24.993C79.2754 25.5838 79.0087 26.289 78.7616 26.8959C77.5608 26.3129 74.9474 25.4353 73.8837 26.5961C73.6827 26.8133 73.5816 27.105 73.6049 27.4002C73.67 28.2992 75.5503 28.6162 76.2474 28.7865C77.3206 29.0488 78.1839 29.2401 79.0884 29.933C80.3651 30.9114 80.2266 32.9014 79.247 34.0275C78.2389 35.1859 76.7183 35.3287 75.3045 35.4254C73.6353 35.3693 72.2461 35.0682 70.8398 34.1594C71.1363 33.5166 71.4257 32.8961 71.6886 32.2375C72.9116 32.9805 74.1295 33.4338 75.5863 33.3868C76.3694 33.3615 77.5974 33.0941 77.4995 32.0697C77.3503 31.3155 75.9845 30.9376 75.3082 30.8247C72.4382 30.3456 69.761 28.7675 71.7051 25.5448C72.2474 24.6454 73.787 24.1941 74.8715 24.0615Z" fill="black"/>
<path d="M105.141 24.1959L107.741 24.1948C108.629 25.7213 109.762 27.6418 110.709 29.1132C111.633 27.4914 112.685 25.8037 113.653 24.1976C114.474 24.1842 115.341 24.1984 116.165 24.2004C115.37 25.4302 114.587 26.7877 113.831 28.0499L111.844 31.3535L111.846 35.222L109.312 35.2232L109.308 31.2756C108.22 29.4492 106.268 26.279 105.113 24.3116C105.123 24.273 105.132 24.2345 105.141 24.1959Z" fill="black"/>
<path d="M4.52949 24.1948L14.0882 24.1954L14.0872 26.2398L10.5479 26.2416L10.5463 31.7791L10.5463 35.2235L8.03626 35.2229L8.03355 26.2425L4.49062 26.2403C4.48879 25.8589 4.45245 24.4674 4.52949 24.1948Z" fill="black"/>
<path d="M66.6482 24.1948L69.0675 24.1972C69.0656 25.2466 69.175 34.9824 68.9892 35.2216L66.542 35.2209C66.542 31.8741 66.5464 28.5271 66.5338 25.1804C66.5331 24.9281 66.4876 24.3579 66.6482 24.1948Z" fill="black"/>
<path fill-rule="evenodd" clip-rule="evenodd" d="M93.6623 45.9745C94.9927 45.8836 96.1499 46.8775 96.2599 48.206C96.3699 49.5345 95.3919 50.7052 94.0646 50.8339C93.1893 50.9188 92.3356 50.5259 91.8312 49.8056C91.327 49.0853 91.2499 48.1487 91.6291 47.3554C92.0083 46.5623 92.7853 46.0347 93.6623 45.9745ZM93.6017 46.162C91.6502 46.7069 91.7062 50.7355 94.1066 50.6259C96.0657 49.9729 95.8681 46.082 93.6017 46.162Z" fill="#269A66"/>
<path fill-rule="evenodd" clip-rule="evenodd" d="M105.345 45.9738C106.68 45.8886 107.834 46.8955 107.931 48.2296C108.028 49.564 107.03 50.7269 105.697 50.8351C104.347 50.9445 103.167 49.9328 103.069 48.5822C102.971 47.2316 103.994 46.06 105.345 45.9738ZM105.302 46.1564C103.358 46.6004 103.349 50.7063 105.72 50.6222C107.814 49.954 107.483 46.0869 105.302 46.1564Z" fill="#269A66"/>
<path fill-rule="evenodd" clip-rule="evenodd" d="M66.8604 36.9843C68.5219 36.9675 71.5712 36.5535 71.1475 39.2928C71.0609 39.856 70.6487 40.2001 70.1924 40.494C70.3865 40.8037 71.1795 41.7886 71.1416 42.0448L70.9775 42.0692L70.0654 42.0653C69.7513 41.6523 69.4064 41.1237 69.1074 40.6903C68.7522 40.6751 68.3492 40.6855 67.9902 40.6864L67.9893 42.0692L66.8594 42.0712L66.8604 36.9843ZM67.999 37.8964C67.9883 38.5258 67.9855 39.1555 67.9912 39.785C68.6479 39.7986 69.2873 39.9064 69.8125 39.5253C70.8134 37.9643 69.0412 37.8694 67.999 37.8964Z" fill="black"/>
<path fill-rule="evenodd" clip-rule="evenodd" d="M86.835 36.9829C87.4594 38.6134 88.3662 40.4065 89.0488 42.0718L87.8779 42.0747C87.7351 41.7855 87.6598 41.3966 87.4639 41.1323C87.3274 40.9472 87.2068 40.9869 86.9736 40.9741L85.0557 40.9751C84.9027 41.3369 84.76 41.7037 84.6279 42.0737L83.4609 42.0688C84.129 40.4245 84.9618 38.6229 85.6816 36.9849L86.835 36.9829ZM86.2236 38.187C85.9487 38.8309 85.6826 39.4785 85.4248 40.1294L86.1895 40.1401L87.0498 40.1304C86.9215 39.7879 86.4069 38.3682 86.2236 38.187Z" fill="black"/>
<path d="M75.7122 36.99L79.493 36.9873L79.4917 37.8754L76.8391 37.8782L76.8385 39.067L79.1896 39.0694L79.1877 39.9565L76.9661 39.954L76.8625 40.0304C76.8037 40.3175 76.8315 40.888 76.8366 41.2016L79.5846 41.206L79.5814 42.0734L75.7109 42.0737L75.7122 36.99Z" fill="black"/>
<path d="M66.1992 43.134C66.9482 43.0529 69.0838 43.1142 69.9269 43.1144L77.8316 43.1163L104.469 43.1175C105.655 43.1174 112.299 42.9832 112.889 43.1752L112.951 43.3565C111.723 43.4096 110.233 43.3696 108.983 43.37L101.428 43.37L78.4358 43.3692L69.8081 43.3698C69.3126 43.3705 66.6416 43.4404 66.2934 43.3361L66.1992 43.134Z" fill="black"/>
<path d="M68.2316 16.0844L71.6483 16.082L71.6268 19.48C70.7041 19.5339 69.1955 19.4812 68.2266 19.4797L68.2316 16.0844Z" fill="#FF4E00"/>
<path d="M64.1535 16.0783L67.5854 16.0757C67.6138 17.0992 67.5563 18.4287 67.5525 19.4833L64.1484 19.4819L64.1535 16.0783Z" fill="#FF4E00"/>
<path d="M64.1541 12.0479L67.5854 12.0496C67.605 13.115 67.5557 14.3769 67.5506 15.4628C66.4364 15.4365 65.2671 15.4533 64.1484 15.4533L64.1541 12.0479Z" fill="#FF4E00"/>
<path d="M68.236 12.0547L71.6471 12.0581L71.6218 15.4643C70.5145 15.4366 69.3389 15.4523 68.2266 15.4486L68.236 12.0547Z" fill="#FF4E00"/>
<path fill-rule="evenodd" clip-rule="evenodd" d="M71.7002 46.0927C72.5875 46.1409 74.178 45.8242 74.666 46.7968C75.0585 47.5801 74.6258 48.0809 73.9287 48.4111C74.3212 49.0237 74.6477 49.6825 75.0244 50.3076C75.1951 50.5898 75.3579 50.4383 75.4375 50.666C75.2119 50.7332 74.565 50.7146 74.2969 50.7158C74.1307 50.3744 73.962 49.9741 73.8047 49.624C73.6201 49.2201 73.3538 48.6957 72.9424 48.496C72.7147 48.4935 72.7969 48.4645 72.627 48.5996C72.5076 49.0204 72.5393 49.8901 72.7295 50.3095C72.8306 50.5316 73.0071 50.529 73.251 50.6093L73.25 50.6806C72.8632 50.7533 71.3562 50.7118 70.8828 50.708C71.8618 50.2868 71.7848 50.3677 71.7949 49.1962C71.8012 48.3925 71.8219 47.5643 71.748 46.7617C71.7139 46.3834 71.3305 46.3303 71.0537 46.1425L71.0176 46.1181C71.1819 46.0955 71.5257 46.0833 71.7002 46.0927ZM72.6016 46.2822C72.5838 46.7858 72.4469 47.9522 72.7793 48.3154C73.0681 48.4147 73.3962 48.3143 73.6211 48.1113C74.3036 47.0322 73.8615 46.3079 72.6016 46.2822Z" fill="#269A66"/>
<path d="M107.797 36.9839L108.978 36.9805C109.418 37.6461 109.926 38.5528 110.351 39.2536C110.807 38.5007 111.256 37.7431 111.696 36.9811L112.806 36.9846C112.5 37.549 112.11 38.1767 111.781 38.7351C110.779 40.3452 110.819 40.2258 110.85 42.0691L109.745 42.0686C109.751 41.4667 109.744 40.8553 109.743 40.2525C109.247 39.5473 108.229 37.7495 107.797 36.9839Z" fill="black"/>
<path d="M100.008 36.9873L104.354 36.9881L104.355 37.8936L102.758 37.8974L102.753 40.5034L102.754 42.0741L101.619 42.074L101.617 37.8982L100.004 37.8945L100.008 36.9873Z" fill="black"/>
<path d="M93.166 36.9848L94.2948 36.9839L94.2954 41.1668L96.8197 41.1656L96.8191 42.0716H93.1641L93.166 36.9848Z" fill="black"/>
<path d="M66.3551 46.0884L70.9474 46.0896C70.9563 46.6184 70.9727 47.1649 70.9721 47.692C70.7338 47.0119 70.7515 46.8655 70.2048 46.4049C69.7257 46.3183 69.5386 46.2933 69.045 46.2812C69.0438 47.0063 69.0918 49.3525 69.0096 49.9687C69.1329 50.5621 69.5127 50.5491 70.0278 50.6772C69.2144 50.7381 68.1438 50.7077 67.3108 50.7068C67.5383 50.5963 67.848 50.5583 68.0319 50.3775C68.3921 50.0222 68.2322 47.0651 68.2278 46.393C67.9339 46.14 66.9625 46.3508 66.7344 46.6952C66.5296 47.005 66.4373 47.3509 66.2578 47.6736C66.2945 47.1767 66.3526 46.5767 66.3551 46.0884Z" fill="#269A66"/>
<path d="M66.3551 46.0884L70.9474 46.0896C70.9563 46.6184 70.9727 47.1649 70.9721 47.692C70.7338 47.0119 70.7515 46.8655 70.2048 46.4049C69.7257 46.3183 69.5386 46.2933 69.045 46.2812C69.0438 47.0063 69.0918 49.3525 69.0096 49.9687C68.8775 49.4276 69.0836 46.9831 68.9527 46.2389C68.7947 46.1298 68.4004 46.1205 68.2398 46.2182L68.2278 46.393C67.9339 46.14 66.9625 46.3508 66.7344 46.6952C66.5296 47.005 66.4373 47.3509 66.2578 47.6736C66.2945 47.1767 66.3526 46.5767 66.3551 46.0884Z" fill="#104931"/>
<path d="M99.2733 50.7018C99.4819 50.6004 99.9799 50.5031 100.068 50.2911C100.647 48.9059 99.4831 47.4734 98.6691 46.4472C98.6312 46.3989 98.2589 46.2733 98.1534 46.2077L98.1445 46.1245C98.3885 46.0604 100.112 46.0592 100.372 46.1222C100.381 46.3394 100.098 46.148 99.8668 46.449C99.7998 46.8325 100.61 47.919 100.849 48.2848L100.956 48.36L101.002 48.6288C100.954 49.8518 100.679 50.3054 101.974 50.6966L99.2733 50.7018Z" fill="#269A66"/>
<path d="M111.92 50.5894C111.89 50.6035 111.86 50.617 111.831 50.6297C111.301 50.8506 110.378 50.9269 109.896 50.729C108.427 50.0484 109.301 47.8383 108.954 46.5999C108.893 46.3814 108.527 46.2729 108.348 46.1992L108.349 46.1208C108.396 46.1093 108.444 46.0998 108.491 46.0926C108.681 46.0627 110.414 46.0655 110.536 46.158C110.409 46.2257 109.901 46.4983 109.894 46.6197C109.817 48.1078 109.198 51.581 111.833 50.4318L111.905 50.4L111.92 50.5894Z" fill="#269A66"/>
<path d="M80.3945 50.7053C81.3988 50.2824 81.3242 50.3006 81.3185 49.0987C81.3148 48.2847 81.3615 47.4055 81.2301 46.6043C81.1959 46.3988 80.8085 46.2718 80.6391 46.2093L80.6031 46.128C80.8591 46.059 81.7685 46.083 82.0846 46.0838L82.1092 46.3426C82.1067 46.8038 82.1275 47.7504 82.0801 48.1721L82.0827 48.3945C82.1219 49.303 81.8368 50.2704 82.9011 50.5257L82.7115 50.705L80.3945 50.7053Z" fill="#269A66"/>
<path d="M77.4952 50.8119C76.0257 50.5007 76.1073 49.7013 76.1389 48.4187C76.1528 47.8845 76.1856 47.311 76.1363 46.7805C76.1129 46.5249 75.6933 46.2755 75.4961 46.1368C75.7578 46.0287 77.2563 46.0932 77.6203 46.1111L77.6494 46.1832C77.547 46.2302 77.0566 46.44 77.0458 46.5388C76.9441 47.5037 76.6066 49.8905 77.4787 50.5174L77.5312 50.5549L77.4952 50.8119Z" fill="#269A66"/>
<path d="M88.3246 46.2702C88.4757 46.0978 88.7601 46.1429 88.975 46.1854C89.1791 46.3733 89.066 46.6453 89.1128 46.9457C89.1855 47.9377 89.006 49.2719 89.2101 50.2169C89.2607 50.4507 89.7878 50.609 90.0368 50.7029C89.5931 50.7043 88.0213 50.7376 87.668 50.6785L87.6869 50.5942C87.8411 50.5515 88.0112 50.5135 88.1243 50.3916C88.5225 49.9619 88.3322 46.9594 88.3246 46.2702Z" fill="#269A66"/>
<path d="M86.4589 46.0884L91.0215 46.0892C91.0524 46.633 91.0954 47.2068 91.115 47.7484C90.8236 47.0713 90.8615 46.6416 90.0797 46.3795C89.8073 46.2882 89.4344 46.1544 89.1816 46.3553C89.1317 46.6011 89.1235 46.7007 89.1109 46.9465C89.0641 46.6461 89.1772 46.3741 88.9731 46.1862C88.7582 46.1437 88.4738 46.0986 88.3227 46.271C86.6763 46.3851 86.9809 46.4387 86.3906 47.7332C86.4001 47.1845 86.4229 46.636 86.4589 46.0884Z" fill="#104931"/>
<path d="M78.4789 46.0841C78.9738 46.0815 79.9357 46.0521 80.3857 46.1209L80.4103 46.2005C80.2113 46.3114 79.851 46.3437 79.8005 46.5644C79.3277 48.615 80.806 50.9274 77.4961 50.8109L77.5321 50.5538C78.7083 50.7801 79.6077 50.448 79.4996 49.1102C79.4408 48.3783 79.6355 47.1774 79.3593 46.501C79.1368 46.27 78.7911 46.2126 78.4789 46.0841Z" fill="#104931"/>
<path d="M111.906 50.3978L111.958 50.3599C112.224 50.164 112.306 49.9908 112.351 49.6638C112.415 49.1977 112.479 46.7964 112.248 46.5329C112.114 46.3796 111.868 46.2576 111.695 46.1509C111.827 46.03 112.866 46.0965 113.11 46.1047L113.165 46.1567C112.85 46.4363 112.624 46.6141 112.578 47.0677C112.455 48.2609 113.103 49.8153 111.921 50.5872L111.906 50.3978Z" fill="#104931"/>
<path d="M100.848 48.2914C101.169 47.8476 101.798 47.0979 101.787 46.5649C101.598 46.1906 101.305 46.3874 101.324 46.124C101.614 46.0443 102.757 46.0866 103.122 46.0894C102.029 46.5292 101.664 47.4259 101.076 48.3928C101.049 48.438 101.013 48.5832 101.001 48.6353L100.954 48.3666L100.848 48.2914Z" fill="#104931"/>
<path d="M84.6734 49.0796L84.6702 50.7084L82.7109 50.7073L82.9005 50.5279C84.2025 50.5065 84.2607 50.2082 84.6734 49.0796Z" fill="#104931"/>
<path d="M82.0859 46.0854L84.2475 46.0896C84.2791 46.5794 84.3151 47.0256 84.2968 47.5172C84.092 46.9546 83.9934 46.6294 83.4157 46.3413C83.1648 46.2159 82.3413 46.2148 82.1106 46.3443L82.0859 46.0854Z" fill="#269A66"/>
<path d="M82.082 48.1765C83.2342 48.2292 82.9612 47.9458 83.2892 47.0547C83.3006 47.3639 83.3442 48.9953 83.2393 49.1717C82.8468 48.5625 82.8607 48.3931 82.0846 48.3989L82.082 48.1765Z" fill="#104931"/>
</svg>
