<svg width="160" height="36" viewBox="0 0 160 36" fill="none" xmlns="http://www.w3.org/2000/svg">
<path d="M147.495 11.5277H154.04L154.204 12.1388H147.191L147.495 11.5277ZM159.626 17.8342C159.689 17.8342 159.72 17.8831 159.72 17.9808C159.72 18.0786 159.689 18.1275 159.626 18.1275C159.33 18.1275 158.855 18.1112 158.201 18.0786C157.546 18.046 157.071 18.0297 156.775 18.0297C156.385 18.0297 155.925 18.046 155.396 18.0786C154.866 18.1112 154.453 18.1275 154.157 18.1275C154.095 18.1275 154.063 18.0786 154.063 17.9808C154.063 17.8831 154.095 17.8342 154.157 17.8342C154.624 17.8342 154.959 17.7853 155.162 17.6875C155.364 17.5735 155.466 17.3942 155.466 17.1498C155.466 16.9053 155.333 16.4898 155.068 15.9031L150.183 5.5145L151.142 3.87676L146.513 14.7787C146.311 15.2676 146.21 15.7076 146.21 16.0987C146.21 16.669 146.404 17.1009 146.794 17.3942C147.184 17.6875 147.729 17.8342 148.43 17.8342C148.508 17.8342 148.547 17.8831 148.547 17.9808C148.547 18.0786 148.508 18.1275 148.43 18.1275C148.15 18.1275 147.745 18.1112 147.215 18.0786C146.623 18.046 146.108 18.0297 145.672 18.0297C145.251 18.0297 144.76 18.046 144.199 18.0786C143.701 18.1112 143.288 18.1275 142.961 18.1275C142.883 18.1275 142.844 18.0786 142.844 17.9808C142.844 17.8831 142.883 17.8342 142.961 17.8342C143.397 17.8342 143.763 17.7446 144.059 17.5653C144.355 17.386 144.644 17.0683 144.924 16.612C145.205 16.1394 145.54 15.4468 145.929 14.5343L150.955 2.70346C150.986 2.65457 151.056 2.63013 151.165 2.63013C151.274 2.63013 151.336 2.65457 151.352 2.70346L157.079 14.7787C157.608 15.952 158.053 16.7587 158.411 17.1986C158.785 17.6223 159.19 17.8342 159.626 17.8342Z" fill="white"/>
<path d="M129.877 3.41255L130.508 3.46144V15.17C130.508 16.0337 130.663 16.6937 130.975 17.15C131.302 17.6063 131.778 17.8344 132.401 17.8344C132.448 17.8344 132.471 17.8833 132.471 17.9811C132.471 18.0788 132.448 18.1277 132.401 18.1277C131.996 18.1277 131.684 18.1196 131.466 18.1033L130.227 18.0788L128.848 18.1033C128.599 18.1196 128.24 18.1277 127.773 18.1277C127.726 18.1277 127.703 18.0788 127.703 17.9811C127.703 17.8833 127.726 17.8344 127.773 17.8344C128.443 17.8344 128.957 17.6063 129.316 17.15C129.69 16.6937 129.877 16.0337 129.877 15.17V3.41255ZM141.751 18.4699C141.751 18.5188 141.712 18.5514 141.634 18.5677C141.556 18.584 141.501 18.5759 141.47 18.5433L130.227 4.85473C129.697 4.2192 129.23 3.77921 128.825 3.53477C128.42 3.27403 128.022 3.14367 127.633 3.14367C127.586 3.14367 127.562 3.09478 127.562 2.997C127.562 2.89923 127.586 2.85034 127.633 2.85034L128.568 2.87478C128.755 2.89108 129.035 2.89923 129.409 2.89923L130.905 2.87478C131.092 2.85849 131.31 2.85034 131.559 2.85034C131.684 2.85034 131.778 2.88293 131.84 2.94812C131.902 3.0133 131.996 3.14367 132.12 3.33922C132.385 3.71402 132.58 3.97476 132.705 4.12142L141.564 15.0234L141.751 18.4699ZM141.751 18.4699L141.12 17.7366V5.83249C141.12 4.9688 140.956 4.30882 140.629 3.85254C140.317 3.37996 139.85 3.14367 139.226 3.14367C139.195 3.14367 139.179 3.09478 139.179 2.997C139.179 2.89923 139.195 2.85034 139.226 2.85034L140.185 2.87478C140.683 2.90738 141.096 2.92367 141.423 2.92367C141.719 2.92367 142.148 2.90738 142.709 2.87478L143.691 2.85034C143.737 2.85034 143.761 2.89923 143.761 2.997C143.761 3.09478 143.737 3.14367 143.691 3.14367C143.067 3.14367 142.584 3.37996 142.241 3.85254C141.914 4.30882 141.751 4.9688 141.751 5.83249V18.4699Z" fill="white"/>
<path d="M124.262 5.83249C124.262 4.9851 124.075 4.32512 123.701 3.85254C123.343 3.37996 122.821 3.14367 122.135 3.14367C122.104 3.14367 122.089 3.09478 122.089 2.997C122.089 2.89923 122.104 2.85034 122.135 2.85034L123.211 2.87478C123.803 2.90738 124.27 2.92367 124.613 2.92367C124.894 2.92367 125.314 2.90738 125.875 2.87478L126.904 2.85034C126.935 2.85034 126.951 2.89923 126.951 2.997C126.951 3.09478 126.935 3.14367 126.904 3.14367C126.296 3.14367 125.821 3.37996 125.478 3.85254C125.151 4.32512 124.987 4.9851 124.987 5.83249V12.6768C124.987 13.8501 124.746 14.8767 124.262 15.7567C123.795 16.6204 123.125 17.2885 122.252 17.7611C121.395 18.2337 120.398 18.4699 119.26 18.4699C118.123 18.4699 117.11 18.2418 116.222 17.7855C115.334 17.3129 114.64 16.6448 114.141 15.7811C113.658 14.9011 113.417 13.8745 113.417 12.7012V4.83029C113.417 4.34141 113.37 3.9829 113.277 3.75476C113.183 3.52662 113.012 3.37181 112.762 3.29033C112.529 3.19255 112.155 3.14367 111.64 3.14367C111.594 3.14367 111.57 3.09478 111.57 2.997C111.57 2.89923 111.594 2.85034 111.64 2.85034L112.856 2.87478C113.542 2.90738 114.095 2.92367 114.515 2.92367C114.983 2.92367 115.56 2.90738 116.245 2.87478L117.414 2.85034C117.461 2.85034 117.484 2.89923 117.484 2.997C117.484 3.09478 117.461 3.14367 117.414 3.14367C116.9 3.14367 116.518 3.19255 116.269 3.29033C116.019 3.3881 115.848 3.55921 115.754 3.80365C115.676 4.03179 115.637 4.3903 115.637 4.87918V11.8457C115.637 13.7849 116.019 15.2352 116.783 16.1967C117.562 17.1418 118.645 17.6144 120.032 17.6144C121.356 17.6144 122.393 17.1907 123.141 16.3433C123.888 15.4796 124.262 14.2656 124.262 12.7012V5.83249Z" fill="white"/>
<path d="M94.7476 3.41255L95.3787 3.46144L95.1216 15.17C95.106 16.0337 95.2618 16.6937 95.589 17.15C95.9319 17.6063 96.4383 17.8344 97.1084 17.8344C97.1551 17.8344 97.1785 17.8833 97.1785 17.9811C97.1785 18.0788 97.1551 18.1277 97.1084 18.1277C96.6876 18.1277 96.3604 18.1196 96.1266 18.1033L94.8411 18.0788L93.462 18.1033C93.2283 18.1196 92.901 18.1277 92.4803 18.1277C92.4335 18.1277 92.4102 18.0788 92.4102 17.9811C92.4102 17.8833 92.4335 17.8344 92.4803 17.8344C93.1192 17.8344 93.61 17.6063 93.9529 17.15C94.3113 16.6937 94.4982 16.0337 94.5138 15.17L94.7476 3.41255ZM111.063 17.8344C111.094 17.8344 111.109 17.8833 111.109 17.9811C111.109 18.0788 111.094 18.1277 111.063 18.1277C110.548 18.1277 110.136 18.1196 109.824 18.1033L108.141 18.0788L106.505 18.1033C106.224 18.1196 105.827 18.1277 105.313 18.1277C105.282 18.1277 105.266 18.0788 105.266 17.9811C105.266 17.8833 105.282 17.8344 105.313 17.8344C105.827 17.8344 106.209 17.7937 106.458 17.7122C106.707 17.6144 106.871 17.4514 106.949 17.2233C107.027 16.9952 107.05 16.6367 107.019 16.1478L106.528 4.97695L107.557 3.29033L101.573 17.9566C101.542 18.0218 101.479 18.0544 101.386 18.0544C101.308 18.0544 101.238 18.0218 101.175 17.9566L94.8411 4.87918C94.5606 4.27623 94.2411 3.83624 93.8827 3.55921C93.5243 3.28218 93.1114 3.14367 92.6439 3.14367C92.5972 3.14367 92.5738 3.09478 92.5738 2.997C92.5738 2.89923 92.5972 2.85034 92.6439 2.85034L93.649 2.87478C93.8516 2.89108 94.1165 2.89923 94.4437 2.89923L95.5189 2.87478C95.6592 2.85849 95.8228 2.85034 96.0098 2.85034C96.2124 2.85034 96.376 2.93182 96.5006 3.09478C96.6253 3.24144 96.8201 3.58366 97.085 4.12142L102.344 14.9011L101.339 16.7589L106.879 3.46144C106.972 3.23329 107.074 3.07848 107.183 2.997C107.292 2.89923 107.424 2.85034 107.58 2.85034C107.689 2.85034 107.829 2.85849 108.001 2.87478C108.172 2.89108 108.382 2.89923 108.632 2.89923L109.894 2.87478C110.097 2.85849 110.393 2.85034 110.782 2.85034C110.829 2.85034 110.852 2.89923 110.852 2.997C110.852 3.09478 110.829 3.14367 110.782 3.14367C110.05 3.14367 109.512 3.29033 109.169 3.58366C108.842 3.86069 108.694 4.32512 108.725 4.97695L109.24 16.1478C109.271 16.653 109.333 17.0196 109.427 17.2478C109.52 17.4759 109.684 17.6307 109.917 17.7122C110.151 17.7937 110.533 17.8344 111.063 17.8344Z" fill="white"/>
<path d="M80.503 11.5277H87.0478L87.2114 12.1388H80.1992L80.503 11.5277ZM92.6342 17.8342C92.6965 17.8342 92.7277 17.8831 92.7277 17.9808C92.7277 18.0786 92.6965 18.1275 92.6342 18.1275C92.3381 18.1275 91.8629 18.1112 91.2084 18.0786C90.5539 18.046 90.0786 18.0297 89.7826 18.0297C89.393 18.0297 88.9333 18.046 88.4035 18.0786C87.8737 18.1112 87.4607 18.1275 87.1647 18.1275C87.1023 18.1275 87.0712 18.0786 87.0712 17.9808C87.0712 17.8831 87.1023 17.8342 87.1647 17.8342C87.6321 17.8342 87.9672 17.7853 88.1697 17.6875C88.3723 17.5735 88.4736 17.3942 88.4736 17.1498C88.4736 16.9053 88.3412 16.4898 88.0762 15.9031L83.191 5.5145L84.1494 3.87676L79.5213 14.7787C79.3187 15.2676 79.2174 15.7076 79.2174 16.0987C79.2174 16.669 79.4122 17.1009 79.8018 17.3942C80.1914 17.6875 80.7368 17.8342 81.438 17.8342C81.5159 17.8342 81.5549 17.8831 81.5549 17.9808C81.5549 18.0786 81.5159 18.1275 81.438 18.1275C81.1575 18.1275 80.7523 18.1112 80.2225 18.0786C79.6304 18.046 79.1162 18.0297 78.6798 18.0297C78.2591 18.0297 77.7682 18.046 77.2073 18.0786C76.7086 18.1112 76.2957 18.1275 75.9684 18.1275C75.8905 18.1275 75.8516 18.0786 75.8516 17.9808C75.8516 17.8831 75.8905 17.8342 75.9684 17.8342C76.4048 17.8342 76.7709 17.7446 77.067 17.5653C77.3631 17.386 77.6514 17.0683 77.9319 16.612C78.2124 16.1394 78.5474 15.4468 78.937 14.5343L83.9624 2.70346C83.9936 2.65457 84.0637 2.63013 84.1728 2.63013C84.2818 2.63013 84.3442 2.65457 84.3598 2.70346L90.0864 14.7787C90.6162 15.952 91.0603 16.7587 91.4188 17.1986C91.7927 17.6223 92.1979 17.8342 92.6342 17.8342Z" fill="white"/>
<path d="M75.1716 3.93353C75.6258 3.15446 75.853 2.4799 75.853 1.90986C75.853 1.07378 75.3533 0.655748 74.3539 0.655748C74.3176 0.655748 74.2994 0.598744 74.2994 0.484735C74.2994 0.370725 74.3176 0.313721 74.3539 0.313721L75.7712 0.342223C76.5343 0.380225 77.2339 0.399227 77.8698 0.399227C78.1787 0.399227 78.5512 0.380225 78.9873 0.342223L79.9957 0.313721C80.0321 0.313721 80.0503 0.370725 80.0503 0.484735C80.0503 0.598744 80.0321 0.655748 79.9957 0.655748C79.3961 0.655748 78.7148 0.988276 77.9516 1.65333C77.1885 2.29939 76.5071 3.13546 75.9075 4.16155L72.119 10.5746L71.5739 10.1185L75.1716 3.93353ZM66.0411 3.33497C65.4233 2.32789 64.8873 1.63433 64.4331 1.2543C63.997 0.855265 63.57 0.655748 63.1521 0.655748C63.0976 0.655748 63.0703 0.598744 63.0703 0.484735C63.0703 0.370725 63.0976 0.313721 63.1521 0.313721L64.0515 0.342223C64.4512 0.380225 64.742 0.399227 64.9237 0.399227C65.5233 0.399227 66.3864 0.380225 67.5129 0.342223L69.23 0.313721C69.2663 0.313721 69.2845 0.370725 69.2845 0.484735C69.2845 0.598744 69.2663 0.655748 69.23 0.655748C68.4668 0.655748 68.0853 0.91227 68.0853 1.42531C68.0853 1.65333 68.2034 1.96686 68.4396 2.36589L72.6096 9.06396L70.4292 10.3466L66.0411 3.33497ZM72.8004 9.03546V15.819C72.8004 16.4081 72.8458 16.8356 72.9367 17.1016C73.0275 17.3677 73.2092 17.5482 73.4818 17.6432C73.7725 17.7382 74.2267 17.7857 74.8445 17.7857C74.899 17.7857 74.9263 17.8427 74.9263 17.9567C74.9263 18.0707 74.899 18.1277 74.8445 18.1277C74.2631 18.1277 73.8088 18.1182 73.4818 18.0992L71.4921 18.0707L69.5298 18.0992C69.1664 18.1182 68.6849 18.1277 68.0853 18.1277C68.0489 18.1277 68.0307 18.0707 68.0307 17.9567C68.0307 17.8427 68.0489 17.7857 68.0853 17.7857C68.703 17.7857 69.1573 17.7382 69.448 17.6432C69.7387 17.5482 69.9386 17.3677 70.0476 17.1016C70.1566 16.8166 70.2112 16.3891 70.2112 15.819V9.29198L72.8004 9.03546Z" fill="white"/>
<path d="M51.0338 16.1478C51.0338 16.653 51.0727 17.0196 51.1506 17.2478C51.2441 17.4759 51.4078 17.6307 51.6415 17.7122C51.8908 17.7937 52.2804 17.8344 52.8102 17.8344C52.857 17.8344 52.8803 17.8833 52.8803 17.9811C52.8803 18.0788 52.857 18.1277 52.8102 18.1277C52.3116 18.1277 51.9142 18.1196 51.6181 18.1033L49.8884 18.0788L48.2055 18.1033C47.9094 18.1196 47.5043 18.1277 46.99 18.1277C46.9433 18.1277 46.9199 18.0788 46.9199 17.9811C46.9199 17.8833 46.9433 17.8344 46.99 17.8344C47.5199 17.8344 47.9016 17.7937 48.1354 17.7122C48.3847 17.6307 48.5561 17.4759 48.6496 17.2478C48.7431 17.0033 48.7899 16.6367 48.7899 16.1478V4.83029C48.7899 4.34141 48.7431 3.9829 48.6496 3.75476C48.5561 3.52662 48.3847 3.37181 48.1354 3.29033C47.9016 3.19255 47.5199 3.14367 46.99 3.14367C46.9433 3.14367 46.9199 3.09478 46.9199 2.997C46.9199 2.89923 46.9433 2.85034 46.99 2.85034L48.2055 2.87478C48.8911 2.90738 49.4521 2.92367 49.8884 2.92367C50.3715 2.92367 50.9559 2.90738 51.6415 2.87478L52.8102 2.85034C52.857 2.85034 52.8803 2.89923 52.8803 2.997C52.8803 3.09478 52.857 3.14367 52.8102 3.14367C52.296 3.14367 51.9142 3.19255 51.6649 3.29033C51.4156 3.3881 51.2441 3.55921 51.1506 3.80365C51.0727 4.03179 51.0338 4.3903 51.0338 4.87918V16.1478Z" fill="white"/>
<path d="M43.8219 18.1276C43.4479 18.1276 42.7545 17.4431 41.7416 16.0743C40.7443 14.7054 39.5289 12.7988 38.0952 10.3544L40.4904 9.76779C41.7993 11.8048 42.3649 13.4018 43.2376 14.5588C44.1258 15.6995 44.9127 16.5306 45.5983 17.052C46.284 17.5735 46.9462 17.8343 47.5851 17.8343C47.6163 17.8343 47.6319 17.8831 47.6319 17.9809C47.6319 18.0787 47.6163 18.1276 47.5851 18.1276H43.8219ZM38.516 2.77686C39.8561 2.77686 42.1256 3.06203 42.8736 3.63239C43.6216 4.18645 43.9956 4.95236 43.9956 5.93011C43.9956 6.84268 43.7462 7.66562 43.2476 8.39893C42.7489 9.13225 42.0867 9.71075 41.2608 10.1344C40.4505 10.5418 38.3679 10.7455 37.4641 10.7455C37.1369 10.7455 36.7395 10.7292 36.2721 10.6967V16.1476C36.2721 16.6528 36.311 17.0195 36.3889 17.2476C36.4668 17.4757 36.6227 17.6305 36.8564 17.712C37.1057 17.7935 37.5031 17.8343 38.0485 17.8343C38.0797 17.8343 38.0952 17.8831 38.0952 17.9809C38.0952 18.0787 38.0797 18.1276 38.0485 18.1276C37.5343 18.1276 37.1291 18.1194 36.833 18.1031L35.1267 18.0787L33.4438 18.1031C33.1477 18.1194 32.7426 18.1276 32.2283 18.1276C32.1816 18.1276 32.1582 18.0787 32.1582 17.9809C32.1582 17.8831 32.1816 17.8343 32.2283 17.8343C32.7581 17.8343 33.1399 17.7935 33.3737 17.712C33.623 17.6305 33.7944 17.4757 33.8879 17.2476C33.9814 17.0032 34.0281 16.6365 34.0281 16.1476V4.83014C34.0281 4.34126 33.9814 3.98275 33.8879 3.75461C33.81 3.52647 33.6464 3.37165 33.397 3.29018C33.1477 3.1924 32.7659 3.14351 32.2517 3.14351C32.2205 3.14351 32.205 3.09462 32.205 2.99685C32.205 2.89907 32.2205 2.85019 32.2517 2.85019L33.4672 2.87463C34.1528 2.90722 34.706 2.92352 35.1267 2.92352C35.641 2.92352 36.2019 2.89908 36.8097 2.85019C37.0122 2.83389 37.2538 2.81759 37.5343 2.8013C37.8303 2.785 38.1576 2.77686 38.516 2.77686ZM41.6815 6.78564C41.6815 5.46568 41.4634 4.54496 41.027 4.02349C40.6063 3.50202 38.7653 3.24129 37.955 3.24129C37.3317 3.24129 36.8954 3.36351 36.646 3.60794C36.3967 3.83609 36.2721 4.25978 36.2721 4.87902V10.0367C36.646 10.1019 37.0979 10.1344 37.6278 10.1344C38.6406 10.1344 40.5907 9.87371 41.027 9.35224C41.4634 8.81448 41.6815 7.95895 41.6815 6.78564Z" fill="white"/>
<path d="M26.3673 4.87918C26.3673 4.3903 26.3205 4.03179 26.227 3.80365C26.1335 3.55921 25.9465 3.3881 25.666 3.29033C25.3855 3.19255 24.957 3.14367 24.3805 3.14367C24.3337 3.14367 24.3103 3.09478 24.3103 2.997C24.3103 2.89923 24.3337 2.85034 24.3805 2.85034L25.5024 2.87478C26.2504 2.90738 26.9127 2.92367 27.4892 2.92367C27.91 2.92367 28.4787 2.90738 29.1955 2.87478L30.4811 2.85034C30.5279 2.85034 30.5512 2.89923 30.5512 2.997C30.5512 3.09478 30.5279 3.14367 30.4811 3.14367C29.9201 3.14367 29.5072 3.19255 29.2423 3.29033C28.9774 3.37181 28.7982 3.52662 28.7047 3.75476C28.6112 3.9829 28.5644 4.34141 28.5644 4.83029V16.1478C28.5644 16.6367 28.6112 17.0033 28.7047 17.2478C28.7982 17.4759 28.9774 17.6307 29.2423 17.7122C29.5072 17.7937 29.9201 17.8344 30.4811 17.8344C30.5279 17.8344 30.5512 17.8833 30.5512 17.9811C30.5512 18.0788 30.5279 18.1277 30.4811 18.1277C29.9513 18.1277 29.5228 18.1196 29.1955 18.1033L27.4892 18.0788L25.5024 18.1033C25.2219 18.1196 24.8479 18.1277 24.3805 18.1277C24.3337 18.1277 24.3103 18.0788 24.3103 17.9811C24.3103 17.8833 24.3337 17.8344 24.3805 17.8344C24.9726 17.8344 25.4011 17.7937 25.666 17.7122C25.9465 17.6307 26.1335 17.4759 26.227 17.2478C26.3205 17.0033 26.3673 16.6367 26.3673 16.1478V4.87918ZM17.1345 9.86572H27.3723V10.5013H17.1345V9.86572ZM16.106 4.83029C16.106 4.34141 16.0593 3.9829 15.9658 3.75476C15.8723 3.52662 15.6931 3.37181 15.4282 3.29033C15.1633 3.19255 14.7581 3.14367 14.2127 3.14367C14.1815 3.14367 14.166 3.09478 14.166 2.997C14.166 2.89923 14.1815 2.85034 14.2127 2.85034L15.4515 2.87478C16.1683 2.90738 16.7293 2.92367 17.1345 2.92367C17.6799 2.92367 18.3266 2.90738 19.0745 2.87478L20.29 2.85034C20.3211 2.85034 20.3367 2.89923 20.3367 2.997C20.3367 3.09478 20.3211 3.14367 20.29 3.14367C19.729 3.14367 19.3083 3.19255 19.0278 3.29033C18.7629 3.3881 18.5759 3.55921 18.4668 3.80365C18.3733 4.03179 18.3266 4.3903 18.3266 4.87918V16.1478C18.3266 16.6367 18.3733 17.0033 18.4668 17.2478C18.5603 17.4759 18.7395 17.6307 19.0044 17.7122C19.2849 17.7937 19.7134 17.8344 20.29 17.8344C20.3211 17.8344 20.3367 17.8833 20.3367 17.9811C20.3367 18.0788 20.3211 18.1277 20.29 18.1277C19.7602 18.1277 19.3472 18.1196 19.0512 18.1033L17.1345 18.0788L15.4282 18.1033C15.1321 18.1196 14.7191 18.1277 14.1893 18.1277C14.1582 18.1277 14.1426 18.0788 14.1426 17.9811C14.1426 17.8833 14.1582 17.8344 14.1893 17.8344C14.7503 17.8344 15.1633 17.7937 15.4282 17.7122C15.6931 17.6307 15.8723 17.4759 15.9658 17.2478C16.0593 17.0033 16.106 16.6367 16.106 16.1478V4.83029Z" fill="white"/>
<path d="M2.89057 3.33478C2.89057 4.03784 3.07908 4.6649 3.45612 5.21594C3.85409 5.74799 4.33585 6.21353 4.9014 6.61256C5.46695 6.99259 6.24195 7.46763 7.22642 8.03768C8.29468 8.64573 9.13252 9.16827 9.73996 9.60531C10.3683 10.0423 10.9025 10.5839 11.3423 11.2299C11.7822 11.857 12.0021 12.5981 12.0021 13.4531C12.0021 14.4222 11.7194 15.2868 11.1538 16.0469C10.6092 16.8069 9.82375 17.4055 8.79739 17.8425C7.79197 18.2605 6.63993 18.4696 5.34127 18.4696C4.46153 18.4696 3.55037 18.3651 2.6078 18.156C1.68617 17.947 0.984469 17.6905 0.502708 17.3865C0.314192 17.2725 0.209461 17.0919 0.188515 16.8449L0 12.5411V12.5126C0 12.4366 0.0523655 12.3985 0.157096 12.3985C0.261827 12.3795 0.324665 12.4081 0.345612 12.4841C1.03683 14.0422 1.82232 15.3248 2.70205 16.3319C3.60274 17.339 4.73383 17.8425 6.09533 17.8425C7.01696 17.8425 7.7815 17.624 8.38893 17.187C8.99637 16.7309 9.30009 15.9804 9.30009 14.9353C9.30009 14.0992 9.09063 13.3676 8.67171 12.7406C8.27373 12.1135 7.77102 11.591 7.16359 11.1729C6.57709 10.7549 5.77067 10.2419 4.7443 9.63382C3.73889 9.04477 2.95341 8.55072 2.38786 8.15169C1.82232 7.73365 1.34055 7.23011 0.942577 6.64106C0.5446 6.03301 0.345612 5.32995 0.345612 4.53188C0.345612 3.5438 0.649331 2.70773 1.25677 2.02367C1.86421 1.33961 2.64969 0.836071 3.61321 0.513044C4.59768 0.171015 5.62404 0 6.6923 0C7.38352 0 8.08522 0.0665061 8.79739 0.199518C9.50955 0.313527 10.117 0.46554 10.6197 0.655556C10.9339 0.769565 11.091 0.95008 11.091 1.1971L11.1538 5.04493C11.1538 5.12093 11.1015 5.16844 10.9967 5.18744C10.9129 5.20644 10.8501 5.18744 10.8082 5.13043C10.3893 3.97134 9.82375 2.92625 9.11158 1.99517C8.42035 1.04509 7.37305 0.570048 5.96965 0.570048C5.02708 0.570048 4.27302 0.826569 3.70747 1.33961C3.16287 1.83366 2.89057 2.49871 2.89057 3.33478Z" fill="white"/>
<path d="M17.3848 29.5316C13.0634 29.8183 6.37944 29.5732 3.9375 29.2745C6.37943 29.7924 13.9324 31.2741 19.5563 31.2263C26.5861 31.1665 39.4029 28.3575 42.9234 28.0498C48.9661 27.5216 54.3187 27.3658 58.1142 27.3536C53.5664 26.637 51.9645 25.9354 44.5291 26.0124C40.6283 26.0528 34.1031 27.3448 30.9952 27.8029C27.9613 28.261 21.7063 29.2448 17.3848 29.5316Z" fill="white"/>
<path d="M24.8047 32.2037C27.3575 32.2037 35.0765 31.9869 39.6129 31.3975C45.2834 30.6608 56.0944 28.6346 66.8027 28.456C77.511 28.2773 82.8481 30.4049 90.9015 30.3335C96.5771 30.2831 99.3985 30.0251 100.173 29.7729C100.254 29.7353 100.323 29.7013 100.377 29.6715C100.345 29.7049 100.278 29.7388 100.173 29.7729C98.6635 30.4684 92.5416 32.3911 85.0055 31.7893C73.2786 30.8528 67.3529 29.84 51.2765 32.2057C36.2703 34.4139 28.1961 32.7013 24.8047 32.2037Z" fill="white"/>
<path d="M110.474 26.4801V33.0676H109.481V26.4801H110.474ZM122.221 26.4801V33.0676H121.307L117.959 28.2363H117.898V33.0676H116.904V26.4801H117.824L121.175 31.3178H121.236V26.4801H122.221ZM128.652 33.0676V26.4801H132.737V27.3357H129.646V29.3428H132.445V30.1952H129.646V33.0676H128.652ZM138.942 33.0676V26.4801H141.29C141.8 26.4801 142.223 26.568 142.56 26.7439C142.899 26.9197 143.152 27.1631 143.319 27.474C143.487 27.7828 143.57 28.1399 143.57 28.5451C143.57 28.9483 143.485 29.3032 143.316 29.6098C143.149 29.9143 142.896 30.1513 142.557 30.3207C142.22 30.4901 141.797 30.5748 141.286 30.5748H139.508V29.7192H141.196C141.518 29.7192 141.78 29.6731 141.981 29.5809C142.185 29.4887 142.334 29.3546 142.428 29.1788C142.523 29.003 142.57 28.7917 142.57 28.5451C142.57 28.2964 142.522 28.0809 142.425 27.8986C142.331 27.7163 142.182 27.577 141.978 27.4805C141.776 27.3818 141.512 27.3325 141.183 27.3325H139.935V33.0676H138.942ZM142.193 30.0955L143.821 33.0676H142.689L141.093 30.0955H142.193ZM150.318 33.0676H149.263L151.633 26.4801H152.782L155.152 33.0676H154.097L152.235 27.6767H152.183L150.318 33.0676ZM150.495 30.4879H153.917V31.3242H150.495V30.4879Z" fill="white"/>
</svg>
