<svg xmlns="http://www.w3.org/2000/svg" width="160" height="36" fill="none" viewBox="0 0 160 36"><path fill="#fff" d="M147.495 11.528h6.545l.164.61h-7.013zm12.131 6.306q.094 0 .094.147 0 .146-.094.146-.444 0-1.425-.048a32 32 0 0 0-1.426-.05q-.585 0-1.379.05-.795.048-1.239.049-.094 0-.094-.147t.094-.147q.7 0 1.005-.146a.57.57 0 0 0 .304-.538q0-.367-.398-1.247l-4.885-10.388.959-1.638-4.629 10.902q-.303.733-.303 1.32 0 .855.584 1.295.585.44 1.636.44.117 0 .117.147 0 .146-.117.146-.42 0-1.215-.048a29 29 0 0 0-1.543-.05q-.631 0-1.473.05-.747.048-1.238.049-.117 0-.117-.147t.117-.147q.654 0 1.098-.269t.865-.953q.422-.709 1.005-2.078l5.026-11.83q.047-.074.21-.074t.187.073l5.727 12.076q.794 1.76 1.332 2.42.561.635 1.215.635M129.877 3.413l.631.048V15.17q0 1.296.467 1.98.491.684 1.426.684.07 0 .07.147t-.07.147q-.608 0-.935-.025l-1.239-.024-1.379.024a18 18 0 0 1-1.075.025q-.07 0-.07-.147t.07-.147q1.005 0 1.543-.684.561-.684.561-1.98zm11.874 15.057q0 .073-.117.098-.117.024-.164-.025L130.227 4.855q-.795-.954-1.402-1.32-.608-.391-1.192-.391-.07 0-.071-.147t.071-.147l.935.025q.28.024.841.024l1.496-.024q.28-.025.654-.025.188 0 .281.098t.28.391q.397.563.585.782l8.859 10.902zm0 0-.631-.733V5.832q0-1.294-.491-1.98-.468-.708-1.403-.708-.047 0-.047-.147t.047-.147l.959.025q.747.049 1.238.049.444 0 1.286-.05l.982-.024q.07 0 .07.147t-.07.147q-.936 0-1.45.709-.49.684-.49 1.98zM124.262 5.832q0-1.27-.561-1.98-.537-.708-1.566-.708-.046 0-.046-.147t.046-.147l1.076.025a27 27 0 0 0 1.402.049q.421 0 1.262-.05l1.029-.024q.047 0 .047.147t-.047.147q-.912 0-1.426.709-.49.708-.491 1.98v6.844q0 1.76-.725 3.08a4.87 4.87 0 0 1-2.01 2.004q-1.285.71-2.992.709-1.706 0-3.038-.684a5.15 5.15 0 0 1-2.081-2.005q-.724-1.32-.724-3.08v-7.87q0-.734-.14-1.076a.79.79 0 0 0-.515-.465q-.35-.146-1.122-.146-.07 0-.07-.147t.07-.147l1.216.025q1.029.049 1.659.049.702 0 1.73-.05l1.169-.024q.07 0 .07.147t-.07.147q-.771 0-1.145.146a.86.86 0 0 0-.515.514q-.117.342-.117 1.075v6.967q0 2.91 1.146 4.35 1.168 1.419 3.249 1.418 1.986 0 3.109-1.27 1.12-1.296 1.121-3.643zM94.748 3.413l.63.048-.256 11.709q-.024 1.296.467 1.98.515.684 1.52.684.07 0 .07.147t-.07.147q-.632 0-.982-.025l-1.286-.024-1.379.024q-.35.025-.982.025-.07 0-.07-.147t.07-.147q.96 0 1.473-.684.537-.684.56-1.98zm16.315 14.421q.046 0 .046.147t-.046.147q-.772 0-1.239-.025l-1.683-.024-1.636.024q-.421.025-1.192.025-.047 0-.047-.147t.047-.147q.771 0 1.145-.122.374-.146.491-.489t.07-1.075l-.491-11.171 1.029-1.687-5.984 14.667q-.047.097-.187.097a.3.3 0 0 1-.211-.097L94.841 4.879q-.42-.904-.958-1.32a1.97 1.97 0 0 0-1.24-.415q-.07 0-.07-.147t.07-.147l1.006.025q.305.024.795.024l1.075-.024q.21-.025.49-.025.305 0 .492.245.187.22.584 1.026l5.259 10.78-1.005 1.858 5.54-13.298q.14-.342.304-.464a.57.57 0 0 1 .397-.147q.163 0 .421.025.256.024.631.024l1.262-.024q.304-.025.888-.025.07 0 .07.147t-.07.147q-1.098 0-1.613.44-.49.415-.444 1.393l.515 11.17q.046.76.187 1.1a.79.79 0 0 0 .49.465q.351.123 1.146.122"/><path fill="#fff" d="M80.503 11.528h6.545l.163.61H80.2zm12.131 6.306q.094 0 .094.147 0 .146-.094.146-.444 0-1.426-.048a32 32 0 0 0-1.425-.05q-.585 0-1.38.05a22 22 0 0 1-1.238.049q-.094 0-.094-.147t.094-.147q.7 0 1.005-.146a.57.57 0 0 0 .304-.538q0-.367-.398-1.247L83.191 5.515l.958-1.638-4.628 10.902q-.303.733-.304 1.32 0 .855.585 1.295t1.636.44q.117 0 .117.147 0 .146-.117.146-.42 0-1.216-.048a29 29 0 0 0-1.542-.05q-.63 0-1.473.05-.747.048-1.239.049-.117 0-.116-.147 0-.147.116-.147.655 0 1.099-.269t.865-.953q.42-.709 1.005-2.078l5.025-11.83q.048-.074.21-.074.164 0 .188.073l5.726 12.076q.795 1.76 1.333 2.42.561.635 1.215.635m-17.462-13.9q.681-1.17.681-2.024 0-1.254-1.5-1.254-.053 0-.054-.171 0-.171.055-.171l1.417.028Q76.916.4 77.87.4q.463 0 1.117-.057l1.009-.028q.054 0 .054.17 0 .172-.054.172-.9 0-2.044.997-1.145.969-2.044 2.509l-3.789 6.413-.545-.457zm-9.13-.599q-.928-1.51-1.609-2.08-.654-.6-1.28-.6-.083 0-.083-.17 0-.171.082-.171l.9.028q.6.057.872.057.9 0 2.589-.057L69.23.314q.054 0 .054.17 0 .172-.054.172-1.145 0-1.145.77 0 .34.355.94l4.17 6.698-2.18 1.283zm6.758 5.7v6.784q0 .885.137 1.283.135.399.545.541.436.143 1.362.143.082 0 .082.17 0 .172-.082.172-.87 0-1.362-.029l-1.99-.028-1.962.028q-.546.03-1.445.029-.054 0-.054-.171t.054-.171q.927 0 1.363-.143a.92.92 0 0 0 .6-.541q.163-.428.163-1.283V9.292zm-21.766 7.113q0 .758.117 1.1a.79.79 0 0 0 .49.464q.375.123 1.17.122.07 0 .07.147t-.07.147q-.75 0-1.193-.025l-1.73-.024-1.682.024q-.445.025-1.216.025-.07 0-.07-.147t.07-.147q.795 0 1.145-.122a.79.79 0 0 0 .515-.464q.14-.367.14-1.1V4.83q0-.733-.14-1.075a.79.79 0 0 0-.515-.465q-.35-.146-1.145-.146-.07 0-.07-.147t.07-.147l1.215.025q1.029.049 1.683.049.725 0 1.754-.05l1.168-.024q.07 0 .07.147t-.07.147q-.771 0-1.145.146a.86.86 0 0 0-.514.514q-.117.342-.117 1.075z"/><path fill="#fff" d="M43.822 18.128q-.561 0-2.08-2.054-1.496-2.053-3.647-5.72l2.395-.586c1.31 2.037 1.875 3.634 2.748 4.79q1.332 1.713 2.36 2.494 1.029.782 1.987.782.047 0 .047.147t-.047.147zM38.516 2.777c1.34 0 3.61.285 4.358.855q1.122.831 1.122 2.298a4.3 4.3 0 0 1-.748 2.469 5.26 5.26 0 0 1-1.987 1.735c-.81.408-2.893.611-3.797.611q-.49 0-1.192-.048v5.45q0 .76.117 1.1a.72.72 0 0 0 .467.465q.375.122 1.192.122.047 0 .047.147t-.047.147q-.771 0-1.215-.025l-1.706-.024-1.683.024q-.444.024-1.216.025-.07 0-.07-.147t.07-.147q.795 0 1.146-.122a.79.79 0 0 0 .514-.464q.14-.367.14-1.1V4.83q0-.733-.14-1.075-.117-.343-.491-.465-.374-.147-1.145-.146-.047 0-.047-.147t.047-.147l1.215.025q1.029.049 1.66.049.771 0 1.683-.074.304-.024.724-.049.445-.024.982-.024m3.166 4.009q0-1.98-.655-2.763c-.42-.521-2.262-.782-3.072-.782q-.935 0-1.309.367-.374.342-.374 1.271v5.158q.561.097 1.356.097c1.013 0 2.963-.26 3.399-.782q.654-.807.654-2.566M26.367 4.88q0-.734-.14-1.076-.14-.367-.561-.514-.42-.146-1.285-.146-.07 0-.07-.147t.07-.147l1.121.025q1.122.049 1.987.049.632 0 1.706-.05l1.286-.024q.07 0 .07.147t-.07.147q-.84 0-1.239.146-.398.123-.537.465-.14.342-.14 1.075v11.318q0 .733.14 1.1.14.342.537.464.397.123 1.24.122.07 0 .07.147t-.07.147q-.796 0-1.287-.025l-1.706-.024-1.987.024a20 20 0 0 1-1.121.025q-.07 0-.07-.147t.07-.147q.888 0 1.285-.122.42-.122.561-.464.14-.367.14-1.1zm-9.233 4.986h10.238v.635H17.135zM16.107 4.83q0-.733-.14-1.075t-.538-.465q-.398-.146-1.215-.146-.047 0-.047-.147t.047-.147l1.239.025q1.074.049 1.682.049.82 0 1.94-.05l1.216-.024q.047 0 .047.147t-.047.147q-.842 0-1.262.146a.94.94 0 0 0-.561.514q-.14.342-.14 1.075v11.269q0 .733.14 1.1.14.342.537.464.421.123 1.286.122.047 0 .047.147t-.047.147a24 24 0 0 1-1.239-.025l-1.916-.024-1.707.024q-.444.025-1.239.025-.045 0-.046-.147 0-.147.046-.147.841 0 1.24-.122.396-.122.537-.464.14-.367.14-1.1zM2.89 3.335q.001 1.055.566 1.88.597.8 1.445 1.398.849.57 2.325 1.425Q8.83 8.95 9.74 9.605a6.2 6.2 0 0 1 1.602 1.625q.66.94.66 2.223 0 1.455-.848 2.594-.817 1.14-2.357 1.796-1.508.627-3.456.627-1.32 0-2.733-.314-1.383-.313-2.105-.77-.284-.17-.314-.541L0 12.54v-.028q0-.114.157-.114.158-.029.189.085 1.035 2.336 2.356 3.848 1.35 1.51 3.393 1.51 1.383 0 2.294-.655.91-.684.911-2.252 0-1.254-.628-2.194a5.4 5.4 0 0 0-1.508-1.568q-.88-.627-2.42-1.54-1.507-.882-2.356-1.481a6.1 6.1 0 0 1-1.445-1.51q-.597-.913-.597-2.11 0-1.482.91-2.508Q2.169.998 3.614.513A9.3 9.3 0 0 1 6.693 0q1.036 0 2.104.2 1.069.17 1.823.456.471.17.471.541l.063 3.848q0 .114-.157.142-.126.03-.189-.057a11.6 11.6 0 0 0-1.696-3.135Q8.074.57 5.97.57q-1.414 0-2.263.77-.816.741-.816 1.995m14.494 26.197c-4.322.286-11.006.041-13.448-.258 2.442.518 9.995 2 15.62 1.952 7.03-.06 19.846-2.868 23.366-3.176a185 185 0 0 1 15.191-.696c-4.548-.717-6.15-1.419-13.585-1.342-3.9.04-10.426 1.333-13.534 1.79-3.034.459-9.289 1.443-13.61 1.73m7.42 2.672c2.553 0 10.272-.217 14.808-.806 5.67-.737 16.481-2.763 27.19-2.942s16.045 1.949 24.099 1.878c5.675-.05 8.496-.309 9.271-.561a3 3 0 0 0 .204-.101.5.5 0 0 1-.204.1c-1.51.696-7.631 2.62-15.168 2.017-11.726-.936-17.652-1.949-33.728.417-15.007 2.208-23.08.495-26.472-.002m85.669-5.724v6.588h-.993V26.48zm11.747 0v6.588h-.914l-3.348-4.832h-.061v4.832h-.994V26.48h.92l3.351 4.838h.061V26.48zm6.431 6.588V26.48h4.085v.856h-3.091v2.007h2.799v.852h-2.799v2.873zm10.29 0V26.48h2.348q.765 0 1.27.264.509.265.759.73.252.463.251 1.071 0 .604-.254 1.065-.25.456-.759.71-.505.255-1.271.255h-1.778v-.856h1.688q.483 0 .785-.138a.9.9 0 0 0 .447-.402q.142-.264.142-.634 0-.373-.145-.646a.93.93 0 0 0-.447-.419q-.302-.147-.795-.148h-1.248v5.736zm3.251-2.972 1.628 2.972h-1.132l-1.596-2.972zm8.125 2.972h-1.055l2.37-6.588h1.149l2.37 6.588h-1.055l-1.862-5.391h-.052zm.177-2.58h3.422v.836h-3.422z"/></svg>