<svg width="232" height="52" viewBox="0 0 232 52" fill="none" xmlns="http://www.w3.org/2000/svg">
<path d="M213.807 16.7103H223.294L223.532 17.5961H213.367L213.807 16.7103ZM231.392 25.8521C231.483 25.8521 231.528 25.923 231.528 26.0647C231.528 26.2064 231.483 26.2773 231.392 26.2773C230.963 26.2773 230.274 26.2537 229.326 26.2064C228.377 26.1592 227.688 26.1356 227.259 26.1356C226.694 26.1356 226.028 26.1592 225.26 26.2064C224.492 26.2537 223.893 26.2773 223.464 26.2773C223.373 26.2773 223.328 26.2064 223.328 26.0647C223.328 25.923 223.373 25.8521 223.464 25.8521C224.141 25.8521 224.627 25.7812 224.921 25.6395C225.214 25.4742 225.361 25.2143 225.361 24.86C225.361 24.5056 225.169 23.9033 224.785 23.0529L217.704 7.99365L219.093 5.61961L212.384 21.4229C212.09 22.1316 211.944 22.7694 211.944 23.3363C211.944 24.1631 212.226 24.7891 212.791 25.2143C213.355 25.6395 214.146 25.8521 215.162 25.8521C215.275 25.8521 215.332 25.923 215.332 26.0647C215.332 26.2064 215.275 26.2773 215.162 26.2773C214.756 26.2773 214.169 26.2537 213.401 26.2064C212.542 26.1592 211.797 26.1356 211.164 26.1356C210.554 26.1356 209.843 26.1592 209.03 26.2064C208.307 26.2537 207.708 26.2773 207.234 26.2773C207.121 26.2773 207.064 26.2064 207.064 26.0647C207.064 25.923 207.121 25.8521 207.234 25.8521C207.866 25.8521 208.397 25.7222 208.826 25.4623C209.256 25.2025 209.673 24.7419 210.08 24.0804C210.487 23.3954 210.972 22.3914 211.537 21.0686L218.822 3.9188C218.867 3.84793 218.969 3.8125 219.127 3.8125C219.285 3.8125 219.375 3.84793 219.398 3.9188L227.699 21.4229C228.467 23.1237 229.111 24.293 229.63 24.9308C230.173 25.545 230.76 25.8521 231.392 25.8521Z" fill="white"/>
<path d="M188.267 4.94583L189.181 5.01669V21.9893C189.181 23.2413 189.407 24.198 189.859 24.8594C190.333 25.5209 191.022 25.8516 191.926 25.8516C191.994 25.8516 192.028 25.9224 192.028 26.0642C192.028 26.2059 191.994 26.2768 191.926 26.2768C191.339 26.2768 190.887 26.265 190.571 26.2413L188.775 26.2059L186.776 26.2413C186.414 26.265 185.895 26.2768 185.217 26.2768C185.149 26.2768 185.115 26.2059 185.115 26.0642C185.115 25.9224 185.149 25.8516 185.217 25.8516C186.188 25.8516 186.934 25.5209 187.453 24.8594C187.995 24.198 188.267 23.2413 188.267 21.9893V4.94583ZM205.479 26.7728C205.479 26.8437 205.423 26.8909 205.31 26.9146C205.197 26.9382 205.118 26.9264 205.072 26.8791L188.775 7.0364C188.007 6.11513 187.329 5.47733 186.742 5.123C186.154 4.74504 185.578 4.55606 185.014 4.55606C184.946 4.55606 184.912 4.48519 184.912 4.34346C184.912 4.20173 184.946 4.13086 185.014 4.13086L186.369 4.16629C186.64 4.18991 187.047 4.20172 187.589 4.20172L189.757 4.16629C190.028 4.14267 190.345 4.13086 190.706 4.13086C190.887 4.13086 191.022 4.1781 191.113 4.27259C191.203 4.36708 191.339 4.55606 191.519 4.83953C191.903 5.38284 192.186 5.7608 192.366 5.9734L205.208 21.7767L205.479 26.7728ZM205.479 26.7728L204.564 25.7098V8.45374C204.564 7.20176 204.327 6.24505 203.853 5.58363C203.401 4.89858 202.723 4.55606 201.82 4.55606C201.774 4.55606 201.752 4.48519 201.752 4.34346C201.752 4.20173 201.774 4.13086 201.82 4.13086L203.209 4.16629C203.932 4.21354 204.53 4.23716 205.005 4.23716C205.434 4.23716 206.055 4.21354 206.868 4.16629L208.291 4.13086C208.359 4.13086 208.393 4.20173 208.393 4.34346C208.393 4.48519 208.359 4.55606 208.291 4.55606C207.388 4.55606 206.688 4.89858 206.191 5.58363C205.716 6.24505 205.479 7.20176 205.479 8.45374V26.7728Z" fill="white"/>
<path d="M180.129 8.45374C180.129 7.22538 179.858 6.26868 179.316 5.58363C178.796 4.89858 178.039 4.55606 177.046 4.55606C177 4.55606 176.978 4.48519 176.978 4.34346C176.978 4.20173 177 4.13086 177.046 4.13086L178.604 4.16629C179.463 4.21354 180.14 4.23716 180.637 4.23716C181.044 4.23716 181.654 4.21354 182.467 4.16629L183.958 4.13086C184.003 4.13086 184.025 4.20173 184.025 4.34346C184.025 4.48519 184.003 4.55606 183.958 4.55606C183.077 4.55606 182.388 4.89858 181.891 5.58363C181.416 6.26868 181.179 7.22538 181.179 8.45374V18.3751C181.179 20.0759 180.829 21.5641 180.129 22.8397C179.451 24.0917 178.48 25.0602 177.215 25.7453C175.973 26.4303 174.527 26.7728 172.878 26.7728C171.229 26.7728 169.761 26.4421 168.473 25.7807C167.186 25.0957 166.18 24.1271 165.458 22.8752C164.757 21.5996 164.407 20.1113 164.407 18.4105V7.00097C164.407 6.2923 164.339 5.77261 164.204 5.4419C164.068 5.11118 163.82 4.88677 163.459 4.76866C163.12 4.62693 162.578 4.55606 161.832 4.55606C161.764 4.55606 161.73 4.48519 161.73 4.34346C161.73 4.20173 161.764 4.13086 161.832 4.13086L163.594 4.16629C164.588 4.21354 165.39 4.23716 166 4.23716C166.677 4.23716 167.513 4.21354 168.507 4.16629L170.201 4.13086C170.269 4.13086 170.303 4.20173 170.303 4.34346C170.303 4.48519 170.269 4.55606 170.201 4.55606C169.456 4.55606 168.902 4.62693 168.541 4.76866C168.18 4.91039 167.931 5.15843 167.796 5.51276C167.683 5.84347 167.626 6.36317 167.626 7.07183V17.1704C167.626 19.9814 168.18 22.0838 169.286 23.4775C170.416 24.8476 171.986 25.5327 173.996 25.5327C175.916 25.5327 177.418 24.9185 178.502 23.6901C179.587 22.4381 180.129 20.6783 180.129 18.4105V8.45374Z" fill="white"/>
<path d="M137.345 4.94583L138.26 5.01669L137.887 21.9893C137.865 23.2413 138.091 24.198 138.565 24.8594C139.062 25.5209 139.796 25.8516 140.767 25.8516C140.835 25.8516 140.869 25.9224 140.869 26.0642C140.869 26.2059 140.835 26.2768 140.767 26.2768C140.158 26.2768 139.683 26.265 139.344 26.2413L137.481 26.2059L135.482 26.2413C135.143 26.265 134.669 26.2768 134.059 26.2768C133.991 26.2768 133.957 26.2059 133.957 26.0642C133.957 25.9224 133.991 25.8516 134.059 25.8516C134.985 25.8516 135.696 25.5209 136.193 24.8594C136.713 24.198 136.984 23.2413 137.006 21.9893L137.345 4.94583ZM160.996 25.8516C161.041 25.8516 161.063 25.9224 161.063 26.0642C161.063 26.2059 161.041 26.2768 160.996 26.2768C160.25 26.2768 159.652 26.265 159.2 26.2413L156.76 26.2059L154.388 26.2413C153.982 26.265 153.406 26.2768 152.66 26.2768C152.615 26.2768 152.593 26.2059 152.593 26.0642C152.593 25.9224 152.615 25.8516 152.66 25.8516C153.406 25.8516 153.959 25.7925 154.321 25.6744C154.682 25.5327 154.919 25.2964 155.032 24.9657C155.145 24.635 155.179 24.1153 155.134 23.4067L154.422 7.21357L155.913 4.76866L147.239 26.0287C147.194 26.1232 147.104 26.1705 146.968 26.1705C146.855 26.1705 146.753 26.1232 146.663 26.0287L137.481 7.07183C137.074 6.19781 136.611 5.56001 136.092 5.15843C135.572 4.75685 134.974 4.55606 134.296 4.55606C134.228 4.55606 134.194 4.48519 134.194 4.34346C134.194 4.20173 134.228 4.13086 134.296 4.13086L135.753 4.16629C136.046 4.18991 136.43 4.20172 136.905 4.20172L138.463 4.16629C138.667 4.14267 138.904 4.13086 139.175 4.13086C139.469 4.13086 139.706 4.24897 139.887 4.48519C140.067 4.69779 140.35 5.19386 140.734 5.9734L148.357 21.5996L146.9 24.2925L154.931 5.01669C155.066 4.68598 155.213 4.46157 155.371 4.34346C155.529 4.20173 155.721 4.13086 155.947 4.13086C156.105 4.13086 156.308 4.14267 156.557 4.16629C156.805 4.18991 157.11 4.20172 157.472 4.20172L159.301 4.16629C159.595 4.14267 160.024 4.13086 160.589 4.13086C160.657 4.13086 160.691 4.20173 160.691 4.34346C160.691 4.48519 160.657 4.55606 160.589 4.55606C159.527 4.55606 158.748 4.76866 158.251 5.19386C157.777 5.59544 157.562 6.26868 157.607 7.21357L158.353 23.4067C158.398 24.139 158.488 24.6705 158.624 25.0012C158.759 25.3319 158.996 25.5563 159.335 25.6744C159.674 25.7925 160.228 25.8516 160.996 25.8516Z" fill="white"/>
<path d="M116.696 16.7103H126.183L126.42 17.5961H116.255L116.696 16.7103ZM134.281 25.8521C134.371 25.8521 134.417 25.923 134.417 26.0647C134.417 26.2064 134.371 26.2773 134.281 26.2773C133.852 26.2773 133.163 26.2537 132.214 26.2064C131.265 26.1592 130.577 26.1356 130.147 26.1356C129.583 26.1356 128.916 26.1592 128.148 26.2064C127.38 26.2537 126.782 26.2773 126.352 26.2773C126.262 26.2773 126.217 26.2064 126.217 26.0647C126.217 25.923 126.262 25.8521 126.352 25.8521C127.03 25.8521 127.516 25.7812 127.809 25.6395C128.103 25.4742 128.25 25.2143 128.25 24.86C128.25 24.5056 128.058 23.9033 127.674 23.0529L120.592 7.99365L121.982 5.61961L115.273 21.4229C114.979 22.1316 114.832 22.7694 114.832 23.3363C114.832 24.1631 115.115 24.7891 115.679 25.2143C116.244 25.6395 117.035 25.8521 118.051 25.8521C118.164 25.8521 118.221 25.923 118.221 26.0647C118.221 26.2064 118.164 26.2773 118.051 26.2773C117.645 26.2773 117.057 26.2537 116.289 26.2064C115.431 26.1592 114.685 26.1356 114.053 26.1356C113.443 26.1356 112.732 26.1592 111.918 26.2064C111.195 26.2537 110.597 26.2773 110.123 26.2773C110.01 26.2773 109.953 26.2064 109.953 26.0647C109.953 25.923 110.01 25.8521 110.123 25.8521C110.755 25.8521 111.286 25.7222 111.715 25.4623C112.144 25.2025 112.562 24.7419 112.969 24.0804C113.375 23.3954 113.861 22.3914 114.426 21.0686L121.71 3.9188C121.756 3.84793 121.857 3.8125 122.015 3.8125C122.174 3.8125 122.264 3.84793 122.286 3.9188L130.588 21.4229C131.356 23.1237 132 24.293 132.519 24.9308C133.061 25.545 133.649 25.8521 134.281 25.8521Z" fill="white"/>
<path d="M108.968 5.7023C109.626 4.57298 109.955 3.59515 109.955 2.76881C109.955 1.55686 109.231 0.950877 107.782 0.950877C107.73 0.950877 107.703 0.868244 107.703 0.702978C107.703 0.537711 107.73 0.455078 107.782 0.455078L109.837 0.496394C110.943 0.551482 111.957 0.579026 112.879 0.579026C113.327 0.579026 113.867 0.551482 114.499 0.496394L115.961 0.455078C116.013 0.455078 116.04 0.537711 116.04 0.702978C116.04 0.868244 116.013 0.950877 115.961 0.950877C115.091 0.950877 114.104 1.43291 112.998 2.39696C111.891 3.33348 110.904 4.54543 110.034 6.03284L104.543 15.3291L103.752 14.668L108.968 5.7023ZM95.7322 4.83465C94.8367 3.37479 94.0597 2.36942 93.4012 1.81853C92.7691 1.24009 92.1501 0.950877 91.5443 0.950877C91.4653 0.950877 91.4258 0.868244 91.4258 0.702978C91.4258 0.537711 91.4653 0.455078 91.5443 0.455078L92.8481 0.496394C93.4276 0.551482 93.849 0.579026 94.1124 0.579026C94.9816 0.579026 96.2327 0.551482 97.8657 0.496394L100.355 0.455078C100.407 0.455078 100.434 0.537711 100.434 0.702978C100.434 0.868244 100.407 0.950877 100.355 0.950877C99.2485 0.950877 98.6954 1.32273 98.6954 2.06643C98.6954 2.39696 98.8666 2.85145 99.209 3.42988L105.254 13.1393L102.093 14.9986L95.7322 4.83465ZM105.53 13.098V22.9314C105.53 23.7853 105.596 24.405 105.728 24.7906C105.86 25.1763 106.123 25.4379 106.518 25.5757C106.94 25.7134 107.598 25.7822 108.494 25.7822C108.573 25.7822 108.612 25.8649 108.612 26.0301C108.612 26.1954 108.573 26.278 108.494 26.278C107.651 26.278 106.992 26.2643 106.518 26.2367L103.634 26.1954L100.789 26.2367C100.263 26.2643 99.5646 26.278 98.6954 26.278C98.6427 26.278 98.6164 26.1954 98.6164 26.0301C98.6164 25.8649 98.6427 25.7822 98.6954 25.7822C99.5909 25.7822 100.249 25.7134 100.671 25.5757C101.092 25.4379 101.382 25.1763 101.54 24.7906C101.698 24.3775 101.777 23.7577 101.777 22.9314V13.4699L105.53 13.098Z" fill="white"/>
<path d="M73.9771 23.4067C73.9771 24.139 74.0335 24.6705 74.1465 25.0012C74.282 25.3319 74.5192 25.5563 74.858 25.6744C75.2194 25.7925 75.7841 25.8516 76.5522 25.8516C76.6199 25.8516 76.6538 25.9224 76.6538 26.0642C76.6538 26.2059 76.6199 26.2768 76.5522 26.2768C75.8293 26.2768 75.2533 26.265 74.8241 26.2413L72.3168 26.2059L69.8772 26.2413C69.448 26.265 68.8607 26.2768 68.1153 26.2768C68.0476 26.2768 68.0137 26.2059 68.0137 26.0642C68.0137 25.9224 68.0476 25.8516 68.1153 25.8516C68.8833 25.8516 69.4368 25.7925 69.7756 25.6744C70.137 25.5563 70.3855 25.3319 70.521 25.0012C70.6565 24.6468 70.7243 24.1153 70.7243 23.4067V7.00097C70.7243 6.2923 70.6565 5.77261 70.521 5.4419C70.3855 5.11118 70.137 4.88677 69.7756 4.76866C69.4368 4.62693 68.8833 4.55606 68.1153 4.55606C68.0476 4.55606 68.0137 4.48519 68.0137 4.34346C68.0137 4.20173 68.0476 4.13086 68.1153 4.13086L69.8772 4.16629C70.8711 4.21354 71.6843 4.23716 72.3168 4.23716C73.017 4.23716 73.8641 4.21354 74.858 4.16629L76.5522 4.13086C76.6199 4.13086 76.6538 4.20173 76.6538 4.34346C76.6538 4.48519 76.6199 4.55606 76.5522 4.55606C75.8067 4.55606 75.2533 4.62693 74.8919 4.76866C74.5305 4.91039 74.282 5.15843 74.1465 5.51276C74.0335 5.84347 73.9771 6.36317 73.9771 7.07183V23.4067Z" fill="white"/>
<path d="M63.5228 26.2776C62.9807 26.2776 61.9755 25.2855 60.5072 23.3012C59.0615 21.3169 57.2996 18.5531 55.2215 15.0098L58.6935 14.1594C60.5909 17.1121 61.4108 19.4271 62.6757 21.1043C63.9633 22.7579 65.104 23.9626 66.0979 24.7185C67.0918 25.4744 68.0518 25.8524 68.9779 25.8524C69.0231 25.8524 69.0457 25.9233 69.0457 26.065C69.0457 26.2067 69.0231 26.2776 68.9779 26.2776H63.5228ZM55.8314 4.02539C57.774 4.02539 61.0639 4.43878 62.1482 5.26556C63.2324 6.06872 63.7745 7.17897 63.7745 8.59631C63.7745 9.91916 63.4131 11.1121 62.6903 12.1751C61.9674 13.2381 61.0074 14.0767 59.8102 14.6909C58.6356 15.2814 55.6168 15.5767 54.3066 15.5767C53.8323 15.5767 53.2563 15.5531 52.5786 15.5058V23.4075C52.5786 24.1398 52.6351 24.6713 52.748 25.002C52.861 25.3327 53.0869 25.5571 53.4257 25.6752C53.7871 25.7933 54.3631 25.8524 55.1537 25.8524C55.1989 25.8524 55.2215 25.9233 55.2215 26.065C55.2215 26.2067 55.1989 26.2776 55.1537 26.2776C54.4083 26.2776 53.821 26.2658 53.3918 26.2422L50.9184 26.2067L48.4788 26.2422C48.0496 26.2658 47.4623 26.2776 46.7169 26.2776C46.6491 26.2776 46.6152 26.2067 46.6152 26.065C46.6152 25.9233 46.6491 25.8524 46.7169 25.8524C47.4849 25.8524 48.0383 25.7933 48.3771 25.6752C48.7386 25.5571 48.987 25.3327 49.1226 25.002C49.2581 24.6477 49.3259 24.1162 49.3259 23.4075V7.0018C49.3259 6.29313 49.2581 5.77344 49.1226 5.44273C49.0096 5.11202 48.7724 4.8876 48.411 4.76949C48.0496 4.62776 47.4962 4.55689 46.7508 4.55689C46.7056 4.55689 46.683 4.48603 46.683 4.34429C46.683 4.20256 46.7056 4.13169 46.7508 4.13169L48.5127 4.16712C49.5066 4.21437 50.3085 4.23799 50.9184 4.23799C51.6638 4.23799 52.477 4.20256 53.3579 4.13169C53.6516 4.10807 54.0017 4.08445 54.4083 4.06082C54.8375 4.0372 55.3118 4.02539 55.8314 4.02539ZM60.4201 9.83648C60.4201 7.92307 60.1039 6.58841 59.4714 5.8325C58.8615 5.07658 56.1928 4.69863 55.0182 4.69863C54.1146 4.69863 53.4822 4.87579 53.1207 5.23013C52.7593 5.56084 52.5786 6.17502 52.5786 7.07267V14.5491C53.1207 14.6436 53.7758 14.6909 54.5438 14.6909C56.0121 14.6909 58.8389 14.3129 59.4714 13.557C60.1039 12.7775 60.4201 11.5373 60.4201 9.83648Z" fill="white"/>
<path d="M38.2227 7.07183C38.2227 6.36317 38.1549 5.84347 38.0194 5.51276C37.8839 5.15843 37.6128 4.91039 37.2062 4.76866C36.7996 4.62693 36.1784 4.55606 35.3427 4.55606C35.2749 4.55606 35.241 4.48519 35.241 4.34346C35.241 4.20173 35.2749 4.13086 35.3427 4.13086L36.969 4.16629C38.0533 4.21354 39.0133 4.23716 39.8491 4.23716C40.459 4.23716 41.2834 4.21354 42.3225 4.16629L44.1861 4.13086C44.2539 4.13086 44.2877 4.20173 44.2877 4.34346C44.2877 4.48519 44.2539 4.55606 44.1861 4.55606C43.3729 4.55606 42.7743 4.62693 42.3903 4.76866C42.0063 4.88677 41.7465 5.11118 41.611 5.4419C41.4755 5.77261 41.4077 6.2923 41.4077 7.00097V23.4067C41.4077 24.1153 41.4755 24.6468 41.611 25.0012C41.7465 25.3319 42.0063 25.5563 42.3903 25.6744C42.7743 25.7925 43.3729 25.8516 44.1861 25.8516C44.2539 25.8516 44.2877 25.9224 44.2877 26.0642C44.2877 26.2059 44.2539 26.2768 44.1861 26.2768C43.4181 26.2768 42.7969 26.265 42.3225 26.2413L39.8491 26.2059L36.969 26.2413C36.5624 26.265 36.0203 26.2768 35.3427 26.2768C35.2749 26.2768 35.241 26.2059 35.241 26.0642C35.241 25.9224 35.2749 25.8516 35.3427 25.8516C36.201 25.8516 36.8222 25.7925 37.2062 25.6744C37.6128 25.5563 37.8839 25.3319 38.0194 25.0012C38.1549 24.6468 38.2227 24.1153 38.2227 23.4067V7.07183ZM24.839 14.3003H39.6797V15.2215H24.839V14.3003ZM23.3481 7.00097C23.3481 6.2923 23.2803 5.77261 23.1448 5.4419C23.0093 5.11118 22.7495 4.88677 22.3655 4.76866C21.9815 4.62693 21.3942 4.55606 20.6036 4.55606C20.5584 4.55606 20.5358 4.48519 20.5358 4.34346C20.5358 4.20173 20.5584 4.13086 20.6036 4.13086L22.3994 4.16629C23.4385 4.21354 24.2517 4.23716 24.839 4.23716C25.6296 4.23716 26.567 4.21354 27.6512 4.16629L29.4131 4.13086C29.4583 4.13086 29.4809 4.20173 29.4809 4.34346C29.4809 4.48519 29.4583 4.55606 29.4131 4.55606C28.6 4.55606 27.9901 4.62693 27.5835 4.76866C27.1995 4.91039 26.9284 5.15843 26.7703 5.51276C26.6348 5.84347 26.567 6.36317 26.567 7.07183V23.4067C26.567 24.1153 26.6348 24.6468 26.7703 25.0012C26.9058 25.3319 27.1656 25.5563 27.5496 25.6744C27.9562 25.7925 28.5774 25.8516 29.4131 25.8516C29.4583 25.8516 29.4809 25.9224 29.4809 26.0642C29.4809 26.2059 29.4583 26.2768 29.4131 26.2768C28.6451 26.2768 28.0465 26.265 27.6174 26.2413L24.839 26.2059L22.3655 26.2413C21.9363 26.265 21.3377 26.2768 20.5697 26.2768C20.5245 26.2768 20.502 26.2059 20.502 26.0642C20.502 25.9224 20.5245 25.8516 20.5697 25.8516C21.3829 25.8516 21.9815 25.7925 22.3655 25.6744C22.7495 25.5563 23.0093 25.3319 23.1448 25.0012C23.2803 24.6468 23.3481 24.1153 23.3481 23.4067V7.00097Z" fill="white"/>
<path d="M4.19013 4.83406C4.19013 5.85321 4.4634 6.76217 5.00994 7.56096C5.58684 8.33221 6.2852 9.00705 7.10501 9.58549C7.92482 10.1364 9.04826 10.825 10.4753 11.6513C12.0239 12.5327 13.2384 13.2902 14.1189 13.9237C15.0298 14.5573 15.8041 15.3423 16.4417 16.2788C17.0793 17.1878 17.3982 18.262 17.3982 19.5015C17.3982 20.9063 16.9883 22.1595 16.1684 23.2613C15.379 24.3631 14.2404 25.2308 12.7526 25.8643C11.2951 26.4703 9.62516 26.7733 7.74264 26.7733C6.46738 26.7733 5.14658 26.6218 3.78023 26.3188C2.44424 26.0158 1.42707 25.6439 0.728719 25.2032C0.455449 25.0379 0.303633 24.7763 0.273269 24.4182L0 18.1794V18.138C0 18.0279 0.0759085 17.9728 0.227725 17.9728C0.379541 17.9452 0.470631 17.9866 0.500994 18.0967C1.50298 20.3554 2.64161 22.2146 3.91686 23.6745C5.22248 25.1344 6.8621 25.8643 8.83572 25.8643C10.1717 25.8643 11.28 25.5475 12.1605 24.914C13.041 24.2529 13.4813 23.1649 13.4813 21.65C13.4813 20.438 13.1777 19.3776 12.5704 18.4686C11.9935 17.5596 11.2648 16.8021 10.3842 16.1962C9.53407 15.5902 8.36508 14.8465 6.87728 13.9651C5.41985 13.1112 4.28122 12.395 3.46141 11.8166C2.64161 11.2106 1.94325 10.4807 1.36635 9.6268C0.789446 8.74538 0.500994 7.72623 0.500994 6.56936C0.500994 5.13705 0.941262 3.92509 1.8218 2.93349C2.70233 1.94189 3.84096 1.21196 5.23767 0.743702C6.66474 0.247901 8.15254 0 9.70107 0C10.7031 0 11.7202 0.0964064 12.7526 0.289219C13.7849 0.454485 14.6655 0.674841 15.3942 0.950285C15.8496 1.11555 16.0774 1.37722 16.0774 1.7353L16.1684 7.31306C16.1684 7.42324 16.0925 7.4921 15.9407 7.51965C15.8193 7.54719 15.7282 7.51965 15.6675 7.43701C15.0602 5.7568 14.2404 4.24185 13.208 2.89217C12.206 1.51495 10.6879 0.826334 8.65354 0.826334C7.28719 0.826334 6.19411 1.19818 5.3743 1.94189C4.58486 2.65804 4.19013 3.6221 4.19013 4.83406Z" fill="white"/>
<path d="M84.462 39.0758V48.625H83.0212V39.0758H84.462ZM101.489 39.0758V48.625H100.165L95.3111 41.6216H95.2225V48.625H93.7817V39.0758H95.1153L99.9738 46.0885H100.062V39.0758H101.489ZM110.812 48.625V39.0758H116.734V40.3161H112.253V43.2256H116.31V44.4612H112.253V48.625H110.812ZM125.727 48.625V39.0758H129.131C129.871 39.0758 130.485 39.2033 130.973 39.4582C131.464 39.713 131.831 40.0659 132.073 40.5166C132.316 40.9642 132.437 41.4818 132.437 42.0693C132.437 42.6536 132.314 43.1681 132.069 43.6126C131.826 44.054 131.459 44.3975 130.968 44.6431C130.48 44.8886 129.866 45.0114 129.127 45.0114H126.548V43.7711H128.996C129.462 43.7711 129.842 43.7043 130.134 43.5706C130.429 43.437 130.645 43.2427 130.782 42.9878C130.919 42.7329 130.987 42.4267 130.987 42.0693C130.987 41.7087 130.917 41.3963 130.777 41.1321C130.64 40.8678 130.424 40.6658 130.129 40.5259C129.837 40.3829 129.453 40.3114 128.977 40.3114H127.168V48.625H125.727ZM130.441 44.3167L132.801 48.625H131.159L128.847 44.3167H130.441ZM142.218 48.625H140.689L144.126 39.0758H145.79L149.226 48.625H147.697L144.997 40.8103H144.923L142.218 48.625ZM142.475 44.8855H147.436V46.0978H142.475V44.8855Z" fill="white"/>
</svg>
