<svg xmlns="http://www.w3.org/2000/svg" width="86" height="86" fill="none" viewBox="0 0 86 86"><g clip-path="url(#a)"><path fill="#003171" d="M4 4h77.767v77.767H4z"/><path fill="#fef5e3" d="M7.883 7.813q0 3.486 1.87 6.22a21.1 21.1 0 0 0 4.78 4.619q2.805 1.884 7.688 4.712 5.299 3.016 8.311 5.184a20.6 20.6 0 0 1 5.3 5.372q2.18 3.11 2.18 7.352 0 4.807-2.804 8.577-2.702 3.77-7.793 5.938-4.987 2.073-11.428 2.073-4.364 0-9.04-1.036-4.57-1.038-6.96-2.545-.935-.566-1.04-1.791l-.623-14.232v-.094q0-.378.52-.377.52-.094.623.282 3.429 7.73 7.792 12.724 4.468 4.996 11.221 4.996 4.572 0 7.585-2.168 3.012-2.262 3.013-7.446 0-4.148-2.078-7.257a17.8 17.8 0 0 0-4.987-5.184q-2.91-2.074-8-5.09-4.987-2.922-7.793-4.9a20.3 20.3 0 0 1-4.779-4.996Q-.533 15.73-.533 11.77q0-4.9 3.013-8.294Q5.493.084 10.272-1.518q4.884-1.697 10.182-1.697 3.429 0 6.961.66 3.533.566 6.026 1.508 1.56.566 1.559 1.79l.208 12.725q0 .377-.52.471-.416.094-.623-.188Q31.986 8 28.455 3.383q-3.43-4.713-10.39-4.713-4.675 0-7.48 2.545-2.703 2.45-2.702 6.598M79.847 9.84Q82.1 5.974 82.1 3.146 82.1-.999 77.143-1q-.18 0-.18-.565 0-.566.18-.566l4.686.094q3.786.189 6.94.189 1.532 0 3.695-.189L95.8-2.13q.18 0 .18.566 0 .565-.18.565-2.974 0-6.76 3.299-3.785 3.204-6.759 8.294L69.752 31.8l-1.802-1.508zM49.654 7.86Q46.59 2.865 44.336.98 42.173-1 40.1-1q-.27 0-.27-.565 0-.566.27-.566l2.975.094q1.983.189 2.884.189 2.974 0 8.562-.189l5.678-.094q.18 0 .18.566 0 .565-.18.565-3.786 0-3.785 2.545 0 1.13 1.171 3.11l13.79 22.15-7.21 4.24zm22.351 18.85v22.432q0 2.922.451 4.241.45 1.32 1.803 1.791 1.441.471 4.506.471.27 0 .27.566t-.27.566q-2.884 0-4.506-.095l-6.58-.094-6.489.094q-1.802.094-4.776.094-.18 0-.18-.565 0-.566.18-.566 3.063 0 4.506-.47 1.441-.472 1.983-1.792.54-1.413.54-4.24V27.557zM24.132 68.56a2 2 0 0 0-.235-.49 1.5 1.5 0 0 0-.805-.61 1.9 1.9 0 0 0-.562-.082q-.52 0-.938.268-.417.267-.66.784-.241.514-.241 1.26 0 .748.243 1.264.244.517.667.785.425.267.965.267.502 0 .875-.204.375-.204.58-.577a1.8 1.8 0 0 0 .207-.884l.24.045h-1.76v-.766h2.419v.7q0 .775-.331 1.347a2.25 2.25 0 0 1-.908.877q-.576.31-1.322.31-.836 0-1.466-.385a2.6 2.6 0 0 1-.98-1.09q-.352-.71-.352-1.684 0-.735.205-1.322.204-.585.574-.995.372-.411.874-.628.505-.22 1.103-.22.499 0 .929.148.433.147.769.418a2.36 2.36 0 0 1 .862 1.463zm6.828 4.21v-6.155h2.194q.714 0 1.187.246.475.247.709.682.234.434.234 1.001 0 .566-.237.995a1.6 1.6 0 0 1-.71.664q-.471.237-1.187.237h-1.66v-.799h1.577q.45 0 .734-.13a.86.86 0 0 0 .417-.375q.133-.246.133-.592 0-.348-.136-.604a.87.87 0 0 0-.417-.39q-.283-.14-.743-.139h-1.166v5.358zm3.038-2.777 1.52 2.776h-1.057l-1.49-2.776zm12.417-.3q0 .984-.36 1.694-.36.707-.99 1.088-.624.38-1.42.379a2.7 2.7 0 0 1-1.428-.379 2.65 2.65 0 0 1-.986-1.09q-.36-.71-.36-1.693 0-.985.36-1.692a2.63 2.63 0 0 1 .986-1.088 2.7 2.7 0 0 1 1.427-.381q.797 0 1.422.381.627.379.988 1.088.36.707.36 1.692m-.92 0q0-.752-.243-1.266a1.8 1.8 0 0 0-.661-.781 1.7 1.7 0 0 0-.947-.268q-.532 0-.95.268a1.8 1.8 0 0 0-.66.781q-.241.514-.241 1.265 0 .752.24 1.268.244.514.661.782.418.264.95.264.529 0 .947-.264a1.8 1.8 0 0 0 .66-.782q.244-.516.244-1.268m10.69-3.078h.931v4.048q0 .645-.303 1.145-.303.495-.854.781-.55.283-1.289.283-.736 0-1.286-.283a2.1 2.1 0 0 1-.853-.781 2.16 2.16 0 0 1-.304-1.145v-4.048h.929v3.973q0 .418.183.742.186.325.526.51.34.184.805.184.469 0 .809-.183.342-.186.523-.511.183-.324.183-.742zm6.936 6.154v-6.154h2.194q.718 0 1.19.261.472.262.706.716.234.45.234 1.015 0 .569-.237 1.022-.234.45-.71.715-.471.262-1.186.262h-1.509v-.788h1.425q.454 0 .736-.156a1 1 0 0 0 .415-.433q.132-.273.132-.622 0-.348-.132-.619a.95.95 0 0 0-.418-.424q-.282-.153-.745-.153H64.05v5.358z"/></g><path stroke="#fff" stroke-width="4" d="M2 2h81.767v81.767H2z"/><defs><clipPath id="a"><path fill="#fff" d="M4 4h77.767v77.767H4z"/></clipPath></defs></svg>