<svg xmlns="http://www.w3.org/2000/svg" width="162" height="164" fill="none" viewBox="0 0 162 164"><path fill="#3b3c33" d="M0 187.5V41.667h35.817V0h89.541v83.333h35.817V187.5H89.541v-41.667H71.634V187.5zm17.908-20.833h17.909v-20.834H17.908zm0-41.667h17.909v-20.833H17.908zm0-41.667h17.909V62.5H17.908zM53.725 125h17.908v-20.833H53.725zm0-41.667h17.908V62.5H53.725zm0-41.666h17.908V20.833H53.725zM89.542 125h17.908v-20.833H89.541zm0-41.667h17.908V62.5H89.541zm0-41.666h17.908V20.833H89.541zm35.816 125h17.908v-20.834h-17.908zm0-41.667h17.908v-20.833h-17.908z"/></svg>