<svg width="119" height="125" viewBox="0 0 119 125" fill="none" xmlns="http://www.w3.org/2000/svg">
<path d="M113.047 95.5049L101.909 84.3673V38.9816H74.0651V11.1376H40.6522V23.1105L29.5146 11.9729V11.1376C29.5146 8.07476 30.6052 5.45279 32.7863 3.27167C34.9674 1.09056 37.5894 0 40.6522 0H79.6339L113.047 33.4128V95.5049ZM40.6522 89.1008H75.1788L40.6522 54.5743V89.1008ZM110.262 124.184L86.3164 100.238H40.6522C37.5894 100.238 34.9674 99.1479 32.7863 96.9668C30.6052 94.7856 29.5146 92.1637 29.5146 89.1008V43.4367L0 13.922L7.79632 6.12568L118.059 116.388L110.262 124.184ZM18.377 122.514C15.3142 122.514 12.6922 121.423 10.5111 119.242C8.33 117.061 7.23944 114.439 7.23944 111.376V38.9816H18.377V111.376H85.2027V122.514H18.377Z" fill="#404039"/>
</svg>
