<svg xmlns="http://www.w3.org/2000/svg" width="241" height="176" fill="none" viewBox="0 0 241 176"><mask id="a" width="250" height="250" x="0" y="0" maskUnits="userSpaceOnUse" style="mask-type:alpha"><path fill="#d9d9d9" d="M0 0h250v250H0z"/></mask><g mask="url(#a)"><path fill="#3b3c33" d="m179.689 180.287-17.908-17.908V89.403H117.01V44.632H63.285v19.251L45.377 45.975v-1.343q0-7.387 5.26-12.648 5.262-5.26 12.648-5.26h62.679l53.725 53.725zM63.285 169.99h55.516l-55.516-55.516zm111.927 56.411-38.503-38.503H63.285q-7.386 0-12.647-5.26t-5.261-12.648V96.566L-2.08 49.109l12.536-12.536 177.292 177.292zm-147.743-2.686q-7.387 0-12.648-5.261-5.26-5.26-5.26-12.647V89.403h17.908v116.404h107.449v17.908z"/></g></svg>