<svg width="93" height="126" viewBox="0 0 93 126" fill="none" xmlns="http://www.w3.org/2000/svg">
<path d="M11.5716 114.063C3.8572 106.349 0 96.981 0 85.9605V46.2864L33.0617 79.3481L23.8044 88.7707L13.2247 78.191V85.9605C13.2247 93.2341 15.8145 99.4607 20.9942 104.64C26.1739 109.82 32.4005 112.41 39.6741 112.41C46.9476 112.41 53.1743 109.82 58.3539 104.64C63.5336 99.4607 66.1234 93.2341 66.1234 85.9605V64.9663C62.156 63.4234 58.9601 60.9713 56.5355 57.6101C54.111 54.2488 52.8987 50.4742 52.8987 46.2864C52.8987 42.0986 54.111 38.324 56.5355 34.9628C58.9601 31.6015 62.156 29.1494 66.1234 27.6065V0H79.3481V27.6065C83.3155 29.1494 86.5115 31.6015 88.936 34.9628C91.3605 38.324 92.5728 42.0986 92.5728 46.2864C92.5728 50.4742 91.3605 54.2763 88.936 57.6927C86.5115 61.1091 83.3155 63.5336 79.3481 64.9663V85.9605C79.3481 96.981 75.4909 106.349 67.7765 114.063C60.0621 121.777 50.6946 125.635 39.6741 125.635C28.6535 125.635 19.286 121.777 11.5716 114.063ZM77.4471 50.9977C78.7144 49.7303 79.3481 48.1599 79.3481 46.2864C79.3481 44.4129 78.7144 42.8425 77.4471 41.5751C76.1797 40.3077 74.6093 39.6741 72.7358 39.6741C70.8623 39.6741 69.2918 40.3077 68.0245 41.5751C66.7571 42.8425 66.1234 44.4129 66.1234 46.2864C66.1234 48.1599 66.7571 49.7303 68.0245 50.9977C69.2918 52.2651 70.8623 52.8988 72.7358 52.8988C74.6093 52.8988 76.1797 52.2651 77.4471 50.9977Z" fill="#404039"/>
</svg>
