<svg xmlns="http://www.w3.org/2000/svg" width="250" height="200" fill="none" viewBox="0 0 250 200"><mask id="a" width="250" height="250" x="0" y="0" maskUnits="userSpaceOnUse" style="mask-type:alpha"><path fill="#d9d9d9" d="M0 0h250v250H0z"/></mask><g mask="url(#a)"><path fill="#3b3c33" d="M53.49 189.187q-15.67-15.67-15.67-38.055V97.407l44.771 44.77-12.536 12.76L55.73 140.61v10.522q0 14.774 10.52 25.295 10.523 10.521 25.296 10.521 14.775 0 25.296-10.521t10.521-25.295v-28.43q-8.059-3.134-12.984-9.961-4.924-6.828-4.924-15.334t4.924-15.334 12.984-9.962V34.727h17.908v37.384q8.059 3.135 12.984 9.962 4.924 6.827 4.924 15.334t-4.924 15.446q-4.925 6.939-12.984 9.849v28.43q0 22.385-15.67 38.055t-38.055 15.669q-22.385 0-38.055-15.669m89.206-85.401q2.574-2.573 2.574-6.38 0-3.804-2.574-6.38-2.574-2.573-6.38-2.573t-6.38 2.574q-2.574 2.574-2.574 6.38t2.574 6.379q2.574 2.575 6.38 2.575t6.38-2.575"/></g></svg>