<svg xmlns="http://www.w3.org/2000/svg" width="78" height="78" fill="none" viewBox="0 0 78 78"><g clip-path="url(#a)"><path fill="#03377c" d="M0 0h77.767v77.767H0z"/><path fill="#fef5e3" d="M3.883 3.813q0 3.486 1.87 6.22a21.1 21.1 0 0 0 4.78 4.619q2.805 1.884 7.688 4.712 5.299 3.016 8.311 5.184a20.6 20.6 0 0 1 5.3 5.372q2.18 3.11 2.18 7.352 0 4.807-2.804 8.577-2.702 3.77-7.793 5.938-4.987 2.073-11.428 2.073-4.364 0-9.04-1.036-4.57-1.038-6.96-2.545-.936-.566-1.04-1.791l-.623-14.232v-.094q0-.378.52-.377.52-.094.623.282 3.429 7.73 7.792 12.724 4.468 4.996 11.221 4.996 4.572 0 7.585-2.168 3.012-2.262 3.013-7.446 0-4.148-2.078-7.257a17.8 17.8 0 0 0-4.987-5.184q-2.91-2.074-8-5.09-4.987-2.922-7.793-4.9a20.3 20.3 0 0 1-4.779-4.996Q-4.533 11.73-4.533 7.77q0-4.9 3.013-8.294 3.013-3.393 7.792-4.995 4.884-1.697 10.182-1.697 3.429 0 6.961.66 3.533.566 6.026 1.508 1.56.566 1.559 1.79l.208 12.725q0 .377-.52.471-.416.095-.623-.189-2.079-5.748-5.61-10.367-3.43-4.713-10.39-4.713-4.675 0-7.48 2.545-2.702 2.45-2.702 6.598M75.847 5.84Q78.1 1.974 78.1-.854 78.1-5 73.143-5q-.18 0-.18-.565 0-.566.18-.566l4.686.094q3.786.189 6.94.189 1.532 0 3.695-.189L91.8-6.13q.18 0 .18.566 0 .565-.18.565-2.974 0-6.76 3.299-3.785 3.204-6.759 8.294L65.752 27.8l-1.802-1.508zM45.654 3.86q-3.064-4.995-5.318-6.88Q38.173-5 36.1-5q-.27 0-.27-.565 0-.566.27-.566l2.975.094q1.983.189 2.884.189 2.974 0 8.562-.189l5.678-.094q.18 0 .18.566 0 .565-.18.565-3.786 0-3.785 2.545 0 1.13 1.171 3.11l13.79 22.15-7.21 4.24zm22.351 18.85v22.432q0 2.922.451 4.241.45 1.32 1.803 1.791 1.441.471 4.506.471.27 0 .27.566t-.27.566q-2.884 0-4.506-.095l-6.58-.094-6.489.094q-1.802.094-4.776.094-.18 0-.18-.565 0-.566.18-.566 3.063 0 4.506-.47 1.441-.472 1.983-1.792.54-1.413.54-4.24V23.557zM18.9 62.615v6.154h-.93v-6.154zm10.974 0v6.154h-.854l-3.128-4.513h-.057v4.513h-.929v-6.154h.86l3.131 4.52h.057v-4.52zm6.009 6.154v-6.154h3.816v.8h-2.888v1.875h2.615v.796H36.81v2.683zm9.613 0v-6.154h2.194q.714 0 1.187.246.474.247.709.683.234.433.234 1 0 .566-.237.995a1.6 1.6 0 0 1-.71.664q-.471.237-1.186.237h-1.662v-.799h1.577q.45 0 .734-.13a.86.86 0 0 0 .417-.375q.133-.246.133-.592 0-.348-.136-.604a.87.87 0 0 0-.417-.39q-.283-.14-.743-.139h-1.166v5.358zm3.038-2.776 1.52 2.776h-1.057l-1.49-2.776zm7.59 2.776h-.985l2.215-6.154h1.072l2.215 6.154h-.985l-1.74-5.036h-.048zm.166-2.41h3.197v.782H56.29z"/></g><defs><clipPath id="a"><path fill="#fff" d="M0 0h77.767v77.767H0z"/></clipPath></defs></svg>