<svg width="756" height="121" viewBox="0 0 756 121" fill="none" xmlns="http://www.w3.org/2000/svg">
  <path d="M-165.645 70.3445C-251.885 76.0666 -385.269 71.1759 -434 65.2151C-385.269 75.5499 -234.542 105.118 -122.312 104.164C17.9749 102.972 273.746 46.9151 344.002 40.7744C464.59 30.2344 571.405 27.1237 647.15 26.8803C556.392 12.5813 524.425 -1.42105 376.046 0.11593C298.201 0.922273 167.985 26.7057 105.963 35.8467C45.4182 44.9883 -79.406 64.6223 -165.645 70.3445Z" fill="#0F3D78"/>
  <path d="M-45.084 107.181C5.85917 107.18 159.899 102.853 250.427 91.0919C363.588 76.3899 579.334 35.9557 793.027 32.3906C1006.72 28.8256 1113.23 71.284 1273.94 69.858C1387.2 68.853 1443.51 63.705 1458.96 58.6718C1460.59 57.9218 1461.95 57.2433 1463.03 56.6481C1462.39 57.3136 1461.05 57.9916 1458.96 58.6718C1428.84 72.5513 1306.67 110.92 1156.28 98.9099C922.26 80.2217 804.007 60.0101 483.187 107.22C183.723 151.287 22.5946 117.111 -45.084 107.181Z" fill="#0F3D78"/>
</svg>
